{"glyphs":{"0":{"ha":600,"x_min":-1,"x_max":575,"o":"m 366 1053 q 483 1010 433 1053 q 542 914 535 968 q 543 905 543 908 q 545 902 544 903 q 547 901 546 901 q 569 878 564 897 q 575 844 575 859 l 575 837 q 518 519 575 692 q 378 207 462 346 q 210 16 295 68 q 144 -5 174 -5 q 75 27 105 -5 q 24 125 44 59 q 8 196 14 161 q 1 288 3 231 q -1 353 -1 328 q 1 401 -1 378 q 48 693 11 557 q 142 910 86 829 q 366 1053 243 1053 m 370 878 q 368 878 369 878 q 338 866 355 876 q 309 844 321 856 q 166 581 229 768 q 118 304 118 425 q 123 237 118 268 q 144 161 132 186 q 149 153 147 155 q 153 151 151 151 q 156 152 154 151 q 163 156 158 153 q 174 162 168 159 q 212 199 188 172 q 252 248 236 225 q 390 522 332 367 q 475 830 448 677 l 477 834 q 475 836 477 836 q 467 836 473 836 q 392 865 428 836 q 380 875 384 872 q 372 878 376 878 l 370 878 z "},"1":{"ha":602,"x_min":-2,"x_max":529,"o":"m 50 -41 q 14 -20 28 -36 q -2 17 0 -4 l -2 22 q 31 88 -2 56 q 129 141 63 118 q 148 147 140 144 q 155 151 155 150 q 153 156 155 151 q 149 166 151 161 q 139 192 142 180 q 134 220 136 204 q 133 238 133 229 q 142 344 133 279 q 168 475 152 410 q 221 655 189 556 q 279 815 254 755 q 282 825 281 821 q 284 830 284 829 l 284 831 q 281 826 284 831 q 272 814 277 821 q 185 701 230 755 q 120 631 140 646 q 110 625 113 627 q 97 624 106 624 q 86 625 90 624 q 79 628 83 625 q 65 653 68 636 q 64 659 64 656 q 144 801 64 696 q 219 896 182 852 q 323 1010 256 939 q 334 1023 329 1017 q 356 1046 349 1038 q 373 1060 364 1054 q 399 1074 382 1065 q 406 1078 402 1076 q 416 1082 409 1080 q 431 1086 423 1084 l 449 1089 l 465 1084 q 480 1079 475 1082 q 492 1069 485 1076 q 499 1062 496 1065 q 503 1056 502 1059 q 505 1047 504 1053 q 506 1019 506 1034 q 503 981 506 999 q 494 945 500 966 q 473 888 487 925 q 411 725 445 818 q 366 589 378 631 q 357 559 362 577 q 349 524 353 541 q 340 488 345 508 q 331 450 335 467 q 296 233 300 333 q 294 205 295 218 q 292 188 293 192 q 291 181 292 184 q 291 178 291 178 q 295 178 291 178 q 305 179 299 178 q 355 181 326 181 q 389 180 373 181 q 415 178 406 180 q 522 109 505 163 q 529 77 529 90 q 520 59 529 64 q 510 56 515 56 q 490 71 500 56 q 479 83 485 79 q 463 86 473 86 q 450 85 457 86 q 225 14 363 81 q 164 -15 186 -5 q 128 -30 142 -24 q 66 -42 93 -42 q 50 -41 58 -42 z "},"2":{"ha":854,"x_min":-3,"x_max":819,"o":"m 53 1 q 13 32 28 9 q -3 79 -3 54 q -1 96 -3 87 q 9 121 2 109 q 35 150 17 132 q 89 198 53 167 q 212 308 159 259 q 314 401 259 353 q 478 557 387 467 q 621 706 569 648 q 684 799 665 758 q 711 871 704 840 q 715 897 715 885 q 707 930 715 916 q 659 956 694 956 q 611 949 639 956 q 394 821 526 933 q 157 540 245 686 q 129 502 140 511 q 98 492 117 492 l 93 492 q 70 496 79 492 q 50 511 60 500 q 26 578 26 537 q 37 635 26 605 q 286 916 92 772 q 590 1046 442 1027 q 638 1050 616 1050 q 802 959 759 1050 q 819 881 819 924 q 759 694 819 798 q 595 474 708 610 q 515 381 555 424 q 408 271 475 338 q 356 220 370 234 q 342 203 342 205 q 343 203 342 203 l 344 203 q 401 210 360 205 q 474 216 441 214 q 543 218 506 218 q 595 217 576 218 q 674 184 648 211 q 700 127 700 157 q 699 117 700 122 q 665 68 692 83 q 623 58 648 58 l 615 58 q 597 60 604 59 q 580 66 590 62 q 520 86 547 81 q 452 93 492 92 l 438 93 q 173 46 307 93 q 157 38 162 42 q 142 26 151 35 q 122 9 131 15 q 102 0 113 3 q 79 -3 91 -3 q 53 1 64 -3 z "},"3":{"ha":688,"x_min":-2,"x_max":623,"o":"m 238 9 q 152 37 193 15 q 77 92 111 57 q 48 123 59 109 q 28 155 37 138 q 14 210 14 186 q 25 243 14 230 q 32 250 29 248 q 42 251 35 251 q 52 250 49 251 q 60 244 55 249 q 155 189 104 206 q 184 181 170 184 q 219 176 198 178 q 258 173 241 173 q 313 182 289 173 q 395 262 372 208 q 399 286 399 274 q 382 330 399 309 q 270 372 354 362 q 217 373 254 373 l 187 373 l 123 372 l 111 379 q 77 409 90 389 q 64 450 64 429 q 65 461 64 456 q 102 515 73 496 q 202 537 132 534 l 229 538 l 247 549 q 301 584 269 563 q 352 620 333 606 q 502 777 441 685 q 546 880 546 843 q 545 892 546 886 q 516 920 540 913 q 496 923 507 923 q 408 903 461 923 q 297 848 355 884 q 232 806 271 833 q 163 756 192 779 q 155 751 160 754 q 124 727 140 739 q 60 696 87 696 l 54 696 q 3 732 19 701 q -1 744 1 739 q -2 759 -2 749 q 27 831 -2 791 q 199 970 92 916 q 334 1021 265 1003 q 458 1038 402 1038 q 523 1029 495 1038 q 623 894 620 996 q 589 771 623 835 q 397 543 532 656 q 379 528 387 534 q 372 520 372 522 q 377 517 372 519 q 388 513 381 515 q 430 495 406 507 q 467 473 453 484 q 549 366 522 432 q 563 283 563 326 q 560 250 563 266 q 493 114 546 174 q 363 26 440 54 q 259 8 307 8 q 238 9 248 8 z "},"4":{"ha":776,"x_min":-3,"x_max":721,"o":"m 332 1 q 274 75 284 19 l 274 79 q 281 147 274 98 q 298 242 288 197 q 354 442 317 332 q 367 480 361 463 q 383 525 373 498 q 392 550 387 536 l 398 566 l 382 549 q 360 526 374 541 q 330 495 345 511 q 200 382 251 416 q 110 347 150 348 q 101 346 105 346 q 38 368 64 346 q 1 430 12 391 q -2 449 -1 439 q -3 482 -3 459 q 0 534 -3 513 q 11 589 3 555 q 198 985 53 752 q 226 1026 216 1015 q 250 1043 237 1037 q 284 1050 266 1050 q 324 1040 306 1050 q 365 970 365 1013 q 364 958 365 964 q 360 942 363 950 q 350 920 357 933 q 328 885 342 907 q 314 861 321 873 q 288 817 298 834 q 262 772 278 800 q 231 715 247 744 q 207 673 217 691 q 170 601 189 641 q 142 538 151 561 q 127 491 134 515 q 119 451 121 467 l 117 437 l 123 439 q 269 539 174 454 q 461 741 365 624 q 478 762 472 754 q 491 783 484 770 q 510 819 498 795 q 546 887 530 860 q 579 945 561 915 q 618 1004 603 985 q 645 1031 633 1024 q 655 1035 651 1034 q 669 1036 660 1036 q 684 1035 679 1036 q 694 1030 688 1034 q 719 1000 713 1020 q 721 980 721 992 q 717 939 721 960 q 631 705 704 876 q 457 205 495 387 q 446 144 452 181 q 437 71 440 106 q 391 5 431 26 q 377 0 382 1 q 361 -2 372 -1 l 352 -2 q 342 -1 347 -2 q 332 1 337 -1 z "},"5":{"ha":688,"x_min":-2,"x_max":656,"o":"m 161 12 q 9 75 47 23 q -2 111 -2 94 q 7 136 -2 125 q 28 146 14 146 q 41 144 34 146 q 68 142 53 142 q 249 183 140 142 q 380 275 319 212 q 450 392 435 331 q 453 410 452 401 q 454 435 454 418 l 454 463 l 448 475 q 432 494 441 488 q 408 500 423 500 l 400 500 q 345 490 376 500 q 189 408 251 459 q 149 370 172 394 q 104 321 125 347 q 83 299 90 305 q 71 290 77 292 q 50 284 60 284 q 21 296 34 284 q 2 329 8 308 q -1 356 -1 340 q 7 421 -1 385 q 83 663 23 500 q 112 741 96 699 q 137 804 128 783 q 136 804 137 804 q 123 801 134 804 q 90 794 106 794 q 73 796 81 794 q 17 840 34 805 q 11 855 12 849 q 9 871 9 861 l 9 875 q 52 948 9 923 q 172 989 90 966 q 332 1025 253 1011 q 408 1035 376 1032 q 486 1038 439 1038 q 526 1037 513 1038 q 548 1036 540 1037 q 564 1034 556 1035 q 635 1003 613 1025 q 656 954 656 985 q 655 939 656 944 q 652 928 654 934 q 639 909 647 918 q 624 896 631 899 q 610 893 617 893 q 600 895 604 893 q 594 899 597 896 q 587 905 591 901 q 581 911 583 909 q 576 913 578 913 q 568 913 574 913 q 372 876 528 913 l 353 872 l 275 714 q 194 552 216 597 q 172 504 172 507 l 172 503 l 173 503 q 179 508 174 504 q 191 517 184 511 q 350 595 266 572 q 366 599 359 597 q 381 601 372 600 q 406 601 390 601 q 431 601 422 601 q 445 599 439 600 q 457 595 450 597 q 550 532 514 578 q 591 399 591 475 q 541 227 591 314 q 422 95 496 152 q 270 19 348 39 q 189 10 231 10 q 161 12 174 10 z "},"6":{"ha":644,"x_min":-1,"x_max":609,"o":"m 416 1027 q 494 999 461 1027 q 519 947 519 972 q 505 916 519 928 q 495 911 501 913 q 484 906 490 908 q 447 889 469 901 q 412 869 426 878 q 370 830 395 857 q 330 785 345 804 q 181 456 240 667 q 169 409 176 438 q 154 353 161 379 q 148 324 148 328 q 151 331 148 324 q 157 346 153 337 q 285 586 207 477 q 380 693 340 663 q 412 712 394 703 q 444 725 430 721 q 476 729 460 729 q 572 675 534 729 q 609 525 609 615 q 595 408 609 471 q 493 168 564 268 q 452 121 477 146 q 406 82 427 96 q 237 22 332 33 q 221 21 227 21 q 210 20 216 20 q 201 21 206 20 q 188 22 196 21 q 113 48 146 26 q 108 51 110 50 q 104 52 106 52 q 98 51 102 52 q 92 50 96 50 q 63 60 78 50 q 3 212 20 94 q 0 251 1 227 q -1 300 -1 275 q 0 347 -1 327 q 45 570 7 456 q 311 993 147 879 q 414 1027 365 1027 l 416 1027 m 456 621 q 435 611 450 621 q 360 536 404 589 q 277 419 317 484 q 229 327 255 381 q 182 222 203 273 q 167 184 175 205 q 154 148 159 163 q 147 130 148 132 l 147 128 q 152 125 147 125 q 165 123 157 123 q 183 125 173 123 q 199 128 193 126 q 294 182 243 144 q 376 263 345 221 q 441 399 417 323 q 466 549 466 476 q 465 568 466 558 q 463 602 465 587 q 458 620 460 617 q 457 621 458 621 q 456 621 457 621 z "},"7":{"ha":581,"x_min":1,"x_max":710,"o":"m 60 11 q 41 19 52 14 q 24 33 31 25 q 1 92 1 58 q 4 119 1 106 q 55 231 9 141 q 291 627 165 448 q 483 886 418 808 q 494 901 494 898 l 493 901 q 463 892 488 899 q 408 880 438 886 q 355 868 377 873 q 260 852 297 857 q 182 848 222 848 q 68 865 101 848 q 45 884 57 871 q 28 908 33 896 q 23 921 24 916 q 22 938 22 926 q 25 964 22 954 q 35 985 28 974 q 77 1014 51 1006 q 86 1017 81 1016 q 96 1017 90 1017 q 109 1017 101 1017 q 123 1016 115 1017 q 136 1015 130 1015 q 138 1014 137 1014 q 194 1012 151 1012 q 324 1015 246 1012 q 473 1022 402 1017 q 501 1024 488 1023 q 571 1029 541 1027 q 631 1035 602 1032 q 667 1038 652 1037 q 686 1039 683 1039 q 703 1027 695 1036 q 710 1006 710 1017 q 709 999 710 1003 q 706 991 707 994 q 621 897 698 975 q 575 849 592 867 q 548 817 559 831 q 524 786 536 804 q 502 755 515 773 q 471 713 485 732 q 324 484 399 612 q 212 269 249 356 q 194 221 201 245 q 176 161 186 198 q 167 126 172 142 q 163 111 163 115 q 160 100 161 106 q 158 89 159 94 q 152 65 157 78 q 142 43 148 52 q 77 9 115 9 q 60 11 68 9 z "},"8":{"ha":600,"x_min":0,"x_max":522,"o":"m 403 1088 q 437 1083 422 1088 q 507 1019 486 1068 q 522 930 522 985 q 498 768 522 864 q 455 626 482 699 q 400 498 429 553 l 388 473 l 406 452 q 488 252 487 353 l 488 242 q 461 118 488 174 q 444 86 452 99 q 423 58 435 73 q 264 -35 361 -12 q 218 -39 244 -39 q 179 -36 196 -39 q 77 20 119 -25 q 53 46 62 34 q 35 79 44 59 q 0 245 0 151 q 28 431 0 332 q 129 635 66 559 l 142 650 l 136 664 q 119 724 124 694 q 115 762 115 741 q 120 812 115 789 q 223 994 141 912 q 366 1083 294 1063 q 403 1088 385 1088 m 407 987 q 396 985 404 987 q 301 917 352 970 q 226 803 250 863 q 214 744 214 772 q 222 696 214 720 q 237 664 227 682 q 252 639 246 646 q 260 629 256 635 q 267 618 264 623 q 275 603 269 612 q 287 587 281 595 q 312 557 299 572 q 335 532 326 543 q 347 522 345 522 q 351 534 347 523 q 360 562 355 546 q 398 694 385 641 q 416 793 411 747 q 424 903 424 855 q 412 984 424 966 q 407 987 409 987 m 239 510 l 234 501 q 216 467 227 490 q 197 422 205 444 q 163 240 163 322 q 163 222 163 231 q 205 98 170 117 q 241 90 221 90 q 270 93 255 90 q 399 217 370 119 q 403 257 403 235 q 399 296 403 279 q 363 370 390 332 q 271 476 336 409 l 239 510 z "},"9":{"ha":688,"x_min":-2,"x_max":541,"o":"m 356 1085 q 459 1052 416 1085 q 509 975 505 1018 q 510 966 509 969 q 512 964 511 964 q 513 964 512 964 q 520 966 516 966 q 532 962 527 966 q 538 946 538 956 q 536 933 538 941 q 534 922 534 926 q 535 918 534 919 q 541 849 541 896 q 538 783 541 817 q 478 464 524 625 q 366 181 433 304 q 335 133 353 160 q 302 87 316 105 q 116 -36 204 -28 q 103 -37 109 -37 q 92 -36 96 -37 q 40 -13 61 -31 q 20 24 20 5 l 20 29 q 31 47 22 41 q 59 54 39 52 q 86 60 75 56 q 109 75 97 65 q 138 105 124 90 q 167 146 151 121 q 230 257 197 193 q 283 371 263 320 q 287 380 286 376 q 290 385 289 385 q 290 387 290 386 l 290 387 q 269 359 289 387 q 175 264 221 293 q 116 245 144 245 q 55 272 82 245 q 13 351 28 299 q 1 407 4 380 q -2 480 -2 433 q -1 532 -2 514 q 2 570 -1 549 q 57 800 18 693 q 149 972 96 907 q 356 1085 245 1085 m 355 922 q 353 922 355 922 q 351 922 353 922 q 327 912 342 920 q 301 895 313 904 q 168 678 232 831 q 111 418 111 525 q 111 395 111 406 q 123 334 115 353 q 127 327 125 329 q 130 325 128 325 q 132 326 131 325 q 139 329 134 326 q 148 334 143 331 q 181 364 160 342 q 216 404 202 385 q 318 566 260 461 q 345 614 331 589 q 369 660 358 640 q 381 686 379 680 q 393 726 384 692 q 414 802 403 759 q 435 882 432 873 q 437 886 437 885 q 435 887 437 887 q 429 888 433 888 q 370 911 397 888 q 361 920 364 918 q 355 922 357 922 z "},"\u0000":{"ha":0,"x_min":0,"x_max":0,"o":""},"\r":{"ha":347,"x_min":0,"x_max":0,"o":""}," ":{"ha":345,"x_min":0,"x_max":0,"o":""},"!":{"ha":321,"x_min":60,"x_max":458,"o":"m 385 1048 l 387 1048 q 437 1026 416 1048 q 458 975 458 1005 q 458 963 458 969 q 385 769 453 934 q 350 686 365 722 q 316 600 336 650 q 275 496 291 536 q 240 409 259 456 q 185 277 220 362 q 172 250 177 258 q 162 240 168 242 q 158 238 159 239 q 155 237 157 237 q 147 240 152 237 q 137 251 142 243 q 132 294 132 263 q 136 355 132 321 q 251 842 159 578 q 331 1021 299 979 q 367 1045 345 1038 q 385 1048 376 1048 m 134 153 q 178 136 158 153 q 204 90 199 119 q 205 79 205 85 q 182 25 205 51 q 134 1 161 2 l 119 1 q 113 2 115 1 q 85 17 98 6 q 66 42 73 28 q 60 73 60 57 q 84 132 60 105 q 134 153 109 153 z "},"\"":{"ha":351,"x_min":154,"x_max":538,"o":"m 322 756 q 313 779 313 763 q 329 846 313 799 q 414 1024 371 987 q 456 1047 433 1043 q 467 1048 461 1048 q 512 1031 492 1048 q 537 988 532 1015 q 538 978 538 983 q 460 850 538 928 q 413 804 439 827 q 372 768 388 781 q 337 750 351 750 q 322 756 329 750 m 161 764 q 156 773 157 768 q 154 788 154 779 q 155 801 154 793 q 160 837 155 815 q 177 910 164 859 q 189 955 184 939 q 197 980 193 971 q 205 998 200 989 q 217 1017 211 1010 q 231 1032 222 1025 q 273 1048 252 1048 q 312 1034 294 1048 q 333 989 332 1015 l 333 983 q 330 958 333 970 q 319 931 327 947 q 272 858 304 904 q 216 786 239 811 q 192 765 201 770 q 174 759 183 759 q 166 760 169 759 q 161 764 163 761 z "},"#":{"ha":950,"x_min":132,"x_max":1059,"o":"m 524 1038 q 543 1036 534 1038 q 603 966 596 1023 l 603 960 q 590 914 603 939 q 573 881 581 897 q 559 853 565 865 q 554 842 554 842 q 559 841 554 842 q 608 838 574 840 q 692 831 653 834 q 747 827 731 828 l 760 826 l 763 833 q 801 915 779 869 q 836 981 824 962 q 854 1004 843 993 q 875 1022 865 1015 q 920 1034 897 1034 q 949 1029 936 1034 q 989 960 989 1006 q 977 905 989 935 q 969 888 974 898 q 954 857 964 879 q 943 835 949 848 l 926 798 l 932 796 q 1021 767 994 779 q 1055 743 1047 756 q 1058 735 1057 739 q 1059 723 1059 731 q 1044 694 1059 703 q 1028 687 1039 690 q 991 684 1017 685 q 918 681 966 682 l 876 680 l 862 648 q 852 625 858 637 q 837 589 843 604 q 781 451 802 505 q 765 410 773 432 q 750 370 756 387 q 744 352 744 353 q 747 351 744 352 q 753 349 749 351 q 822 286 806 334 q 824 268 824 277 q 804 216 824 240 q 788 203 796 208 q 768 195 780 199 q 767 195 768 195 q 756 192 761 193 q 740 191 751 191 q 704 191 728 191 l 691 191 l 683 165 q 667 106 675 138 q 655 53 659 74 q 651 36 653 44 q 648 24 649 28 q 638 7 644 15 q 625 -3 631 -1 q 610 -7 618 -7 q 597 -4 603 -7 q 584 6 591 -1 q 574 24 578 14 q 571 33 572 28 q 570 45 570 37 q 569 67 569 53 l 569 75 q 571 134 569 99 q 575 188 572 168 l 576 196 l 456 196 l 336 195 l 331 170 q 325 142 328 159 q 317 109 321 125 q 305 58 311 76 q 292 29 299 39 q 252 3 277 3 l 248 3 q 228 7 236 3 q 210 21 220 12 q 184 71 193 40 q 180 122 180 90 q 184 196 180 157 l 185 205 l 175 207 q 135 232 144 214 q 132 247 132 239 q 157 283 132 268 q 159 283 158 283 q 169 288 163 285 q 182 292 176 290 l 201 298 l 207 325 q 296 636 236 454 q 310 677 304 660 q 316 694 316 694 q 309 695 316 695 q 290 696 301 696 q 245 698 260 696 q 218 705 229 700 q 184 736 196 716 q 173 779 173 756 q 197 836 173 810 q 215 850 206 845 q 235 857 223 854 q 245 859 239 859 q 261 859 250 859 q 307 859 276 859 q 339 858 324 858 q 374 857 370 857 l 381 857 l 390 877 q 418 936 403 905 q 441 981 433 966 q 524 1038 477 1038 m 490 693 l 479 665 q 389 397 427 529 q 386 387 388 391 q 376 349 379 359 q 373 336 373 338 q 374 335 373 335 q 374 334 374 334 q 374 334 374 334 q 374 334 374 334 q 374 334 374 334 q 374 334 374 334 q 380 335 374 334 q 401 337 389 336 q 439 340 417 338 q 506 345 461 342 q 544 347 522 346 q 584 350 568 349 q 602 352 600 351 q 603 354 602 353 q 604 356 604 355 q 610 384 604 359 q 624 438 616 408 q 637 489 631 469 q 686 644 663 577 q 692 658 689 651 q 701 686 701 683 q 679 687 699 686 q 631 689 659 688 q 576 691 603 690 q 535 692 549 692 l 490 693 z "},"$":{"ha":764,"x_min":122,"x_max":793,"o":"m 627 1059 q 644 1058 639 1059 q 656 1055 650 1057 q 698 991 698 1031 q 697 983 698 987 q 694 968 697 977 q 684 945 691 960 q 672 924 677 935 q 665 907 667 913 q 658 892 663 902 q 647 867 652 880 q 637 848 642 856 q 633 839 633 840 q 636 838 633 838 q 642 837 638 838 q 683 825 661 833 q 724 804 705 816 q 787 724 771 772 q 792 705 791 712 q 793 683 793 699 q 764 601 793 628 q 717 577 741 577 q 686 591 699 577 q 677 603 680 598 q 671 618 674 607 q 631 669 658 654 q 580 679 608 679 l 565 678 l 559 664 q 542 618 554 649 q 518 554 530 587 q 498 502 505 521 q 487 473 491 484 q 484 463 484 465 q 485 462 484 463 q 492 461 487 461 q 507 460 497 460 q 532 460 516 460 q 593 458 570 460 q 635 451 616 456 q 697 414 675 440 q 718 353 718 388 q 699 283 718 320 q 595 182 665 226 q 399 117 509 128 l 378 115 l 372 87 q 358 29 366 57 q 349 -7 351 1 q 326 -25 340 -25 q 319 -25 322 -25 q 315 -24 316 -24 q 301 -12 308 -21 q 291 11 295 -2 q 289 33 290 18 q 288 64 288 47 q 289 98 288 83 q 289 99 289 98 q 290 114 290 109 q 288 121 290 120 q 279 123 286 123 q 278 123 279 123 q 247 132 267 125 q 212 144 227 138 q 124 231 140 178 q 122 246 122 239 q 140 279 122 269 q 151 282 146 282 q 178 273 161 282 q 212 261 195 265 q 250 254 229 257 q 296 251 276 251 q 314 252 309 251 q 319 261 319 253 q 325 282 320 265 q 334 323 329 300 q 344 362 340 346 q 348 379 348 378 q 313 382 348 381 q 206 401 240 382 q 157 445 177 416 q 140 512 140 473 q 148 562 140 537 q 267 723 178 646 q 474 829 357 798 l 491 833 l 518 911 q 555 1002 534 958 q 574 1036 565 1025 q 596 1053 583 1047 q 605 1057 602 1056 q 614 1059 609 1059 q 627 1059 618 1059 m 423 633 l 422 633 q 416 631 420 633 q 415 630 416 631 q 328 567 367 602 q 274 503 290 532 q 269 490 269 494 q 272 485 269 488 q 279 480 274 483 q 319 468 292 474 q 362 462 347 462 l 364 462 q 370 464 368 462 q 373 470 372 465 q 378 488 374 473 q 387 517 382 500 q 389 524 388 521 q 400 560 395 541 q 411 593 406 579 q 418 614 414 604 q 423 631 422 629 l 423 633 m 516 393 q 501 393 509 393 q 479 392 488 393 q 466 391 471 392 q 460 390 462 391 q 457 389 458 389 q 451 373 456 387 q 440 339 446 359 q 428 302 433 320 q 419 276 422 285 l 416 267 l 437 271 q 458 276 446 273 q 479 281 470 279 q 579 326 543 300 q 607 351 596 338 q 618 370 618 363 q 617 373 618 372 q 607 380 615 376 q 588 387 599 384 q 516 393 566 393 z "},"%":{"ha":814,"x_min":115,"x_max":783,"o":"m 142 31 q 139 38 140 35 q 137 46 138 41 q 137 60 137 52 q 138 83 137 73 q 146 109 140 93 q 165 153 152 124 q 201 230 178 182 q 299 431 258 351 q 402 618 341 511 q 469 735 446 695 q 503 795 492 776 q 522 826 514 814 q 591 936 557 886 q 643 1003 626 985 q 682 1027 661 1021 q 702 1031 692 1030 l 704 1031 q 754 1012 732 1031 q 781 963 776 994 q 783 950 783 957 q 774 918 783 935 q 745 871 766 900 q 703 807 722 836 q 659 739 684 779 q 650 725 654 732 q 613 668 634 701 q 572 604 591 635 q 475 453 512 513 q 380 293 438 393 q 297 151 338 220 q 241 57 256 81 q 178 8 210 8 q 168 9 172 8 q 153 17 159 12 q 142 31 146 23 m 279 1027 q 336 1004 313 1027 q 359 946 359 981 q 359 936 359 939 q 361 931 359 933 q 365 928 362 930 q 383 912 372 924 q 399 892 393 901 q 419 804 419 854 l 419 792 q 375 663 414 718 q 272 590 336 609 q 233 585 253 585 q 207 588 218 585 q 187 595 195 591 q 170 605 179 598 q 115 734 115 645 q 118 771 115 751 q 206 983 131 876 q 275 1027 235 1026 l 279 1027 m 334 889 q 328 884 334 889 q 314 870 322 878 q 236 728 255 808 q 234 701 234 713 q 234 690 234 694 q 236 684 235 686 q 245 682 239 682 q 257 684 250 682 q 269 687 263 685 q 347 795 328 714 q 350 833 350 814 q 347 863 350 851 q 343 875 345 869 q 338 885 340 881 q 334 889 336 889 m 680 528 q 718 513 703 528 q 731 481 731 500 q 721 443 731 465 l 716 432 l 722 424 q 760 323 747 385 q 762 307 761 315 q 763 287 763 298 q 764 254 764 275 q 763 210 764 222 q 760 184 762 197 q 671 35 742 86 q 592 1 634 9 q 563 -1 579 -1 q 532 1 545 -1 q 444 98 467 21 q 441 112 442 106 q 440 126 440 118 q 439 149 439 134 q 441 191 439 175 q 450 233 444 206 q 490 342 464 286 q 545 439 516 399 q 591 487 564 464 q 642 520 618 510 q 680 528 663 528 m 686 375 l 680 362 q 669 343 676 356 q 654 318 662 331 q 635 288 646 304 q 618 258 625 271 q 562 127 564 170 l 562 119 q 570 92 562 97 q 576 92 572 92 q 603 97 587 92 q 663 150 637 112 q 689 231 682 180 q 691 258 690 240 q 692 296 692 275 q 691 333 692 315 q 689 359 690 350 l 686 375 z "},"&":{"ha":677,"x_min":104,"x_max":638,"o":"m 479 1048 q 496 1046 486 1048 q 525 1038 513 1043 q 549 1024 536 1034 q 597 963 580 1002 q 614 879 614 924 q 613 863 614 871 q 547 673 607 779 q 496 591 528 640 q 429 495 464 543 l 410 469 l 416 445 q 431 385 421 422 q 450 317 441 348 q 462 282 459 286 q 466 287 463 282 q 474 299 469 292 q 560 514 554 435 q 565 540 561 532 q 580 553 570 548 q 593 555 587 555 q 618 543 606 555 q 638 484 638 524 q 609 357 638 435 q 518 192 575 270 q 509 181 513 186 q 505 175 506 176 l 505 174 q 507 168 505 172 q 511 157 509 163 q 519 142 515 150 q 530 122 523 134 q 549 89 536 110 q 550 86 549 87 q 563 61 559 71 q 566 44 566 52 q 566 35 566 40 q 556 18 564 26 q 540 7 549 9 q 523 4 532 4 q 483 16 504 4 q 457 34 473 21 q 428 60 441 46 l 410 77 l 392 64 q 220 -12 292 -12 q 187 -7 203 -12 q 111 71 130 9 q 104 121 104 94 q 106 153 104 138 q 229 388 122 251 q 248 413 243 406 q 252 424 252 420 l 252 425 q 250 437 252 428 q 246 459 248 447 q 229 635 229 552 q 275 876 229 772 q 349 985 305 943 q 377 1010 364 1000 q 407 1028 390 1019 q 434 1040 422 1036 q 463 1046 446 1044 q 475 1048 470 1048 l 479 1048 m 501 943 q 491 941 497 943 q 445 902 469 934 q 392 755 406 850 q 390 726 391 743 q 389 675 389 709 q 389 631 389 650 q 391 606 390 611 q 393 598 391 598 q 395 601 393 598 q 400 608 396 602 q 418 633 408 618 q 536 836 513 764 q 543 882 543 860 q 540 907 543 897 q 529 928 536 919 q 511 941 521 937 q 501 943 505 943 m 288 300 l 282 293 q 273 278 280 290 q 256 252 265 267 q 201 130 208 176 q 199 111 199 119 q 208 87 199 93 q 219 86 212 86 q 235 87 227 86 q 252 91 244 89 q 301 116 272 99 q 352 151 330 133 q 353 154 353 152 q 351 161 353 156 q 342 178 348 166 q 315 230 330 199 q 294 282 301 261 l 288 300 z "},"'":{"ha":260,"x_min":190,"x_max":414,"o":"m 199 756 q 190 778 190 762 q 205 846 190 798 q 291 1024 248 987 q 332 1046 310 1043 q 345 1048 338 1048 q 389 1031 370 1048 q 414 988 409 1015 q 414 978 414 983 q 338 850 414 927 q 290 804 315 827 q 249 768 265 781 q 214 750 227 750 q 199 756 205 750 z "},"(":{"ha":394,"x_min":159,"x_max":595,"o":"m 275 -67 q 260 -60 267 -64 q 245 -48 254 -56 q 173 121 199 -5 q 159 256 159 189 q 207 531 159 378 q 332 851 250 678 q 395 960 361 912 q 457 1029 429 1008 q 534 1058 498 1058 l 539 1058 q 578 1042 564 1057 q 591 1027 587 1035 q 595 1005 594 1019 l 595 1000 q 592 977 595 988 q 583 951 589 966 q 573 932 579 942 q 556 905 568 922 q 522 856 544 888 q 445 745 472 787 q 400 666 418 703 q 323 473 357 578 q 275 276 290 368 q 267 160 267 212 q 270 107 267 130 q 284 42 274 81 q 306 -24 295 4 q 314 -51 314 -43 q 312 -58 314 -55 q 290 -70 305 -70 q 275 -67 283 -70 z "},")":{"ha":408,"x_min":21,"x_max":435,"o":"m 29 -88 q 21 -77 21 -85 q 33 -49 21 -68 q 172 280 108 92 q 260 619 236 468 q 272 770 272 700 q 264 873 272 827 q 258 901 261 892 q 246 920 254 910 q 232 943 236 932 q 229 971 229 954 q 229 989 229 983 q 233 1001 230 995 q 263 1039 243 1025 q 308 1052 284 1052 q 349 1040 328 1052 q 370 1023 358 1035 q 389 1002 382 1011 q 431 863 420 957 q 435 766 435 824 q 431 670 435 709 q 297 259 411 484 q 104 -32 201 68 q 65 -69 83 -52 q 41 -89 46 -86 q 35 -90 37 -90 q 32 -90 33 -90 q 29 -88 31 -90 z "},"*":{"ha":340,"x_min":116,"x_max":451,"o":"m 290 718 q 254 748 271 726 q 236 777 247 759 q 221 806 226 794 q 219 810 220 808 q 218 812 218 812 q 211 809 217 812 q 196 804 204 807 q 146 790 163 790 q 119 804 127 790 q 117 810 117 807 q 116 816 116 812 l 116 821 q 125 842 116 830 q 158 879 134 854 l 186 907 l 183 935 q 182 960 182 948 q 189 1018 182 995 q 197 1034 191 1026 q 210 1045 203 1042 q 224 1048 216 1048 q 242 1044 234 1048 q 279 1002 259 1036 q 288 988 284 994 q 292 983 292 983 q 301 987 294 983 q 319 998 309 991 q 362 1020 343 1010 q 391 1031 382 1029 q 410 1033 400 1033 q 429 1030 421 1033 q 451 996 451 1020 q 440 966 451 981 q 398 926 429 951 q 338 880 357 893 q 336 878 337 878 q 336 875 336 877 q 337 865 336 872 q 349 777 349 814 q 342 736 349 750 q 306 714 328 714 q 299 715 304 714 q 290 718 294 717 z "},"+":{"ha":704,"x_min":130,"x_max":652,"o":"m 269 73 q 234 126 234 87 q 235 134 234 130 q 240 170 236 148 q 251 214 245 192 q 254 227 252 221 q 256 239 256 237 q 227 241 256 241 q 187 244 202 241 q 159 252 172 246 q 130 295 130 267 q 132 311 130 302 q 145 330 134 319 q 172 348 157 341 q 277 376 212 368 l 301 379 l 304 388 q 312 410 307 392 q 326 453 318 429 q 350 527 340 500 q 368 567 359 553 q 387 592 376 581 q 446 620 416 620 q 467 616 456 620 q 512 544 512 597 l 512 536 q 503 491 511 515 q 471 420 494 466 q 460 396 465 406 q 456 386 456 386 l 458 386 q 488 387 465 386 q 503 388 495 387 q 566 391 541 391 q 612 386 596 391 q 638 372 628 382 q 652 341 652 358 q 632 306 652 321 q 600 294 623 300 q 532 282 578 289 q 448 269 486 275 q 404 261 411 262 q 399 255 402 261 q 390 235 396 249 q 348 143 368 184 q 320 90 328 102 q 281 71 302 71 q 269 73 275 71 z "},",":{"ha":260,"x_min":-32,"x_max":208,"o":"m -25 -125 q -32 -114 -32 -123 q -16 -65 -32 -100 q 13 -3 -3 -35 q 53 75 28 29 q 77 121 69 106 q 91 143 85 136 q 101 155 96 150 q 116 166 109 162 q 136 174 124 171 q 149 176 144 176 q 160 174 154 176 q 178 168 171 172 q 193 157 186 164 q 208 116 208 140 q 201 84 208 100 q 194 73 199 79 q 176 54 189 66 q 140 18 163 41 q 39 -81 80 -41 q -8 -125 -2 -120 q -17 -128 -14 -128 q -25 -125 -21 -128 z "},"-":{"ha":586,"x_min":129,"x_max":554,"o":"m 184 269 q 146 290 161 275 q 129 333 129 310 q 148 378 129 358 q 168 392 156 388 q 207 399 179 397 q 290 404 234 401 q 394 406 351 406 q 511 397 475 406 q 554 360 554 387 q 529 327 554 340 q 440 300 505 314 q 273 272 373 286 q 241 269 260 270 q 206 269 222 269 q 184 269 191 269 z "},".":{"ha":237,"x_min":58,"x_max":194,"o":"m 108 47 q 63 85 79 56 q 59 94 60 90 q 58 102 58 97 q 58 115 58 106 q 59 133 58 128 q 62 145 60 138 q 97 178 75 168 q 110 183 104 182 q 125 184 115 184 q 142 183 137 184 q 155 178 147 182 q 189 145 178 168 q 193 133 192 138 q 194 115 194 128 q 194 102 194 106 q 192 94 193 97 q 189 85 191 90 q 162 56 179 66 q 125 45 144 45 q 108 47 117 45 z "},"/":{"ha":543,"x_min":17,"x_max":788,"o":"m 44 -92 q 17 -49 17 -81 q 20 -26 17 -38 q 27 -8 23 -18 q 39 21 31 2 q 65 76 48 40 q 144 234 98 146 q 236 403 190 321 q 254 434 245 418 q 268 459 262 450 q 297 510 277 475 q 338 583 317 545 q 375 646 360 621 q 507 860 439 756 q 619 1018 576 964 q 737 1104 690 1104 q 784 1075 770 1104 q 787 1066 786 1070 q 788 1056 788 1063 l 788 1047 q 787 1029 788 1036 q 782 1011 786 1022 q 709 873 768 967 q 688 840 699 856 q 658 795 677 823 q 603 713 639 766 q 507 571 567 661 q 458 500 484 538 q 192 85 334 317 q 134 -11 155 23 q 102 -59 113 -44 q 88 -78 92 -74 q 55 -94 72 -94 q 44 -92 49 -94 z "},":":{"ha":378,"x_min":134,"x_max":357,"o":"m 281 570 q 332 551 309 570 q 357 496 357 526 q 353 475 357 487 q 343 455 349 464 q 281 422 317 422 q 260 426 271 422 q 209 486 218 441 q 208 496 208 491 q 219 535 208 517 q 248 563 230 553 q 281 570 264 570 m 202 271 q 233 265 218 271 q 262 239 252 256 q 273 201 273 221 q 271 184 273 193 q 261 162 268 174 q 245 143 254 151 q 202 126 227 126 q 180 130 191 126 q 146 154 158 136 q 134 196 134 172 q 146 241 134 224 q 202 271 166 270 z "},";":{"ha":378,"x_min":99,"x_max":349,"o":"m 283 570 q 342 534 320 570 q 346 526 345 529 q 348 518 348 522 q 349 505 349 513 q 348 487 349 492 q 343 475 347 482 q 328 455 338 465 q 307 439 317 444 q 296 436 301 437 q 281 434 290 435 l 276 434 q 258 436 265 434 q 224 462 237 443 q 211 505 211 481 q 259 566 211 549 q 283 570 271 570 m 219 258 q 251 248 237 258 q 271 220 266 238 q 274 201 274 212 q 267 163 274 182 q 243 122 258 140 q 201 81 228 103 q 125 37 148 37 q 116 39 120 37 q 99 73 99 48 l 99 79 q 110 135 101 101 q 127 187 119 168 q 198 255 153 237 q 219 258 209 258 z "},"<":{"ha":543,"x_min":154,"x_max":523,"o":"m 353 127 q 337 134 344 131 q 320 144 330 138 q 294 161 311 150 q 255 188 270 176 q 218 217 239 199 q 184 248 195 236 q 167 271 173 260 q 154 319 154 291 q 215 439 154 378 q 295 507 248 472 q 380 558 342 541 q 417 570 401 567 q 456 574 433 574 q 475 573 469 574 q 485 572 481 573 q 492 570 488 571 q 518 545 511 562 q 523 524 523 535 q 319 328 523 454 q 284 304 298 314 q 270 293 270 295 q 276 282 270 292 q 290 262 282 273 q 305 243 298 251 q 344 199 323 222 q 375 165 365 176 q 377 163 376 164 q 385 155 381 159 q 389 149 388 151 q 393 139 393 144 q 388 127 393 133 q 376 123 383 123 q 353 127 368 123 z "},"=":{"ha":593,"x_min":125,"x_max":557,"o":"m 456 512 q 492 508 479 512 q 552 464 536 496 q 556 453 555 458 q 557 438 557 448 q 556 424 557 429 q 553 414 555 418 q 496 373 538 385 q 423 368 481 368 q 347 370 393 368 q 262 374 291 371 q 208 386 233 378 q 165 427 165 401 q 169 442 165 435 q 220 478 176 461 q 274 493 243 488 q 372 506 306 499 q 456 512 425 512 m 339 329 q 371 328 357 329 q 419 321 393 326 q 462 313 446 317 q 522 263 522 299 q 508 234 522 245 q 460 212 494 222 q 283 184 370 184 q 233 186 258 184 q 191 192 212 188 q 161 199 171 195 q 125 244 125 216 q 127 253 125 248 q 165 296 133 279 q 244 319 195 310 q 339 329 294 329 z "},">":{"ha":479,"x_min":70,"x_max":439,"o":"m 100 103 q 70 145 70 115 q 73 163 70 154 q 103 222 79 186 q 157 288 127 257 q 216 339 175 307 q 298 397 256 370 q 300 399 300 398 q 294 406 300 401 q 273 420 288 410 q 223 459 239 445 q 197 487 206 473 q 183 509 189 496 q 174 530 176 521 q 171 548 171 539 q 186 585 171 570 q 212 595 197 595 q 251 585 228 595 q 284 567 269 576 q 317 541 298 557 q 323 536 320 538 q 375 490 356 507 q 404 463 394 473 q 418 448 414 454 q 427 435 422 442 q 439 388 439 414 q 429 344 439 366 q 403 306 421 327 q 347 249 385 285 q 261 173 292 197 q 190 129 231 150 q 154 111 168 117 q 127 104 140 106 q 125 104 126 104 q 117 102 120 102 q 111 101 114 101 q 107 101 109 101 q 100 103 104 102 q 100 103 100 103 z "},"?":{"ha":584,"x_min":132,"x_max":699,"o":"m 583 1042 q 610 1040 598 1042 q 695 957 675 1023 q 699 922 699 943 q 694 878 699 899 q 657 774 684 832 q 576 625 630 715 q 368 317 512 522 q 337 276 349 290 q 317 256 326 262 q 298 246 309 250 q 281 242 291 243 q 262 241 272 241 q 250 242 255 241 q 229 251 239 244 q 210 265 218 257 q 189 317 189 289 q 210 374 189 345 q 219 382 213 377 q 231 391 224 387 q 380 538 293 433 q 534 760 470 646 q 596 914 596 874 q 591 928 596 925 q 585 929 589 929 q 535 909 570 929 q 465 861 500 890 q 413 812 444 844 q 363 760 382 781 q 309 677 328 715 q 302 663 305 670 q 296 651 298 654 q 291 644 295 648 q 283 634 287 639 q 226 610 257 610 q 189 618 208 610 q 156 648 168 629 q 143 690 143 668 q 144 698 143 694 q 207 817 149 743 q 357 947 257 881 q 531 1036 461 1017 q 583 1042 557 1042 m 157 130 q 204 149 180 149 q 244 136 225 149 q 275 100 263 123 q 280 77 280 90 q 275 49 280 62 q 229 5 261 16 q 203 2 216 2 q 185 4 193 2 q 133 64 142 19 q 132 75 132 69 q 157 130 132 105 z "},"@":{"ha":1103,"x_min":149,"x_max":1033,"o":"m 674 832 q 858 804 772 832 q 1017 640 976 757 q 1033 532 1033 595 l 1033 517 q 976 264 1030 376 q 866 124 924 156 q 800 102 831 102 q 732 136 761 102 q 691 229 704 170 q 690 235 690 232 q 687 245 688 241 q 686 250 686 250 q 682 245 685 250 q 673 233 678 240 q 578 120 623 160 q 515 90 546 90 q 472 104 494 90 q 421 166 439 125 q 404 261 404 207 q 407 309 404 284 q 461 461 418 392 q 564 562 504 530 q 656 587 608 587 q 676 586 669 587 q 692 583 684 585 q 742 559 724 574 l 752 551 l 758 555 q 765 561 760 557 q 774 566 769 564 q 785 570 780 569 q 797 571 789 571 q 818 568 809 571 q 834 555 826 564 q 847 538 843 547 q 853 514 851 528 q 854 498 854 507 q 826 366 854 454 q 793 211 793 266 q 795 188 793 199 q 797 172 796 176 q 801 167 798 167 q 813 173 804 167 q 899 311 861 204 q 932 417 922 374 q 944 501 942 460 l 944 507 q 940 560 944 527 q 932 610 937 593 q 913 657 923 640 q 882 691 903 674 q 791 743 839 731 q 726 750 760 750 q 645 740 686 750 q 423 571 520 707 q 359 448 385 519 q 338 389 347 416 q 323 329 330 361 q 309 201 309 259 q 332 75 309 129 q 404 -6 356 22 q 517 -34 452 -34 q 561 -31 541 -34 q 608 -22 581 -28 q 643 -11 629 -16 q 667 -1 656 -7 q 677 4 672 2 q 684 5 682 5 q 695 1 690 5 q 701 -9 699 -3 l 701 -12 q 669 -49 701 -27 q 545 -103 618 -85 q 508 -109 530 -106 q 463 -111 486 -111 q 417 -108 437 -111 q 231 1 304 -91 q 160 151 180 64 q 149 252 149 198 q 170 412 149 329 q 232 566 192 494 q 282 639 252 600 q 342 703 313 677 q 600 827 456 804 q 674 832 635 831 m 701 444 l 679 432 q 642 409 655 419 q 614 380 629 398 q 530 201 542 294 q 530 200 530 201 q 529 194 529 196 q 530 191 529 191 q 546 205 533 191 q 601 267 568 226 q 660 347 633 308 q 682 381 675 370 q 692 401 689 393 q 696 421 694 409 l 701 444 z "},"A":{"ha":937,"x_min":0,"x_max":1028,"o":"m 748 1055 q 776 1053 764 1055 q 841 1002 819 1042 q 864 900 864 963 q 862 862 864 882 q 836 722 857 804 q 763 489 814 641 q 665 170 694 287 q 630 -30 635 54 q 629 -55 629 -43 q 630 -85 629 -72 q 633 -100 631 -98 q 635 -100 634 -100 q 658 -90 641 -100 q 692 -64 675 -79 q 832 120 758 -8 q 868 189 848 149 q 924 302 888 229 q 956 371 943 345 q 977 411 969 397 q 989 431 984 425 q 998 439 994 437 q 1008 443 1004 443 q 1022 435 1017 443 q 1028 416 1028 428 q 1003 328 1028 397 q 940 178 977 259 q 868 35 909 111 q 684 -217 758 -174 q 607 -240 646 -240 q 593 -239 600 -240 q 508 -186 541 -232 q 493 -162 498 -173 q 482 -133 488 -151 q 469 -31 469 -90 q 484 119 469 34 q 545 353 503 215 q 553 379 550 368 q 556 390 556 389 q 555 391 556 391 q 551 390 553 391 q 534 387 547 389 q 495 380 522 385 q 489 379 492 380 q 389 365 427 370 q 321 357 351 359 q 298 355 307 355 q 288 353 288 354 q 281 335 288 352 q 266 295 275 317 q 251 253 258 272 q 218 157 230 192 q 197 102 205 123 q 178 56 189 82 q 169 35 173 44 q 151 -8 158 7 q 140 -31 144 -23 q 130 -44 135 -39 q 97 -60 114 -60 q 67 -47 81 -60 q 45 -9 53 -34 q 43 2 43 -3 q 42 18 42 8 q 41 47 41 28 q 42 88 41 75 q 45 116 43 101 q 117 333 58 200 q 121 344 119 340 q 123 349 123 349 q 114 350 123 349 q 89 351 104 350 q 0 384 0 352 l 0 387 q 176 485 4 433 l 191 490 l 197 503 q 399 808 300 694 q 718 1052 581 1011 q 747 1055 732 1055 q 748 1055 747 1055 m 725 958 q 677 941 709 958 q 444 677 567 878 q 409 616 427 650 q 376 553 390 581 q 361 522 361 525 l 366 522 q 390 523 373 522 q 396 523 393 523 q 435 525 411 524 q 480 525 459 525 q 541 523 519 525 q 583 516 564 521 q 594 514 591 514 q 597 515 596 514 q 604 534 597 516 q 618 577 610 551 q 675 746 654 682 q 708 845 696 810 q 724 898 719 880 q 730 931 728 917 q 733 951 733 946 q 731 957 733 956 q 725 958 729 958 z "},"B":{"ha":924,"x_min":-1,"x_max":987,"o":"m 237 -153 q 173 -134 207 -146 q 113 -104 140 -121 q 1 34 18 -45 q -1 49 -1 41 q 1 72 -1 60 q 7 92 3 83 q 39 118 22 118 q 46 117 43 118 q 55 110 52 115 q 61 93 58 104 q 75 67 66 78 q 100 46 83 56 q 215 7 141 19 q 288 1 253 1 q 437 31 363 1 q 557 100 509 58 q 610 184 610 149 q 602 208 610 197 q 516 244 581 233 q 464 249 500 247 q 403 250 428 250 l 394 250 q 350 248 370 250 q 327 244 330 246 q 321 232 326 243 q 313 205 317 221 q 302 173 306 184 q 295 157 298 161 q 288 150 292 153 q 275 145 281 145 q 263 148 270 145 q 220 256 228 164 l 220 270 q 221 321 220 291 q 298 629 226 478 q 387 762 342 726 q 444 787 418 787 q 481 770 465 787 q 498 722 498 753 q 495 691 498 709 q 481 643 491 670 q 453 573 472 616 q 421 499 436 534 q 387 412 407 463 q 376 381 380 394 q 370 367 371 368 l 370 366 q 370 366 370 366 l 371 366 q 408 380 389 372 q 439 397 427 389 q 637 553 538 462 q 789 720 736 644 q 823 787 811 753 q 832 833 832 812 q 829 853 832 845 q 766 900 817 886 q 705 907 739 907 q 538 876 631 907 q 355 787 444 844 q 231 692 298 749 q 125 593 163 635 q 92 552 106 572 q 77 526 77 532 q 56 504 77 513 q 45 502 50 502 q 29 507 37 502 q -1 553 7 520 q -1 566 -1 559 q 0 591 -1 578 q 4 614 1 605 q 144 829 38 722 q 190 869 162 846 q 238 907 218 893 q 680 1072 454 1057 q 693 1073 686 1073 q 752 1069 719 1073 q 806 1059 785 1065 q 970 924 928 1023 q 987 839 987 887 l 987 833 q 935 672 985 758 q 825 542 892 602 q 730 466 785 505 q 622 398 675 427 q 614 393 618 395 q 600 385 602 387 q 604 383 600 385 q 613 379 608 381 q 716 314 674 358 q 745 271 732 297 q 763 219 758 244 q 765 210 764 214 q 765 199 765 205 q 764 168 765 189 q 762 143 763 152 q 759 128 761 134 q 755 115 758 122 q 656 -23 729 40 q 389 -151 547 -119 q 308 -159 347 -159 q 237 -153 273 -159 z "},"C":{"ha":691,"x_min":-1,"x_max":770,"o":"m 227 -94 q 186 -85 204 -91 q 147 -68 168 -79 q 115 -48 129 -58 q 85 -22 100 -37 q -1 237 -1 67 q 62 530 -1 374 q 310 929 161 779 q 515 1034 411 1034 q 577 1021 554 1034 q 600 1006 591 1014 q 616 986 609 998 q 638 900 638 954 q 633 844 638 875 q 616 777 627 809 q 585 703 605 744 q 482 538 541 618 q 399 456 446 489 q 321 423 353 423 q 290 434 300 423 q 284 445 287 438 q 281 456 281 452 q 284 467 281 462 q 293 479 286 471 q 313 500 300 487 q 338 525 325 511 q 361 549 352 539 q 392 583 374 563 q 413 605 404 595 q 449 644 437 630 q 472 673 461 658 q 544 791 517 732 q 570 884 570 850 q 566 906 570 898 q 562 913 564 911 q 556 914 560 914 q 533 905 549 913 q 500 885 517 897 q 468 856 489 876 q 426 814 447 836 q 393 779 404 793 q 250 553 309 677 q 169 313 190 429 q 166 295 167 303 q 164 274 165 286 q 164 239 164 261 q 167 177 164 197 q 178 132 170 156 q 192 96 184 111 q 214 68 200 82 q 288 35 246 35 q 298 35 293 35 q 544 197 412 46 q 614 280 570 226 q 702 392 658 335 q 735 431 724 420 q 754 441 747 441 q 770 424 770 441 q 743 344 770 399 q 672 222 715 288 q 472 -5 578 84 q 281 -94 376 -84 q 255 -96 267 -96 q 227 -94 242 -96 z "},"D":{"ha":1153,"x_min":-1,"x_max":1123,"o":"m 740 1045 q 988 973 888 1044 q 1088 855 1053 928 q 1123 694 1123 784 l 1123 680 q 1004 355 1118 528 q 767 88 907 207 q 471 -102 628 -31 q 277 -157 363 -149 q 242 -159 257 -159 q 210 -157 227 -159 q 111 -129 157 -153 q 80 -110 94 -120 q 52 -85 66 -100 q 1 18 11 -39 q -1 46 -1 32 q 71 235 -1 136 q 276 425 144 334 q 290 435 284 430 q 296 440 296 439 q 300 451 297 441 q 307 476 303 461 q 378 688 336 581 q 456 855 420 795 q 463 868 460 863 q 465 874 465 873 q 448 868 463 874 q 415 854 434 863 q 378 836 396 845 q 269 775 313 805 q 189 705 226 745 q 169 685 178 693 q 157 675 160 676 q 150 673 154 673 q 140 675 145 673 q 132 680 135 677 q 121 710 121 691 q 133 754 121 729 q 179 817 147 782 q 252 884 212 852 q 550 1021 374 975 q 733 1045 648 1045 l 740 1045 m 708 921 q 674 921 690 921 q 652 919 658 920 l 642 918 l 637 907 q 630 886 635 901 q 618 855 625 871 q 591 781 602 810 q 560 703 580 753 q 548 671 554 688 q 521 602 530 625 q 510 574 515 587 q 505 557 506 562 q 503 553 504 555 q 503 549 503 551 l 503 549 q 511 551 503 549 q 528 558 518 554 q 638 596 583 581 q 716 611 692 611 q 727 609 724 611 q 736 595 736 605 q 715 578 736 581 q 617 548 677 573 q 561 521 591 536 q 506 493 530 506 q 479 477 482 481 q 477 474 478 476 q 475 468 476 471 q 432 318 456 407 q 390 165 407 230 q 390 163 390 164 q 384 141 387 152 q 378 125 380 130 q 338 93 364 93 q 318 98 328 93 q 271 224 277 118 l 271 232 q 272 279 271 250 q 275 323 273 308 q 276 331 276 328 q 275 334 276 334 q 264 325 274 334 q 241 301 254 315 q 217 274 229 287 q 199 253 205 260 q 123 77 123 145 q 125 56 123 66 q 165 12 133 28 q 224 1 190 1 q 258 3 240 1 q 604 168 417 29 q 842 408 742 270 q 914 525 883 464 q 958 635 945 587 q 969 715 969 677 q 960 779 969 751 q 817 908 928 873 q 773 918 794 915 q 720 921 752 921 l 708 921 z "},"E":{"ha":1072,"x_min":0,"x_max":1160,"o":"m 728 1044 q 904 998 836 1043 q 992 828 992 935 l 992 817 q 977 736 991 779 q 903 619 954 660 q 870 600 890 609 q 839 589 851 590 l 831 589 q 791 604 806 589 q 777 644 777 618 l 777 646 q 808 754 777 669 q 824 800 819 785 q 829 825 829 814 q 829 829 829 827 q 828 833 828 831 q 780 867 827 857 q 729 873 757 873 q 555 837 652 873 q 365 736 458 800 q 230 583 253 657 q 224 554 224 568 q 254 502 224 523 q 291 481 267 493 q 334 464 315 470 l 351 458 l 370 463 q 477 479 427 479 q 592 452 545 479 q 661 357 649 413 q 661 343 661 351 q 652 304 661 321 q 627 281 642 286 q 624 280 625 281 q 614 279 619 279 q 587 288 604 279 q 573 296 579 293 q 557 300 566 298 q 531 304 547 302 q 485 309 507 309 q 355 275 421 309 q 140 65 191 192 q 130 16 130 38 q 134 -9 130 2 q 187 -31 150 -20 q 288 -42 224 -42 q 340 -40 312 -42 q 615 42 474 -28 q 883 217 757 112 q 1045 359 996 311 q 1109 425 1095 408 q 1120 437 1117 435 q 1137 444 1128 444 q 1146 442 1142 444 q 1156 435 1152 439 q 1160 423 1160 431 q 1156 408 1160 416 q 932 140 1056 248 q 686 -34 809 31 q 466 -128 564 -99 q 320 -159 368 -157 q 279 -160 299 -160 q 87 -117 157 -160 q 65 -100 74 -108 q 46 -81 56 -93 q 0 53 0 -26 q 1 71 0 62 q 167 355 14 226 q 204 383 185 370 q 253 414 223 396 l 258 417 l 235 427 q 132 518 157 457 q 118 591 118 552 q 120 620 118 605 q 133 668 123 638 q 153 718 143 698 q 326 907 214 826 q 699 1044 503 1027 q 728 1044 713 1044 z "},"F":{"ha":652,"x_min":-3,"x_max":1040,"o":"m 420 570 q 465 572 442 571 l 488 571 q 539 564 513 569 q 575 555 565 559 q 616 500 616 534 l 616 498 q 609 479 616 488 q 596 468 606 473 q 561 459 586 464 q 488 446 536 454 q 446 440 467 443 q 416 435 426 437 l 370 429 q 317 251 345 352 q 299 188 309 221 q 284 133 290 155 q 247 -9 266 67 q 237 -40 242 -30 q 224 -56 232 -50 q 216 -60 220 -59 q 205 -62 212 -62 l 200 -62 q 193 -61 196 -62 q 189 -60 191 -61 q 140 93 140 -37 q 142 149 140 119 q 163 289 146 218 q 195 408 174 339 l 184 407 q 166 406 180 407 q 135 404 153 406 q 98 402 112 402 q 86 403 91 402 q 72 406 77 404 q 63 412 66 408 q 54 436 54 422 l 54 439 q 83 485 56 465 q 131 511 98 496 q 193 534 164 526 q 220 543 210 540 q 214 607 218 574 q 200 685 208 655 q 180 732 193 709 q 157 764 168 755 q 125 774 143 774 q 103 770 114 774 q 92 766 99 768 q 80 763 85 764 q 68 762 75 762 q 28 774 47 762 q 1 808 9 787 q -3 833 -3 819 q 2 864 -3 849 q 21 897 9 884 q 55 924 33 910 q 334 1035 160 987 q 677 1095 509 1083 q 732 1097 701 1097 q 787 1096 760 1097 q 829 1093 814 1095 q 947 1057 897 1083 q 1038 966 1020 1019 q 1039 959 1039 962 q 1040 951 1040 956 q 1039 935 1040 945 q 1037 921 1038 926 q 1035 912 1036 916 q 1031 905 1034 909 q 1013 886 1023 890 q 993 880 1002 880 q 965 890 980 880 q 927 908 949 901 q 868 921 905 915 q 722 933 795 933 q 491 907 617 933 q 296 856 391 888 q 285 852 290 854 q 266 846 273 848 q 256 842 258 844 q 253 839 253 840 q 254 835 253 837 q 256 833 255 834 q 288 677 288 762 l 288 677 q 305 711 290 677 q 342 790 328 762 q 374 838 357 817 q 398 863 385 851 q 421 880 412 875 q 453 888 438 888 q 500 855 484 888 q 505 825 505 842 q 500 783 505 808 q 486 738 495 764 q 456 661 477 713 q 420 570 437 613 z "},"G":{"ha":852,"x_min":1,"x_max":791,"o":"m 540 -119 q 523 -109 532 -117 q 510 -91 515 -100 q 496 -21 496 -64 q 513 100 496 28 q 525 145 518 121 q 535 182 531 168 q 536 184 536 183 q 537 190 537 189 q 533 185 537 190 q 522 172 528 180 q 370 29 446 75 q 334 12 354 20 q 296 0 314 4 q 237 -6 268 -6 q 210 -5 222 -6 q 75 66 131 7 q 1 273 1 149 q 4 319 1 296 q 205 777 25 528 q 433 1001 310 926 q 638 1072 543 1072 q 661 1072 650 1072 q 778 994 749 1065 q 791 925 791 962 q 775 838 791 884 q 733 754 761 799 q 675 678 705 709 q 612 631 648 650 q 553 612 576 612 q 545 613 549 612 q 531 621 537 615 q 523 633 525 626 q 522 639 522 636 q 527 655 522 646 q 545 683 532 665 q 583 736 562 707 q 620 790 604 766 q 642 823 637 814 q 686 922 675 877 q 690 954 690 938 q 686 977 690 970 q 650 991 676 991 q 625 988 638 991 q 497 912 574 977 q 350 745 427 852 q 224 528 274 637 q 163 288 163 389 q 182 191 163 231 q 258 145 203 145 l 260 145 q 357 175 304 145 q 500 280 411 205 q 551 326 522 298 q 602 376 580 353 q 625 402 625 399 l 625 403 l 624 403 q 610 401 621 403 q 585 397 599 399 q 558 392 571 395 q 543 389 550 390 q 527 385 536 387 q 500 378 517 382 q 458 368 484 374 q 368 350 388 350 q 353 355 357 350 q 348 365 348 359 q 363 388 348 376 q 441 429 385 405 q 568 477 496 453 q 687 503 642 503 q 747 481 728 503 q 770 425 770 460 l 770 418 q 766 394 769 407 q 755 358 763 381 q 734 296 748 336 q 714 238 724 267 q 700 196 705 210 q 674 121 688 155 q 635 35 660 86 q 587 -92 596 -50 q 555 -122 579 -122 q 540 -119 548 -122 z "},"H":{"ha":1059,"x_min":-1,"x_max":1109,"o":"m 613 1107 q 656 1086 637 1107 q 678 1023 678 1064 q 677 1012 678 1017 q 669 968 677 995 q 642 882 662 941 q 542 561 573 676 q 535 536 538 547 q 532 526 532 526 q 535 526 532 526 q 565 529 543 526 q 612 536 587 532 q 653 545 636 541 q 791 602 721 562 q 808 610 799 606 q 818 616 814 614 q 826 620 822 618 q 831 622 829 621 q 832 623 831 623 q 837 635 833 624 q 844 663 840 647 q 909 896 877 794 q 961 1033 941 998 q 1003 1081 979 1064 q 1050 1099 1027 1099 q 1073 1094 1062 1099 q 1109 1019 1109 1079 q 1108 989 1109 1003 q 1100 955 1106 976 q 1082 898 1094 934 q 1037 754 1057 825 q 992 583 1017 683 q 840 -102 892 181 q 833 -143 836 -128 q 827 -168 830 -158 q 821 -187 825 -177 q 777 -252 804 -238 q 758 -255 768 -255 q 736 -250 746 -255 q 690 -157 699 -231 q 689 -130 689 -144 q 727 158 689 -35 q 755 291 736 203 q 788 435 775 380 q 793 459 791 449 q 795 471 795 469 l 795 472 q 782 468 794 472 q 751 458 769 464 q 522 398 621 412 q 506 395 513 397 q 498 393 499 394 q 467 278 494 385 q 458 238 463 264 q 447 186 452 212 q 437 140 441 161 q 431 114 433 120 q 384 50 415 67 q 360 44 372 44 q 338 48 349 44 q 296 136 296 68 l 296 138 q 298 181 296 159 q 307 246 300 202 q 313 302 313 283 q 311 323 313 313 q 304 349 309 333 q 297 374 300 364 q 293 386 294 385 q 285 388 292 387 q 266 391 277 389 q 85 449 153 404 q 53 477 71 459 q 27 507 35 495 q 0 579 3 542 q -1 595 -1 587 q 31 679 -1 644 q 109 714 62 714 q 292 554 199 714 l 303 533 l 319 530 q 335 528 326 530 q 349 527 343 528 l 364 526 l 366 532 q 373 561 367 539 q 386 609 378 583 q 398 654 393 635 q 440 794 416 715 q 488 938 465 872 q 522 1028 511 1004 q 548 1068 532 1050 q 578 1097 564 1087 q 613 1107 596 1106 m 126 640 q 113 627 113 640 q 124 600 113 616 q 155 575 133 588 q 202 554 176 563 q 221 549 217 549 q 223 550 223 549 q 220 556 223 551 q 143 636 181 616 q 126 640 134 640 z "},"I":{"ha":530,"x_min":-1,"x_max":733,"o":"m 68 -182 q 17 -155 36 -177 q -1 -105 -1 -133 q 4 -77 -1 -91 q 15 -57 8 -67 q 31 -40 22 -47 q 51 -27 37 -35 q 82 -12 66 -19 q 111 -1 99 -4 q 122 3 117 1 q 127 5 127 5 l 127 5 q 127 11 127 7 q 125 20 126 15 q 113 123 113 67 q 135 308 113 199 q 272 770 178 522 q 321 894 302 849 q 328 908 325 902 q 330 916 330 914 q 316 918 330 918 q 256 942 277 918 q 234 996 234 966 q 253 1048 234 1023 q 271 1066 260 1059 q 302 1081 282 1073 q 422 1112 361 1106 q 441 1115 431 1114 q 465 1118 456 1116 q 490 1120 475 1120 q 525 1119 503 1120 q 712 1073 676 1114 q 733 1029 733 1053 q 732 1019 733 1022 q 728 1013 731 1016 q 716 1008 723 1008 q 704 1011 711 1008 q 690 1013 700 1013 q 585 996 661 1013 q 564 991 574 994 q 551 988 555 989 q 550 988 551 988 q 545 986 547 988 q 540 979 543 984 q 531 962 536 973 q 441 758 490 882 q 355 513 393 633 q 266 86 290 306 q 261 45 263 63 q 258 24 259 28 l 257 16 l 283 14 q 401 -39 380 10 q 406 -53 405 -46 q 408 -68 408 -59 l 408 -76 q 391 -116 408 -102 q 366 -126 378 -126 q 348 -118 355 -126 q 340 -96 340 -110 l 340 -90 l 323 -91 q 277 -101 302 -92 q 208 -131 252 -109 q 150 -159 172 -149 q 118 -174 129 -169 q 102 -180 107 -178 q 92 -182 96 -182 q 84 -183 87 -183 q 78 -184 79 -184 q 75 -183 77 -184 q 68 -182 72 -183 z "},"J":{"ha":814,"x_min":0,"x_max":819,"o":"m 538 1099 q 731 1029 669 1099 q 819 777 819 937 q 793 590 819 692 q 660 261 750 420 q 460 3 570 103 q 330 -87 391 -58 q 273 -109 298 -102 q 215 -116 247 -115 l 181 -116 q 172 -115 178 -115 q 163 -113 168 -113 q 33 -31 81 -98 q 0 90 0 19 q 49 279 0 175 q 178 465 94 369 q 339 614 261 561 q 381 634 369 634 l 381 635 l 385 635 q 399 632 390 635 q 417 622 408 630 q 421 611 421 618 q 397 563 421 594 q 336 490 373 532 q 215 335 275 420 q 140 161 155 249 q 138 130 138 144 q 156 64 138 85 q 201 43 173 43 q 309 91 247 43 q 597 510 486 229 q 666 827 666 696 q 656 909 666 873 q 576 995 639 979 q 553 998 568 997 q 521 999 538 999 q 473 996 494 999 q 268 913 391 981 q 236 897 252 905 q 212 883 220 888 q 188 871 202 879 q 161 856 174 863 q 107 832 123 832 q 95 836 101 832 q 81 861 81 844 q 84 875 81 867 q 124 929 93 897 q 196 989 156 962 q 318 1052 250 1024 q 450 1091 387 1080 q 492 1097 473 1095 q 538 1099 512 1099 z "},"K":{"ha":745,"x_min":0,"x_max":891,"o":"m 496 -166 q 324 -33 401 -147 q 219 262 262 64 q 215 280 217 273 q 213 288 214 288 q 211 283 212 288 q 206 271 209 278 q 200 251 205 265 q 175 169 191 218 q 168 142 172 157 q 148 77 157 110 q 132 21 138 44 q 102 -80 117 -37 q 81 -138 88 -123 q 41 -165 64 -165 q 20 -159 31 -165 q 0 -105 0 -149 q 4 -56 0 -85 q 9 -22 7 -37 q 15 12 12 -7 q 25 64 18 31 q 35 115 30 89 q 42 157 39 141 q 66 277 53 216 q 98 422 79 337 q 102 437 100 429 q 112 481 106 457 q 123 524 118 505 q 160 676 143 613 q 209 840 178 739 q 243 948 231 912 q 264 999 255 983 q 284 1027 273 1015 q 345 1057 314 1057 q 376 1049 361 1057 q 405 1020 395 1040 q 415 975 415 1000 q 411 941 415 958 q 390 870 408 932 q 348 734 371 809 q 309 608 324 659 q 292 553 298 573 q 283 525 286 534 q 281 515 281 517 q 281 515 281 515 q 281 514 281 514 q 281 514 281 514 q 281 514 281 514 q 281 514 281 514 q 281 514 281 514 q 296 523 282 514 q 331 544 311 532 q 371 569 351 557 q 403 589 391 581 q 582 740 505 656 q 729 977 686 851 q 791 1078 758 1059 q 817 1085 804 1085 q 852 1074 836 1085 q 878 1042 869 1063 q 891 983 891 1016 q 850 842 891 924 q 671 631 794 729 q 385 463 543 530 q 374 458 378 460 q 358 452 363 454 q 350 448 352 450 q 348 446 348 447 q 348 445 348 446 l 349 444 q 349 443 349 444 q 353 427 350 441 q 359 395 356 414 q 378 303 370 339 q 395 228 386 267 q 487 -7 436 63 q 515 -40 500 -26 q 541 -60 530 -55 q 550 -64 546 -63 q 565 -65 555 -65 l 578 -65 q 603 -64 595 -65 q 621 -60 611 -63 q 668 -36 651 -51 q 688 -24 680 -24 q 696 -28 692 -24 q 703 -39 703 -32 q 697 -56 703 -45 q 647 -117 680 -89 q 574 -159 613 -144 q 517 -168 546 -168 q 496 -166 506 -168 z "},"L":{"ha":584,"x_min":-2,"x_max":613,"o":"m 499 -149 q 478 -135 491 -142 q 454 -121 466 -127 q 358 -104 420 -104 l 342 -104 q 284 -110 314 -104 q 199 -128 254 -115 q 161 -137 178 -133 q 134 -143 143 -141 q 131 -144 132 -144 q 90 -147 110 -147 q 37 -140 60 -147 q 16 -127 26 -136 q 1 -109 6 -119 q -2 -90 -2 -100 q 20 -38 -2 -64 q 144 26 54 3 l 155 30 l 146 42 q 133 70 136 56 q 130 115 130 84 q 131 149 130 134 q 134 179 132 163 q 229 573 158 347 q 273 708 252 650 q 326 838 294 766 q 500 1096 409 1038 q 558 1117 530 1117 q 566 1116 562 1117 q 613 1046 613 1110 q 611 1016 613 1032 q 559 872 604 960 q 451 698 505 763 q 439 681 444 689 q 429 657 435 673 q 369 472 399 574 q 321 288 338 370 q 300 186 307 229 q 291 100 294 144 q 289 80 290 90 q 286 66 288 70 q 284 61 285 63 q 283 58 283 58 q 289 57 283 57 q 300 58 294 57 q 330 58 313 58 l 343 58 q 537 -59 499 50 q 542 -75 541 -68 q 543 -97 543 -82 q 539 -127 543 -117 q 528 -146 536 -138 q 521 -153 524 -152 q 513 -155 518 -155 q 505 -153 508 -155 q 499 -149 502 -152 z "},"M":{"ha":1094,"x_min":-1,"x_max":1101,"o":"m 619 1017 q 669 996 646 1017 q 710 918 698 970 q 716 845 716 887 q 713 791 716 817 q 678 611 706 724 q 674 592 675 601 q 672 582 672 584 l 672 581 q 679 593 672 581 q 696 623 686 605 q 753 718 726 674 q 819 814 781 761 q 862 872 842 848 q 911 928 882 897 q 954 972 939 958 q 981 991 969 987 q 1008 995 992 995 q 1022 995 1018 995 q 1031 992 1027 994 q 1041 988 1035 991 q 1095 921 1078 970 q 1098 909 1097 915 q 1099 895 1099 903 q 1101 872 1100 887 l 1101 852 q 1098 816 1101 833 q 1089 768 1096 798 q 1069 693 1084 741 q 1022 541 1055 645 q 968 369 987 433 q 938 260 949 306 q 916 162 926 215 q 897 31 897 75 q 898 9 897 20 q 912 -35 901 -33 q 926 -54 926 -41 q 912 -81 926 -67 q 866 -96 894 -96 q 835 -91 851 -96 q 778 -43 800 -79 q 757 3 764 -21 q 748 63 750 28 q 747 101 747 82 q 773 282 747 178 q 792 359 781 318 q 825 468 804 399 q 884 654 846 536 q 931 812 913 747 q 768 538 865 717 q 623 262 672 359 q 609 235 614 245 q 594 214 604 226 q 571 192 585 201 q 536 182 557 182 q 493 193 517 182 q 438 290 438 216 q 439 313 438 301 q 443 341 441 327 q 452 383 446 355 q 472 467 458 411 q 510 620 486 522 q 551 814 535 726 q 435 622 494 745 q 317 367 375 499 q 228 169 270 258 q 151 37 185 81 q 111 3 130 12 q 93 -1 101 -1 q 64 9 79 -1 q 18 92 34 28 q -1 254 1 156 l -1 271 q 28 503 -1 385 q 63 624 42 557 q 97 720 83 690 q 150 781 119 767 q 164 787 159 786 q 181 788 170 788 q 197 787 192 788 q 210 783 202 786 q 253 729 242 768 q 256 705 256 718 q 251 667 256 690 q 231 602 245 644 q 218 564 224 585 q 206 526 211 543 q 188 456 195 489 q 170 373 180 422 q 146 234 161 323 q 140 199 142 214 q 137 182 138 184 l 137 181 q 208 351 139 181 q 296 563 261 484 q 368 711 332 642 q 507 932 437 844 q 549 979 527 957 q 583 1007 570 1000 q 619 1017 601 1017 z "},"N":{"ha":818,"x_min":2,"x_max":819,"o":"m 543 -178 q 452 -20 465 -155 q 451 20 451 -5 q 452 76 451 47 q 455 124 453 106 q 496 339 465 214 q 548 527 519 431 q 629 779 576 623 q 659 870 646 829 q 675 922 671 911 q 539 757 614 874 q 381 487 463 640 q 220 178 300 334 q 150 41 184 107 q 83 -1 121 -1 q 60 3 72 -1 q 48 7 53 5 q 37 16 43 10 q 17 44 24 27 q 5 87 9 60 q 3 118 4 98 q 2 161 2 138 q 5 232 2 201 q 71 594 23 422 q 168 862 132 812 q 230 891 195 891 q 277 876 255 891 q 309 812 309 850 q 307 793 309 802 q 300 771 305 787 q 289 739 295 756 q 187 404 245 621 q 174 351 181 380 q 162 299 167 322 q 157 273 157 276 l 157 273 q 191 340 157 273 q 311 578 225 408 q 479 861 390 737 q 538 938 505 897 q 592 1002 572 979 q 718 1096 669 1086 q 731 1097 725 1097 q 782 1076 760 1097 q 814 1017 804 1055 q 818 1004 817 1010 q 819 987 819 998 q 819 956 819 977 q 818 915 819 930 q 814 883 817 900 q 777 714 804 808 q 769 684 772 697 q 759 653 765 671 q 742 602 753 635 q 608 38 625 241 q 606 6 606 26 q 605 -33 605 -14 q 608 -91 605 -70 q 618 -128 611 -113 q 621 -136 620 -133 q 622 -143 622 -140 l 622 -147 q 599 -176 618 -166 q 567 -182 585 -182 q 543 -178 554 -182 z "},"O":{"ha":787,"x_min":1,"x_max":764,"o":"m 602 1131 q 694 1093 655 1131 q 713 1073 706 1082 q 728 1047 720 1063 q 764 855 764 975 q 703 492 764 696 q 563 169 642 302 q 380 -35 476 24 q 342 -54 363 -45 q 304 -68 321 -63 q 281 -72 292 -71 q 255 -74 271 -73 q 214 -72 228 -74 q 10 171 53 -37 q 3 217 5 195 q 1 270 1 239 l 1 295 q 2 339 1 319 q 6 388 3 360 q 67 652 22 523 q 161 829 113 781 q 221 854 190 854 l 226 854 q 253 848 241 853 q 275 831 264 843 q 292 804 286 821 q 298 770 298 787 q 294 747 298 758 q 287 731 292 741 q 275 711 281 721 q 212 564 241 657 q 164 280 164 406 q 200 110 164 172 q 255 72 222 72 q 274 75 264 72 q 471 281 372 107 q 585 556 535 399 q 650 844 635 713 q 652 884 652 861 q 645 972 652 926 q 617 1036 637 1018 q 501 877 550 987 q 425 642 452 766 q 397 429 397 517 q 386 395 396 406 q 359 385 375 385 q 302 407 332 385 q 262 464 273 430 q 259 503 259 482 q 262 555 259 530 q 262 562 262 559 q 301 743 271 646 q 370 924 330 840 q 464 1063 411 1011 q 594 1131 528 1126 l 602 1131 z "},"P":{"ha":914,"x_min":-1,"x_max":1000,"o":"m 622 1126 q 686 1123 650 1126 q 743 1116 721 1120 q 891 1052 831 1097 q 926 1021 908 1040 q 956 985 944 1002 q 1000 835 1000 916 q 996 786 1000 810 q 688 376 957 574 q 351 206 525 258 l 334 201 l 326 167 q 284 -39 298 57 q 279 -70 281 -59 q 274 -85 277 -80 q 267 -93 271 -90 q 252 -96 261 -96 q 237 -93 244 -96 q 193 -12 208 -77 q 180 125 180 35 l 180 142 q 181 179 181 164 q 180 195 181 193 q 178 198 180 197 q 173 199 176 199 q 164 202 170 200 q 153 208 159 205 q 123 236 133 220 q 113 269 113 252 q 123 298 113 286 q 153 316 134 311 q 166 318 158 317 q 181 319 174 319 l 198 319 l 200 328 q 213 380 203 345 q 230 441 222 416 q 397 827 295 648 q 447 902 427 880 q 490 928 467 924 q 510 931 500 931 q 561 912 539 931 q 587 861 583 892 q 588 851 588 856 q 568 795 588 827 q 454 576 496 673 q 373 349 406 463 l 372 344 q 550 429 458 376 q 720 550 641 481 q 848 694 798 618 q 897 848 897 770 q 882 917 897 888 q 841 964 866 945 q 784 995 815 983 q 703 1004 745 1004 q 541 975 625 1004 q 400 907 475 953 q 182 730 283 839 q 105 637 131 675 q 93 620 99 627 q 85 609 87 612 q 55 596 71 596 q 27 606 41 596 q 7 633 14 615 q -1 673 -1 652 q 38 790 -1 722 q 325 1046 132 945 q 602 1125 465 1116 q 622 1126 610 1126 z "},"Q":{"ha":835,"x_min":-3,"x_max":833,"o":"m 552 1105 q 589 1103 574 1105 q 798 954 730 1080 q 829 853 819 911 q 832 820 831 842 q 833 775 833 798 q 831 732 833 751 q 736 426 819 590 q 484 90 624 203 l 471 80 l 486 75 q 525 57 505 68 q 560 36 546 47 q 608 -31 596 8 q 613 -64 613 -47 q 582 -150 613 -111 q 508 -190 550 -190 l 507 -190 q 497 -189 503 -190 q 489 -188 492 -189 q 479 -180 484 -186 q 474 -170 474 -174 q 477 -160 474 -165 q 490 -145 480 -155 q 498 -134 494 -140 q 505 -124 503 -128 q 508 -116 507 -119 q 509 -109 509 -113 l 509 -103 q 505 -88 508 -94 q 494 -77 502 -83 q 407 -59 465 -59 q 317 -68 366 -59 q 289 -74 309 -70 q 248 -84 269 -79 q 136 -107 188 -98 q 59 -117 84 -116 q 47 -118 53 -118 q 17 -113 28 -118 q 1 -95 7 -107 q -3 -77 -3 -86 q 3 -54 -3 -66 q 52 -4 14 -33 q 132 45 89 24 q 142 50 138 47 q 146 51 145 51 q 143 55 146 51 q 136 64 140 58 q 93 175 106 106 q 88 243 88 205 q 92 304 88 273 q 151 500 102 384 l 164 529 l 159 537 q 145 573 151 549 q 140 619 140 596 q 192 835 140 721 q 319 1016 243 949 q 488 1101 397 1080 q 543 1105 513 1105 l 552 1105 m 578 993 q 538 988 557 993 q 412 912 469 971 q 347 832 382 881 q 290 747 312 784 l 290 746 q 299 754 292 746 q 304 759 302 756 q 343 788 326 779 q 384 797 361 797 q 400 796 395 797 q 412 792 405 795 q 445 760 434 781 q 450 747 449 752 q 451 730 451 742 q 450 713 451 720 q 446 700 449 707 q 438 679 443 689 q 425 656 433 669 q 400 619 416 642 q 341 519 370 576 q 242 208 247 332 l 242 195 q 258 125 242 142 q 272 115 262 120 q 292 108 281 111 q 431 191 348 108 q 587 406 515 274 q 688 690 659 537 q 695 787 695 732 q 690 859 695 823 q 672 926 685 896 q 636 975 659 956 q 578 993 613 993 z "},"R":{"ha":904,"x_min":-3,"x_max":966,"o":"m 229 -98 q 151 43 176 -68 q 142 100 144 73 q 139 169 139 127 q 140 216 139 201 q 143 247 140 231 q 284 703 175 441 q 312 764 301 744 q 334 793 323 784 q 376 819 353 814 q 396 821 387 821 q 450 798 428 821 q 469 743 469 774 q 466 717 469 730 q 459 697 464 711 q 448 669 454 684 q 349 405 387 527 l 342 382 l 357 356 q 375 330 372 331 q 400 347 380 332 q 446 382 420 362 q 491 418 471 401 q 753 701 680 573 q 803 856 803 787 q 787 928 803 895 q 629 996 754 996 q 578 993 600 996 q 530 983 557 990 q 212 768 348 937 q 165 701 193 743 q 90 578 138 658 q 45 539 68 539 q 26 547 36 539 q -3 625 -3 570 q 31 768 -3 686 q 160 952 75 866 q 433 1126 282 1073 q 629 1160 534 1160 q 845 1102 753 1160 q 882 1070 862 1090 q 913 1035 902 1051 q 966 854 966 954 q 946 731 966 793 q 830 528 909 623 q 786 480 812 507 q 737 436 759 454 q 598 341 677 387 q 449 267 520 295 q 428 258 437 261 q 418 254 419 254 q 425 242 418 253 q 442 218 432 232 q 461 191 452 204 q 475 172 470 178 q 589 77 518 117 q 667 47 636 47 q 715 61 690 47 q 737 67 728 67 q 760 44 756 67 q 761 38 761 41 q 744 -9 761 16 q 701 -51 726 -35 q 680 -61 689 -58 q 656 -69 671 -65 q 638 -73 647 -72 q 610 -73 629 -73 q 580 -72 591 -73 q 556 -68 570 -71 q 488 -47 519 -60 q 472 -39 482 -45 q 452 -27 462 -33 q 437 -18 442 -21 q 319 129 368 33 q 309 151 314 140 q 301 168 304 161 q 295 180 296 180 q 294 179 294 180 q 289 152 292 173 q 282 106 286 132 q 276 59 279 80 q 273 -4 273 32 q 274 -44 273 -25 q 277 -71 275 -62 q 279 -85 279 -79 q 269 -100 279 -96 q 252 -104 261 -104 q 229 -98 241 -104 z "},"S":{"ha":814,"x_min":-1,"x_max":852,"o":"m 273 -103 q 128 -12 174 -92 q 116 34 116 10 l 116 42 q 118 58 117 53 q 123 71 119 64 q 155 92 134 90 l 159 92 q 169 90 163 92 q 186 82 174 88 q 223 68 205 73 q 275 61 241 64 q 310 60 298 60 q 328 60 320 60 q 397 82 359 65 q 470 123 436 99 q 508 154 488 136 q 538 185 528 173 q 548 201 544 193 q 552 212 552 209 q 551 214 552 213 q 537 216 550 216 q 431 207 505 216 q 339 197 372 199 q 270 194 307 194 l 243 194 q 123 205 170 194 q 47 242 77 217 q 3 317 16 271 q -1 356 -1 335 q 205 760 -1 500 q 485 1031 347 935 q 622 1098 555 1081 q 697 1109 662 1109 q 810 1067 767 1109 q 852 955 852 1029 l 852 943 q 840 853 852 905 q 795 696 828 802 q 782 647 789 673 q 770 607 774 622 q 770 605 770 606 q 757 559 762 577 q 745 520 752 541 q 739 502 742 513 q 732 478 736 491 q 728 465 730 471 q 715 425 721 436 q 699 410 709 414 q 681 405 690 405 q 638 432 657 405 q 616 519 616 465 l 616 524 q 639 641 616 575 q 679 765 660 703 q 705 850 699 827 q 720 935 720 907 q 720 937 720 937 q 718 952 720 949 q 711 956 717 956 q 704 956 709 956 q 701 956 703 956 q 566 895 645 952 q 287 606 427 793 q 165 380 180 458 l 163 367 l 170 365 q 233 356 187 359 q 378 352 279 353 q 462 350 433 351 q 507 347 491 349 q 540 341 524 345 q 655 242 643 317 q 656 228 656 237 q 653 191 656 212 q 647 157 651 171 q 524 -16 618 60 q 297 -104 414 -104 q 273 -103 286 -104 z "},"T":{"ha":567,"x_min":-3,"x_max":1040,"o":"m 189 -60 q 140 93 140 -37 q 142 149 140 119 q 163 289 146 218 q 215 471 179 360 q 220 487 218 481 q 221 498 221 492 q 222 513 222 503 q 214 607 220 558 q 200 685 208 655 q 180 732 193 709 q 157 764 168 755 q 125 774 143 774 q 103 770 114 774 q 92 766 99 768 q 80 763 85 764 q 68 762 75 762 q 28 774 47 762 q 1 808 9 787 q -3 833 -3 819 q 2 864 -3 849 q 21 897 9 884 q 55 924 33 910 q 334 1035 160 987 q 677 1095 509 1083 q 732 1097 701 1097 q 787 1096 760 1097 q 829 1093 814 1095 q 947 1057 897 1083 q 1038 966 1020 1019 q 1039 959 1039 962 q 1040 951 1040 956 q 1039 935 1040 945 q 1037 921 1038 926 q 1035 912 1036 916 q 1031 905 1034 909 q 1013 886 1023 890 q 993 880 1002 880 q 965 890 980 880 q 927 908 949 901 q 868 921 905 915 q 722 933 795 933 q 491 907 617 933 q 296 856 391 888 q 285 852 290 854 q 266 846 273 848 q 256 842 258 844 q 253 839 253 840 q 254 835 253 837 q 256 833 255 834 q 288 677 288 762 l 288 677 q 305 711 290 677 q 342 790 328 762 q 374 838 357 817 q 398 863 385 851 q 421 880 412 875 q 453 888 438 888 q 500 855 484 888 q 505 825 505 842 q 500 783 505 808 q 486 738 495 764 q 456 661 477 713 q 380 462 410 550 q 317 251 351 374 q 299 188 309 221 q 284 133 290 155 q 247 -9 266 67 q 237 -40 242 -30 q 224 -56 232 -50 q 216 -60 220 -59 q 205 -62 212 -62 l 200 -62 q 193 -61 196 -62 q 189 -60 191 -61 z "},"U":{"ha":777,"x_min":1,"x_max":829,"o":"m 537 -104 q 505 -88 522 -100 q 479 -58 489 -75 q 447 105 447 -3 q 462 276 447 179 q 469 317 464 290 q 478 367 474 344 q 484 395 483 391 q 478 384 484 395 q 463 356 471 373 q 285 96 368 183 q 140 13 210 18 l 135 13 q 107 17 123 13 q 80 26 92 20 q 5 148 22 58 q 1 199 1 172 q 3 254 1 220 q 15 351 7 304 q 40 459 23 398 q 123 706 71 575 q 230 938 175 837 q 260 986 247 970 q 290 1009 273 1002 q 301 1014 297 1013 q 310 1016 305 1015 q 326 1016 315 1016 q 340 1016 336 1016 q 349 1014 345 1015 q 359 1009 353 1013 q 395 971 384 998 q 399 958 397 964 q 400 943 400 953 q 398 925 400 932 q 392 905 397 917 q 376 873 387 893 q 180 351 233 590 q 162 205 163 267 q 161 176 161 188 q 162 160 161 163 l 163 155 q 235 205 192 167 q 321 302 279 243 q 524 670 437 479 q 642 951 612 861 q 652 983 647 968 q 667 1027 664 1015 q 673 1041 670 1034 q 679 1053 676 1048 q 716 1085 692 1074 q 731 1090 725 1089 q 746 1093 736 1092 l 751 1093 q 802 1074 781 1093 q 828 1024 823 1056 q 829 1015 829 1019 q 814 954 829 995 q 631 299 684 589 q 604 125 615 214 q 592 5 592 37 l 592 1 q 593 -9 592 -6 q 594 -13 593 -12 q 598 -15 595 -14 q 604 -18 601 -16 q 608 -22 607 -20 q 611 -26 610 -24 q 612 -35 612 -29 l 612 -43 q 610 -58 611 -52 q 606 -68 609 -63 q 576 -98 595 -90 q 547 -104 562 -104 q 537 -104 542 -104 z "},"V":{"ha":635,"x_min":-3,"x_max":741,"o":"m 694 1077 q 728 1066 714 1077 q 741 1033 741 1056 q 737 1000 741 1017 q 716 936 732 981 q 682 838 701 891 q 646 742 667 798 q 633 705 639 722 q 568 535 598 611 q 498 367 537 458 q 434 226 461 284 q 375 110 406 168 q 273 -52 317 0 q 187 -117 230 -104 q 160 -121 173 -121 q 144 -120 153 -121 q 62 -58 94 -111 q 12 106 29 0 q 3 176 7 134 q -1 237 -1 219 q -1 259 -1 245 q -2 288 -2 274 q -3 321 -3 304 q 14 562 -3 431 q 48 782 27 676 q 92 956 69 888 q 114 1009 103 991 q 143 1036 125 1027 q 157 1042 151 1040 q 172 1045 162 1044 q 183 1046 178 1046 q 237 1023 214 1046 q 258 989 252 1010 q 261 969 261 980 q 254 931 261 954 q 232 850 239 876 q 220 802 225 825 q 149 227 162 533 l 149 205 q 150 136 149 175 q 154 69 152 97 q 162 23 156 44 q 173 2 168 2 q 184 14 176 2 q 203 41 193 26 q 220 67 214 56 q 439 533 334 279 q 608 956 544 786 q 643 1047 629 1011 q 667 1071 651 1065 q 694 1077 684 1077 z "},"W":{"ha":1139,"x_min":-4,"x_max":1149,"o":"m 1070 1249 q 1077 1249 1074 1249 q 1079 1249 1079 1249 q 1120 1209 1099 1249 q 1141 1127 1134 1180 q 1149 1011 1149 1075 q 1144 908 1149 960 q 1115 710 1136 824 q 1069 498 1094 595 q 819 -32 973 123 q 702 -96 760 -93 l 694 -96 q 675 -95 684 -96 q 494 153 540 -68 q 477 345 477 257 l 477 361 q 477 375 477 369 q 478 389 478 385 q 478 393 478 392 q 477 395 477 395 l 475 393 q 470 380 474 391 q 458 355 465 370 q 452 339 455 347 q 305 52 368 153 q 175 -76 237 -50 q 132 -85 155 -85 l 125 -84 q 45 -35 77 -81 q -4 197 -4 43 q 36 523 -4 337 q 101 754 60 631 q 188 977 142 876 q 273 1074 226 1063 q 295 1076 285 1076 q 357 1050 331 1076 q 383 987 383 1024 q 378 952 383 969 q 365 917 373 935 q 275 662 328 830 q 180 323 222 494 q 138 75 138 152 q 146 35 138 45 q 153 33 149 33 q 223 118 175 33 q 329 330 271 204 q 441 583 387 455 q 533 803 496 711 q 576 909 570 894 q 613 1020 598 986 q 696 1090 644 1085 l 703 1090 q 762 1064 736 1090 q 777 1040 770 1055 q 785 1010 783 1025 q 785 1008 785 1009 q 786 993 786 1000 q 781 953 786 977 q 762 883 775 930 q 669 437 691 635 q 660 277 660 353 q 673 117 660 183 q 702 39 684 64 q 814 173 758 52 q 917 472 870 293 q 994 840 964 650 q 1023 1173 1023 1029 q 1022 1212 1023 1193 l 1022 1213 q 1031 1237 1022 1230 q 1051 1247 1040 1245 q 1070 1249 1062 1249 z "},"X":{"ha":766,"x_min":-5,"x_max":1023,"o":"m 550 -93 q 427 10 481 -78 q 346 239 373 98 q 342 259 344 252 q 340 267 340 267 q 328 255 339 267 q 302 224 317 242 q 192 97 236 146 q 108 7 148 47 q 35 -57 49 -52 q 24 -58 30 -58 q 8 -55 16 -58 q -1 -44 3 -52 q -5 -31 -5 -37 q 61 103 -5 3 q 262 370 117 189 q 288 403 276 388 q 313 433 309 428 l 320 442 l 318 467 q 313 629 313 528 l 313 669 q 315 778 313 737 q 321 869 317 819 q 332 994 326 937 q 343 1065 339 1050 q 361 1094 349 1080 q 385 1114 372 1107 q 420 1122 403 1122 q 460 1111 441 1122 q 491 1076 479 1099 q 499 1058 496 1066 q 501 1038 501 1050 q 496 980 501 1019 q 475 669 480 852 l 474 626 l 479 631 q 500 655 481 633 q 546 708 519 677 q 559 723 552 715 q 616 789 585 754 q 670 851 647 825 q 721 909 691 875 q 780 979 750 944 q 807 1010 794 995 q 864 1075 840 1048 q 893 1106 888 1102 q 903 1113 897 1109 q 915 1120 909 1117 q 951 1126 932 1126 q 972 1124 963 1126 q 1009 1098 996 1116 q 1023 1056 1023 1079 q 1019 1031 1023 1044 q 1010 1012 1015 1020 q 993 991 1006 1004 q 956 956 981 979 q 930 932 942 943 q 915 917 919 921 q 900 901 911 913 q 876 876 889 889 q 663 641 799 794 q 630 602 651 626 q 590 557 609 578 q 564 527 576 541 q 531 489 545 505 q 509 464 517 474 q 496 449 500 454 q 489 439 491 443 q 486 434 486 436 q 486 431 486 433 q 490 388 486 425 q 500 313 494 352 q 538 122 515 205 q 585 7 562 39 q 600 -8 593 -4 q 616 -12 606 -12 q 630 -15 625 -12 q 637 -25 635 -18 q 640 -40 640 -32 q 637 -58 640 -50 q 572 -95 616 -95 q 550 -93 562 -95 z "},"Y":{"ha":745,"x_min":2,"x_max":777,"o":"m 206 -64 q 38 39 103 -45 q 20 71 29 52 q 7 103 12 90 q 4 118 5 109 q 3 134 3 126 q 2 146 2 141 q 3 154 2 151 q 5 162 3 158 q 33 184 15 184 q 40 183 36 184 q 47 180 43 182 q 57 170 50 177 q 78 146 64 162 q 157 96 111 111 q 186 89 173 90 q 222 87 199 87 q 249 87 240 87 q 264 90 257 88 q 370 175 321 105 q 443 313 409 230 q 520 544 477 397 q 524 557 522 551 q 531 580 528 569 q 536 597 534 591 q 539 611 538 605 q 541 618 541 616 q 534 608 541 618 q 517 583 527 598 q 311 336 399 410 q 194 289 250 289 l 187 289 q 136 302 158 290 q 58 430 72 336 q 54 488 54 455 q 62 593 54 536 q 159 949 88 767 q 189 1016 172 983 q 213 1061 205 1050 q 270 1092 234 1089 l 276 1092 q 321 1077 302 1092 q 349 1034 341 1061 q 351 1017 351 1025 q 336 970 351 997 q 273 812 305 907 q 203 519 229 677 q 200 488 201 506 q 199 454 199 469 q 201 421 199 431 q 205 412 203 416 q 211 409 208 409 q 226 413 218 409 q 241 424 234 418 q 451 655 356 526 q 604 885 545 784 q 671 1005 663 986 q 694 1046 685 1034 q 715 1064 703 1059 q 732 1068 724 1068 q 766 1053 751 1068 q 777 1013 777 1041 q 777 994 777 1005 q 744 812 770 935 q 686 568 718 689 q 578 235 631 359 q 456 37 524 111 q 285 -63 382 -44 q 239 -66 264 -66 q 206 -64 220 -66 z "},"Z":{"ha":907,"x_min":1,"x_max":1014,"o":"m 727 -52 q 682 -48 715 -50 q 616 -44 648 -45 q 534 -43 592 -43 q 331 -45 448 -43 q 144 -49 213 -46 q 102 -50 119 -50 q 58 -52 73 -52 q 39 -51 45 -52 q 28 -48 32 -50 q 21 -44 24 -47 q 3 -14 9 -35 q 2 -7 3 -10 q 1 1 1 -3 l 1 9 q 3 25 2 20 q 8 39 4 31 q 239 371 47 142 q 493 650 363 519 q 885 999 733 887 l 892 1004 l 862 1004 q 640 978 786 1004 q 313 901 430 942 q 307 899 310 900 q 282 891 290 893 q 269 888 275 888 q 266 889 267 888 q 262 889 264 889 q 226 914 239 892 q 213 965 213 936 q 230 1024 213 996 q 251 1044 239 1036 q 286 1058 263 1052 q 387 1076 329 1071 q 564 1082 446 1081 q 649 1084 608 1083 q 709 1086 690 1084 q 755 1087 732 1087 q 909 1075 839 1087 q 933 1070 920 1073 q 957 1067 947 1068 q 997 1057 987 1062 q 1011 1037 1008 1051 q 1014 1019 1014 1027 q 1000 982 1014 1000 q 761 722 883 853 q 412 339 566 512 q 214 85 259 166 q 377 106 293 99 q 536 113 461 113 q 693 104 628 113 q 774 83 758 96 q 799 25 799 61 q 798 8 799 17 q 781 -32 795 -14 q 741 -54 766 -54 q 727 -52 734 -54 z "},"[":{"ha":420,"x_min":84,"x_max":654,"o":"m 138 -99 q 88 -58 103 -92 q 85 -50 86 -54 q 84 -42 84 -47 q 85 -33 84 -38 q 109 122 90 25 q 151 312 127 219 q 166 368 156 329 q 188 449 176 407 q 226 593 204 510 q 243 660 235 629 q 346 1014 317 951 q 355 1033 351 1026 q 364 1045 359 1040 q 416 1068 389 1068 q 429 1067 422 1068 q 447 1064 434 1065 q 475 1063 460 1063 q 567 1053 519 1060 q 634 1038 614 1045 q 654 1013 654 1027 q 650 1000 654 1006 q 500 966 627 975 l 492 965 l 487 941 q 429 753 475 888 q 374 590 393 646 q 344 497 355 534 q 317 409 332 460 q 315 403 315 406 q 253 209 279 283 q 187 36 227 134 q 178 12 182 21 q 174 2 174 3 q 177 2 174 2 q 184 1 180 1 q 212 0 193 1 q 250 -4 231 -2 q 277 -7 268 -6 q 300 -16 290 -11 q 314 -26 310 -21 q 318 -39 318 -32 q 313 -54 318 -47 q 235 -89 303 -75 q 157 -101 185 -101 q 138 -99 146 -101 z "},"\\":{"ha":444,"x_min":0,"x_max":396,"o":"m 335 -52 q 294 -18 309 -43 q 256 90 283 5 q 197 286 230 175 q 147 452 172 371 l 98 610 q 54 760 70 701 q 18 908 37 819 q 6 959 10 941 q 1 988 3 978 q 0 1007 0 998 q 18 1059 0 1038 q 66 1086 35 1080 q 78 1088 72 1088 q 119 1075 100 1088 q 149 1042 139 1063 q 224 722 168 1006 q 242 631 235 665 q 255 570 249 597 q 270 505 261 543 q 338 218 308 340 q 385 50 369 95 q 392 30 390 37 q 395 17 395 23 q 396 2 396 12 q 396 -12 396 -7 q 394 -20 395 -17 q 391 -28 393 -24 q 351 -54 376 -54 q 335 -52 343 -54 z "},"]":{"ha":425,"x_min":-85,"x_max":484,"o":"m 431 1067 q 480 1026 466 1060 q 483 1018 482 1021 q 484 1010 484 1015 q 484 1000 484 1006 q 459 846 478 943 q 417 656 441 749 q 402 600 412 639 q 380 519 392 561 q 353 416 369 476 q 325 308 337 357 q 222 -47 251 17 q 214 -65 218 -59 q 203 -77 210 -72 q 151 -101 179 -101 q 139 -100 145 -101 q 122 -97 134 -98 q 97 -95 111 -96 q 94 -95 95 -95 q 1 -85 49 -92 q -66 -70 -47 -77 q -85 -45 -85 -60 q -81 -33 -85 -39 q 68 2 -59 -7 l 75 3 l 81 26 q 139 214 93 80 q 151 251 145 233 q 199 394 182 344 q 227 479 215 444 q 253 565 238 515 q 316 759 290 685 q 381 932 342 833 q 391 956 387 947 q 394 966 394 965 q 391 966 394 966 q 388 966 389 966 l 379 966 q 357 968 371 967 q 319 972 337 970 q 292 975 300 974 q 268 984 279 979 q 254 994 258 989 q 250 1007 250 1000 q 254 1022 250 1015 q 333 1057 265 1042 q 411 1069 383 1069 q 431 1067 422 1069 z "},"^":{"ha":313,"x_min":96,"x_max":420,"o":"m 140 779 q 101 815 114 789 q 97 827 98 822 q 96 842 96 832 q 109 883 96 864 q 157 939 121 903 q 234 1006 193 975 q 307 1053 275 1038 q 331 1059 319 1059 q 375 1029 356 1059 q 395 993 384 1015 q 410 958 406 971 q 418 922 416 938 q 420 876 420 906 q 418 830 420 845 q 410 806 416 815 q 382 789 400 789 q 370 791 377 789 q 333 823 353 798 q 300 880 313 848 q 296 892 298 888 q 294 897 294 897 q 290 892 293 897 q 277 876 285 886 q 237 825 259 850 q 206 791 215 799 q 186 781 195 784 q 164 777 176 777 l 157 777 q 140 779 147 777 z "},"_":{"ha":475,"x_min":2,"x_max":444,"o":"m 134 -100 q 124 -98 132 -99 q 106 -96 117 -98 q 16 -68 35 -88 q 2 -37 2 -54 q 25 1 2 -16 q 113 23 44 12 q 173 26 139 26 q 223 24 199 26 q 239 23 230 24 q 278 21 259 22 q 419 -2 384 15 q 444 -37 444 -17 q 443 -44 444 -41 q 414 -73 439 -62 q 335 -91 390 -83 q 249 -98 304 -95 q 159 -100 193 -100 q 134 -100 141 -100 z "},"`":{"ha":272,"x_min":145,"x_max":317,"o":"m 250 842 q 218 867 239 848 q 182 901 197 885 q 145 981 145 942 q 148 1003 145 992 q 152 1017 150 1012 q 159 1027 155 1021 q 195 1044 174 1044 q 210 1042 202 1044 q 304 919 265 1027 q 317 864 317 884 q 308 840 317 848 q 301 835 304 837 q 294 832 297 833 q 288 831 291 831 q 269 834 280 831 q 250 842 258 838 z "},"a":{"ha":680,"x_min":1,"x_max":772,"o":"m 126 1 q 7 140 33 18 q 1 206 1 171 q 60 467 1 326 q 233 676 130 628 q 270 691 255 688 q 308 694 285 694 q 331 694 324 694 q 345 690 338 693 q 431 607 408 667 q 435 577 435 592 q 431 555 435 564 q 413 538 425 543 q 400 535 407 535 q 374 541 390 535 q 355 545 362 544 q 336 546 349 546 q 321 546 326 546 q 313 544 317 545 q 304 541 309 543 q 202 397 250 512 q 159 220 164 304 l 159 210 q 162 166 159 189 q 168 137 164 143 q 170 136 168 136 q 199 156 177 136 q 243 202 222 176 q 355 374 292 266 q 374 408 361 387 q 397 448 386 429 q 419 488 412 475 q 429 512 425 500 q 468 607 444 562 q 517 677 492 651 q 554 696 536 696 q 578 687 568 696 q 593 660 589 677 q 596 627 596 649 q 593 566 596 602 q 585 509 589 534 q 570 439 581 484 q 542 304 551 354 q 533 216 534 254 q 532 195 532 204 q 534 166 532 179 q 536 155 536 160 q 538 144 538 145 q 540 143 539 143 q 562 163 545 143 q 585 192 573 175 q 617 245 596 209 q 677 351 638 281 q 707 405 694 382 q 723 431 720 427 q 735 445 728 439 q 745 452 741 450 q 751 452 748 452 q 760 451 755 452 q 767 446 764 449 q 772 428 772 441 q 770 406 772 418 q 752 352 766 390 q 723 272 739 315 q 694 200 707 230 q 665 140 682 172 q 637 92 649 109 q 508 -1 576 -1 q 460 11 484 -1 q 432 32 447 18 q 408 62 417 47 q 375 200 375 111 q 375 223 375 214 q 374 232 375 232 q 372 228 374 232 q 367 219 370 224 q 333 164 351 192 q 303 118 315 136 q 154 1 229 7 q 142 0 147 0 q 138 -1 138 -1 q 134 0 137 -1 q 126 1 130 0 z "},"b":{"ha":625,"x_min":-14,"x_max":607,"o":"m 308 1048 q 349 1015 336 1048 q 352 981 352 1002 q 342 884 352 942 q 324 808 336 852 q 287 684 312 764 q 224 474 245 551 q 224 472 224 473 l 224 472 q 229 477 225 472 q 243 496 233 482 q 282 544 264 524 q 325 589 299 564 q 387 644 361 625 q 442 671 413 662 q 489 680 467 680 q 531 671 511 680 q 587 611 568 654 q 607 505 607 567 q 600 426 607 468 q 557 283 586 355 q 320 31 470 82 q 249 20 282 20 q 184 32 214 20 q 134 66 157 44 l 121 80 l 113 58 q 62 -21 90 -14 q 41 -24 52 -24 q 24 -22 32 -24 q 7 -11 16 -18 q -5 4 -1 -4 q -14 75 -14 26 q -7 173 -14 117 q 7 260 -3 208 q 28 363 17 313 q 97 624 54 477 q 177 863 141 770 q 290 1044 238 1014 q 308 1048 300 1048 m 458 577 l 453 576 q 367 513 422 568 q 203 292 281 428 q 183 255 194 276 q 163 216 172 233 q 154 197 154 199 q 166 192 155 197 q 190 183 177 188 q 210 175 202 178 q 258 164 239 164 q 286 171 273 164 q 297 178 290 173 q 309 187 304 182 q 380 288 349 219 q 413 364 400 328 q 439 448 427 400 q 457 554 456 515 l 458 577 z "},"c":{"ha":530,"x_min":5,"x_max":622,"o":"m 180 1 q 170 3 176 2 q 158 6 164 4 q 151 7 155 7 q 43 95 81 31 q 5 255 5 160 q 13 343 5 297 q 52 486 25 413 q 110 606 79 558 q 271 724 178 708 q 291 725 281 725 q 379 691 340 725 q 429 601 418 656 q 432 565 432 583 q 374 392 432 479 q 296 328 330 328 q 275 351 275 328 q 275 355 275 353 q 312 490 275 388 q 338 592 338 564 q 338 602 338 597 q 335 610 336 606 q 332 616 333 614 q 329 618 330 618 q 327 619 328 619 q 322 618 326 619 q 303 601 315 614 q 280 572 291 587 q 184 359 214 478 q 173 308 176 326 q 171 256 171 290 q 171 229 171 238 q 172 213 172 219 q 175 201 173 208 q 248 141 189 148 q 263 140 256 140 q 357 180 308 140 q 484 317 406 220 q 530 374 506 346 q 572 421 554 402 q 593 443 589 441 q 600 444 597 444 q 616 437 608 444 q 622 423 622 433 q 589 341 622 401 q 506 210 555 275 q 411 100 458 144 q 275 11 332 28 q 202 0 237 0 q 180 1 191 0 z "},"d":{"ha":692,"x_min":-14,"x_max":781,"o":"m 620 1076 q 681 1033 661 1074 q 684 1023 683 1027 q 685 1012 685 1019 q 686 991 686 1005 q 681 941 686 964 q 661 869 677 919 q 602 661 623 745 q 551 405 570 526 q 533 204 533 283 q 539 134 533 159 q 543 123 541 125 q 547 119 544 120 q 551 119 549 119 q 581 135 563 119 q 617 179 599 152 q 736 420 677 272 q 748 440 743 435 q 761 446 753 446 q 781 426 779 446 l 781 422 q 768 386 779 413 q 743 326 758 359 q 712 250 730 294 q 676 166 694 207 q 602 45 638 73 q 510 11 558 11 q 434 36 469 11 q 370 223 370 83 l 370 240 q 371 267 371 256 q 371 278 371 278 q 363 262 370 277 q 347 227 357 248 q 305 138 326 182 q 272 75 283 95 q 169 -16 228 -1 q 127 -22 149 -22 q 106 -20 115 -22 q 22 36 54 -8 q -14 178 -14 90 q -14 202 -14 189 q 53 459 -3 334 q 182 637 109 585 q 234 660 205 653 q 279 665 254 665 q 315 661 299 665 q 393 621 360 650 l 402 612 l 410 639 q 437 726 418 667 q 473 842 455 785 q 498 920 492 899 q 505 936 500 926 q 513 955 509 946 q 522 975 517 963 q 534 999 528 988 q 556 1041 546 1026 q 581 1064 567 1055 q 620 1076 601 1076 m 309 531 l 298 526 q 277 510 290 522 q 254 484 264 498 q 203 394 227 448 q 165 285 179 339 q 149 175 149 219 q 154 135 149 151 q 156 130 155 132 q 158 128 157 128 q 162 130 159 128 q 170 135 165 131 q 181 144 176 139 q 271 285 217 178 q 312 368 291 324 q 342 434 332 411 q 359 478 352 456 q 367 503 367 499 l 367 503 q 354 512 363 507 q 336 522 345 517 q 321 528 326 527 l 309 531 z "},"e":{"ha":484,"x_min":-1,"x_max":568,"o":"m 280 705 q 346 680 319 705 q 378 583 378 642 q 378 565 378 574 q 315 406 370 484 q 280 366 303 389 q 241 332 257 342 q 183 302 212 311 l 168 298 l 166 285 q 164 266 165 279 q 163 241 163 254 l 163 229 q 185 149 163 168 q 202 138 190 143 q 233 133 215 133 q 294 151 258 133 q 371 218 330 169 q 450 323 395 248 q 458 335 454 329 q 495 386 480 366 q 518 418 509 406 q 533 436 528 430 q 541 443 538 441 q 546 444 543 444 l 550 444 q 557 443 555 444 q 563 438 560 441 q 568 425 568 433 q 546 370 568 410 q 403 144 483 250 q 339 70 367 96 q 278 28 312 45 q 184 7 233 7 q 156 9 170 7 q 45 72 87 20 q -1 230 -1 128 l -1 244 q 99 571 5 413 q 223 693 156 666 q 280 705 254 705 m 300 566 l 288 553 q 211 433 248 507 q 195 394 195 398 l 195 394 q 201 397 197 394 q 210 406 205 401 q 275 488 251 439 q 289 524 282 504 q 298 556 296 543 l 300 566 z "},"f":{"ha":355,"x_min":-241,"x_max":468,"o":"m 250 826 q 273 817 262 826 q 290 767 290 806 q 289 747 290 758 q 279 675 287 712 q 253 577 272 638 q 199 408 235 515 q 116 142 153 267 q 78 4 78 16 l 78 3 l 79 3 q 84 7 80 3 q 92 14 86 8 q 115 35 101 22 q 252 184 192 103 q 325 287 285 228 q 386 380 366 347 q 441 444 422 441 l 444 444 q 455 441 450 444 q 465 433 460 438 q 468 420 468 429 q 455 374 468 403 q 406 292 440 346 q 334 185 372 238 q 310 149 323 169 q 286 115 296 130 q 177 -35 222 20 q 71 -153 133 -90 l 35 -189 l 33 -200 q 32 -210 32 -206 q 33 -213 32 -212 q 36 -215 33 -214 q 43 -218 39 -216 q 114 -277 92 -235 q 129 -315 125 -298 q 133 -355 133 -332 q 103 -438 132 -406 q 31 -469 74 -469 q 2 -465 17 -469 q -111 -310 -87 -437 q -113 -300 -112 -304 q -113 -296 -113 -296 l -114 -296 q -120 -298 -115 -296 q -132 -301 -125 -299 q -150 -305 -142 -304 q -173 -306 -157 -306 q -190 -306 -184 -306 q -199 -304 -195 -305 q -208 -300 -203 -303 q -241 -254 -241 -283 q -235 -229 -241 -241 q -130 -141 -216 -191 q -117 -133 -122 -137 q -111 -127 -112 -129 q -109 -118 -110 -125 q -106 -100 -108 -110 q -18 264 -88 35 q 48 472 12 361 q 102 627 85 584 q 203 801 150 744 q 250 826 228 826 m 25 -254 l 26 -292 q 29 -336 26 -321 q 37 -361 31 -351 q 42 -370 39 -366 q 47 -375 45 -374 q 60 -382 54 -382 q 70 -377 65 -382 q 79 -360 75 -372 q 84 -338 83 -349 l 84 -333 q 78 -303 84 -319 q 63 -277 73 -288 q 51 -266 57 -271 q 35 -258 45 -262 l 25 -254 z "},"g":{"ha":753,"x_min":-14,"x_max":836,"o":"m 562 682 q 603 665 588 682 q 620 637 615 652 q 625 591 625 621 q 614 476 625 546 q 592 352 607 422 q 549 163 578 283 q 515 18 524 60 q 505 -26 505 -23 q 518 -10 507 -25 q 545 27 530 5 q 572 66 559 48 q 658 194 609 120 q 746 334 707 269 q 779 393 766 368 q 804 437 795 426 q 821 445 813 445 q 836 427 833 445 l 836 426 q 814 355 836 409 q 768 254 793 300 q 743 211 758 238 q 712 156 727 183 q 709 151 710 153 q 641 34 667 77 q 567 -73 614 -8 q 472 -199 506 -160 l 454 -222 l 444 -252 q 361 -437 410 -354 q 220 -543 299 -543 q 216 -543 218 -543 q 205 -541 211 -542 q 197 -540 200 -541 q 146 -490 157 -528 q 144 -473 144 -481 q 164 -419 144 -450 q 230 -338 184 -389 l 249 -317 l 260 -288 q 357 64 300 -180 q 371 124 363 89 q 387 189 380 159 q 396 228 393 212 q 402 253 400 243 q 406 269 405 263 q 408 276 408 274 q 408 279 408 278 l 408 279 q 402 270 408 279 q 389 248 397 261 q 208 8 268 44 q 122 -20 169 -20 q 8 56 46 -20 q -14 180 -14 94 q 57 477 -11 344 q 229 652 125 610 q 287 662 258 662 q 311 659 300 662 q 366 631 340 652 q 408 582 392 610 q 418 560 414 570 q 422 538 421 551 l 422 524 l 455 572 q 464 585 460 578 q 485 616 475 602 q 498 637 494 631 q 517 662 509 654 q 535 676 525 671 q 548 681 543 680 q 562 682 553 682 m 300 565 q 277 559 288 565 q 260 548 268 555 q 243 529 252 541 q 157 271 182 450 q 149 180 149 216 l 149 161 l 175 186 q 211 228 193 205 q 267 298 230 251 q 363 435 305 348 q 390 475 380 460 q 402 495 399 489 q 406 503 406 501 q 406 504 406 503 q 404 504 405 504 q 395 506 399 505 q 385 512 391 508 q 371 525 380 516 q 300 565 331 565 m 109 -299 l 110 -300 l 110 -305 q 109 -306 110 -306 q 109 -302 109 -306 q 109 -300 109 -300 q 109 -300 109 -300 l 109 -299 m 107 -311 q 107 -311 107 -311 q 108 -312 108 -311 q 109 -314 109 -313 q 108 -315 109 -315 l 107 -315 q 107 -315 107 -315 q 106 -313 106 -314 q 107 -312 106 -312 q 107 -311 107 -311 l 107 -311 z "},"h":{"ha":687,"x_min":-9,"x_max":781,"o":"m 413 -63 q 377 -48 395 -59 q 346 -22 359 -37 q 306 106 306 26 q 307 134 306 119 q 329 277 313 198 q 366 424 345 355 q 367 431 367 430 q 342 398 361 425 q 302 339 322 371 q 248 250 271 288 q 201 174 224 213 q 145 77 177 135 q 110 12 116 24 q 105 4 107 7 q 102 -1 104 1 q 55 -29 83 -29 l 50 -29 q -7 34 4 -25 q -9 76 -9 49 q -5 165 -9 118 q 89 600 22 374 q 114 678 97 627 q 147 779 130 729 q 172 850 163 828 q 238 966 201 932 q 291 995 264 994 l 294 995 q 331 981 316 995 q 354 919 354 962 q 353 901 354 911 q 346 862 351 883 q 330 809 341 841 q 283 670 302 728 q 230 506 264 612 q 198 404 214 457 q 171 311 182 351 q 160 267 160 271 l 160 266 q 165 272 161 266 q 174 287 169 278 q 300 471 237 386 q 454 648 421 632 q 466 652 461 651 q 482 653 471 653 q 498 652 494 653 q 509 648 503 651 q 551 589 543 631 q 555 555 555 574 q 520 368 555 492 q 472 144 480 224 q 469 95 469 117 q 471 69 469 79 q 475 58 472 59 q 477 57 475 57 q 491 61 481 57 q 508 70 500 65 q 625 214 557 104 q 668 293 641 240 q 718 393 696 347 q 732 422 727 412 q 742 436 738 432 q 749 443 745 441 q 760 446 755 446 q 779 435 772 446 q 781 425 781 431 q 762 367 781 410 q 690 219 743 323 q 638 121 659 158 q 597 53 618 84 q 437 -64 519 -64 l 435 -64 q 423 -64 429 -64 q 413 -63 416 -64 z "},"i":{"ha":342,"x_min":0,"x_max":435,"o":"m 231 920 q 250 915 241 920 q 275 887 260 908 q 296 848 290 865 q 300 825 300 838 q 295 797 300 810 q 267 762 286 774 q 225 749 248 749 q 212 750 219 749 q 172 771 189 754 q 151 812 155 788 q 150 823 150 819 q 152 840 150 830 q 191 903 159 879 q 231 920 213 919 m 186 651 q 245 593 236 649 q 246 579 246 588 q 245 547 246 565 q 241 515 243 530 q 208 405 235 486 q 154 217 166 283 q 146 169 150 195 q 141 126 142 143 q 140 114 140 120 q 141 98 140 105 q 144 88 142 91 q 146 87 144 87 q 171 104 153 87 q 212 147 190 122 q 250 195 233 172 q 267 223 256 205 q 289 262 278 242 q 336 346 316 312 q 382 422 356 380 q 396 440 391 435 q 410 445 402 445 l 414 445 q 435 420 435 442 q 434 414 435 417 q 393 283 427 360 q 309 131 359 207 q 186 3 249 43 q 123 -14 155 -14 q 110 -14 117 -14 q 16 73 43 -1 q 0 182 0 120 q 16 320 0 244 q 54 459 31 384 q 95 571 77 534 q 159 645 123 625 q 172 650 168 649 q 186 651 177 651 z "},"j":{"ha":408,"x_min":-349,"x_max":519,"o":"m 230 991 q 246 989 238 991 q 319 910 309 979 q 320 899 320 905 q 294 839 320 867 q 268 820 281 826 q 239 814 256 814 l 231 814 q 214 816 220 814 q 161 868 173 831 q 156 890 158 878 q 154 913 154 903 q 155 928 154 922 q 230 991 170 987 m 185 695 q 206 690 197 695 q 230 667 222 682 q 237 623 237 651 q 234 575 237 602 q 226 520 231 545 q 213 457 222 496 q 185 345 203 418 q 154 220 172 291 q 123 94 137 149 q 85 -61 100 -3 q 58 -161 70 -120 q 52 -183 54 -174 q 50 -194 50 -192 q 56 -190 50 -194 q 68 -178 61 -185 q 114 -131 90 -159 q 177 -53 139 -103 q 272 76 232 16 q 389 260 313 136 q 440 348 424 317 q 479 425 457 378 q 485 437 483 433 q 492 442 488 441 q 501 444 496 444 q 514 439 509 444 q 519 426 519 434 q 511 396 519 421 q 491 341 503 370 q 471 290 480 311 q 426 196 452 251 q 384 114 399 142 q 211 -142 332 21 q 154 -216 178 -186 q 102 -273 129 -246 q -14 -370 37 -339 q -24 -377 -19 -373 q -30 -383 -28 -380 q -49 -410 -36 -394 q -73 -438 -62 -427 q -213 -504 -140 -504 l -215 -504 q -232 -503 -223 -504 q -245 -501 -241 -503 q -318 -460 -286 -492 q -337 -437 -330 -448 q -347 -415 -344 -427 q -349 -395 -349 -404 q -347 -374 -349 -385 q -324 -338 -342 -354 q -207 -298 -296 -309 q -188 -296 -197 -297 q -172 -294 -178 -295 l -160 -292 l -155 -279 q -100 -118 -133 -234 q -74 -20 -88 -78 q -31 154 -59 37 q 32 404 9 318 q 68 531 54 489 q 100 608 83 574 q 163 690 134 676 q 185 695 173 695 z "},"k":{"ha":732,"x_min":-35,"x_max":829,"o":"m 331 1099 q 379 1079 359 1098 q 399 1029 399 1059 q 397 1017 399 1023 q 386 979 396 1009 q 353 886 376 949 q 299 730 332 829 q 251 581 267 632 q 228 502 239 541 q 210 435 217 463 q 202 405 202 407 q 205 408 203 405 q 210 417 207 412 q 258 493 230 451 q 308 566 286 536 q 380 651 343 612 q 446 707 418 689 q 472 719 461 716 q 498 722 483 722 q 512 722 507 722 q 520 721 517 722 q 528 718 524 720 q 566 644 566 695 q 562 607 566 627 q 523 506 549 562 q 463 400 496 450 q 346 271 405 312 q 333 261 338 265 q 328 257 328 258 q 330 251 328 256 q 334 239 332 246 q 337 229 336 235 q 341 213 338 221 q 347 197 344 204 q 403 121 370 143 q 470 99 435 99 q 546 119 510 99 q 603 162 582 138 q 678 263 632 195 q 759 387 724 332 q 782 423 774 411 q 796 439 790 435 q 808 443 802 443 q 822 437 815 443 q 829 422 829 431 q 828 419 829 421 q 815 393 827 415 q 791 344 804 371 q 767 299 777 317 q 703 193 740 250 q 636 98 665 136 q 448 -26 554 -3 q 416 -28 433 -28 q 366 -24 388 -28 q 229 81 284 -1 q 201 132 215 102 q 183 182 188 162 q 183 183 183 182 q 180 190 182 190 q 178 188 180 190 q 163 158 175 182 q 138 108 151 134 q 121 69 125 81 q 112 43 117 58 q 103 15 107 28 q 98 -3 100 5 q 92 -22 94 -18 q 53 -60 82 -50 q 32 -63 43 -63 q 15 -61 22 -63 q 2 -56 7 -59 q -9 -47 -3 -54 q -34 14 -31 -28 q -35 37 -35 24 q -28 125 -35 74 q 33 408 -14 224 q 130 739 81 592 q 250 1032 191 918 q 271 1069 262 1057 q 292 1088 280 1081 q 331 1099 312 1099 m 490 637 l 484 633 q 456 607 475 626 q 420 570 437 589 q 353 487 383 529 q 288 387 322 445 q 274 365 279 374 q 269 354 269 355 q 282 363 271 354 q 311 385 294 372 q 342 410 327 397 q 365 430 357 422 q 464 568 427 489 q 479 603 472 585 q 488 632 486 621 l 490 637 z "},"l":{"ha":433,"x_min":19,"x_max":515,"o":"m 146 -20 q 114 -8 131 -16 q 85 12 97 1 q 69 30 78 18 q 54 51 60 41 q 19 225 19 114 q 60 522 19 344 q 135 785 91 658 q 222 987 180 913 q 283 1031 246 1026 q 291 1031 288 1031 q 340 1011 319 1031 q 361 960 361 987 q 361 949 361 954 q 357 934 360 944 q 350 914 353 924 q 342 897 346 903 q 331 865 340 892 q 310 801 322 838 q 288 734 298 765 q 186 291 205 475 q 184 262 184 281 q 183 226 183 243 q 193 132 183 158 q 193 131 193 131 q 196 124 195 125 q 199 122 197 122 l 202 122 q 212 125 205 123 q 224 130 218 127 q 448 392 298 162 q 465 418 458 406 q 475 433 473 429 q 496 447 484 447 q 506 444 500 447 q 515 427 515 438 q 513 416 515 421 q 509 406 512 414 q 503 389 506 398 q 477 322 490 353 q 440 243 464 292 q 324 52 374 108 q 205 -20 273 -5 q 174 -23 191 -23 q 146 -20 159 -23 z "},"m":{"ha":1002,"x_min":-20,"x_max":1099,"o":"m 768 -9 q 655 87 685 -2 q 646 124 649 104 q 643 173 644 144 l 643 191 q 650 284 643 232 q 678 453 657 336 q 694 551 694 538 q 694 555 694 555 q 690 550 693 555 q 649 494 676 533 q 602 418 622 454 q 601 416 602 417 q 565 347 587 390 q 532 280 543 303 q 493 202 515 245 q 459 139 471 159 q 399 96 435 102 q 384 94 391 94 q 309 154 333 94 q 306 165 307 160 q 305 178 305 170 q 304 201 304 186 l 304 208 q 305 227 304 218 q 308 250 306 235 q 316 292 311 264 q 330 365 321 319 q 337 397 334 380 q 354 478 347 446 q 360 512 360 511 q 349 497 359 512 q 326 462 339 483 q 300 421 313 441 q 240 309 264 359 q 187 182 216 259 q 157 103 168 132 q 138 58 145 73 q 126 35 132 43 q 115 21 121 27 q 92 3 103 8 q 64 -3 81 -3 l 61 -3 q -6 38 19 -3 q -18 68 -15 54 q -20 118 -20 83 q -17 179 -20 151 q -2 263 -14 208 q 31 412 15 353 q 70 526 47 471 q 170 656 122 654 l 174 656 q 210 632 198 656 q 214 606 214 625 q 203 505 214 579 q 195 444 199 471 q 190 408 191 416 q 189 401 189 404 q 188 389 188 391 l 188 387 q 192 393 189 387 q 199 406 195 398 q 221 449 208 425 q 247 494 235 473 q 304 580 271 534 q 355 645 338 627 q 443 690 399 690 q 460 688 452 690 q 480 681 471 686 q 497 667 488 676 q 520 631 513 652 q 528 576 528 609 q 515 458 528 531 q 509 427 511 439 q 507 413 507 414 q 511 419 507 413 q 521 435 515 425 q 524 439 522 437 q 573 518 546 477 q 615 581 600 559 q 654 631 631 604 q 693 673 677 659 q 729 701 712 692 q 765 709 745 709 q 781 707 775 709 q 793 703 787 706 q 858 577 858 673 q 857 561 858 569 q 851 505 857 540 q 836 408 846 471 q 817 302 823 339 q 809 244 811 266 q 808 197 808 223 q 809 150 808 163 q 815 137 811 137 l 817 137 q 1025 378 883 155 q 1051 417 1040 400 q 1065 437 1063 433 q 1081 444 1074 444 q 1094 438 1088 444 q 1098 433 1097 435 q 1099 425 1099 430 q 1081 359 1099 409 q 1035 253 1062 309 q 897 43 963 106 q 778 -10 837 -10 q 768 -9 773 -10 z "},"n":{"ha":685,"x_min":-35,"x_max":773,"o":"m 27 -20 q -35 98 -35 3 q -34 123 -35 111 q -20 216 -31 161 q 15 361 -9 271 q 90 595 60 532 q 158 661 119 658 q 168 661 163 661 q 199 654 183 661 q 216 641 208 650 q 230 623 225 631 q 237 589 237 610 q 227 521 237 565 q 195 396 217 477 q 183 352 188 370 q 177 332 178 334 q 182 340 177 332 q 195 361 188 349 q 355 600 287 526 q 475 680 427 680 q 482 679 479 680 q 551 595 535 670 q 553 551 553 578 q 550 492 553 520 q 540 428 546 460 q 526 354 534 396 q 510 274 515 302 q 505 221 506 245 q 504 217 505 221 q 504 206 504 213 q 506 181 504 195 q 513 157 507 168 q 528 146 518 146 l 529 146 q 565 166 546 148 q 605 214 584 185 q 640 264 625 240 q 677 327 654 288 q 716 396 703 370 q 746 441 736 435 q 755 443 751 443 q 768 437 763 443 q 773 423 773 432 l 773 418 q 770 405 772 412 q 762 384 768 397 q 745 349 755 371 q 734 325 740 338 q 672 202 711 273 q 583 74 633 130 q 475 14 533 18 q 352 120 385 18 q 344 155 347 138 q 341 194 342 171 l 341 208 q 412 545 341 334 q 414 554 414 551 q 413 556 414 556 q 405 549 411 556 q 392 533 399 542 q 380 516 385 524 q 377 513 378 514 q 276 350 359 490 q 120 34 193 211 q 71 -22 105 -9 q 52 -24 62 -24 q 27 -20 39 -24 z "},"o":{"ha":610,"x_min":-8,"x_max":569,"o":"m 342 743 l 350 743 q 365 742 358 743 q 391 736 376 741 q 416 728 407 732 q 457 703 436 720 q 493 669 477 687 q 517 632 505 654 q 538 590 530 610 q 569 428 569 515 q 562 344 569 387 q 498 163 546 251 q 380 32 452 84 q 348 12 368 23 q 315 -3 328 1 q 234 -18 272 -18 q 220 -17 227 -18 q 73 54 136 -7 q 3 177 24 106 q -5 217 -2 193 q -8 260 -8 240 q -7 284 -8 274 q 34 401 3 347 q 103 473 65 454 l 111 476 l 112 489 q 176 659 115 587 q 290 735 223 715 q 313 740 299 739 q 342 743 328 742 m 354 591 q 318 577 336 591 q 287 540 300 564 q 273 486 273 517 q 274 476 273 481 q 293 429 277 444 q 328 410 309 414 q 356 406 346 406 l 363 406 q 370 371 370 389 q 349 304 370 336 q 291 269 328 273 l 286 269 q 238 279 256 269 q 208 303 219 290 q 192 327 197 316 q 188 337 188 337 q 186 325 188 337 q 185 294 185 313 q 189 249 185 274 q 204 201 193 224 q 236 164 215 179 q 293 150 258 150 l 300 150 q 410 242 363 157 q 456 428 456 327 q 455 457 456 442 q 421 556 449 520 q 358 591 394 591 l 354 591 z "},"p":{"ha":597,"x_min":-83,"x_max":574,"o":"m 191 695 q 221 684 207 694 q 237 662 232 675 q 243 623 243 648 q 242 609 243 616 q 232 533 241 577 q 202 410 224 490 q 197 389 199 399 q 189 360 192 372 q 186 348 186 349 q 192 358 186 349 q 205 382 197 367 q 321 568 267 498 q 404 645 363 618 q 481 672 446 672 q 545 642 518 672 q 574 534 574 606 q 572 488 574 513 q 484 219 554 341 q 314 45 413 98 q 220 22 265 22 q 155 35 185 22 q 146 39 150 37 q 141 41 142 41 l 140 41 q 133 16 139 39 q 117 -40 126 -7 q 101 -102 109 -73 q 70 -232 83 -174 q 55 -315 58 -290 q 50 -350 52 -339 q 45 -366 47 -360 q 32 -382 41 -374 q 14 -394 23 -390 q -12 -399 3 -399 q -30 -396 -22 -399 q -69 -359 -56 -387 q -83 -245 -83 -323 q -56 32 -83 -133 q 9 320 -32 166 q 87 574 50 475 q 125 648 103 616 q 165 690 147 680 q 191 695 178 695 m 463 599 q 445 594 456 599 q 423 582 433 589 q 417 577 421 581 q 410 570 414 574 q 405 566 407 568 q 306 432 359 523 q 208 234 252 342 q 194 200 202 220 q 180 163 186 180 q 174 146 174 147 q 174 145 174 145 q 175 144 174 144 q 179 145 176 144 q 189 149 182 146 q 267 198 218 161 q 379 334 326 246 q 456 513 431 422 q 468 586 468 562 q 466 597 468 595 q 465 598 466 598 q 463 599 464 599 z "},"q":{"ha":706,"x_min":-2,"x_max":824,"o":"m 542 719 q 590 701 568 718 q 617 654 613 684 q 618 635 618 644 q 608 565 618 600 q 581 484 598 530 q 555 409 570 451 q 498 228 526 317 q 452 76 471 139 q 434 4 434 12 l 434 3 q 436 4 435 3 q 440 7 438 5 q 449 15 442 9 q 465 30 456 22 q 471 35 468 33 q 608 184 548 104 q 681 288 641 228 q 742 380 722 347 q 798 445 778 441 l 800 445 q 811 442 806 445 q 821 434 817 439 q 824 420 824 429 q 811 375 824 403 q 762 292 796 347 q 690 185 728 238 q 659 140 676 165 q 642 115 649 125 q 533 -34 578 21 q 427 -152 489 -89 l 391 -189 l 389 -199 q 389 -201 389 -200 q 388 -209 388 -206 q 389 -212 388 -212 q 392 -214 389 -213 q 399 -217 395 -216 q 470 -277 448 -235 q 485 -314 481 -297 q 489 -355 489 -331 q 459 -438 488 -406 q 387 -469 430 -469 q 358 -465 373 -469 q 245 -309 269 -437 q 244 -302 245 -305 q 243 -296 243 -296 q 237 -297 242 -296 q 224 -300 232 -298 q 207 -304 214 -303 q 183 -305 199 -305 l 172 -305 q 158 -304 163 -305 q 148 -300 154 -303 q 115 -253 115 -283 q 121 -228 115 -241 q 227 -140 140 -191 q 239 -132 234 -136 q 245 -127 244 -128 q 247 -117 246 -125 q 250 -100 248 -110 q 314 184 264 7 q 288 141 299 159 q 281 131 283 136 q 140 18 211 23 q 127 16 131 16 l 125 16 q 120 17 125 16 q 115 18 118 17 q 3 153 26 34 q -2 216 -2 182 q 53 469 -2 331 q 214 671 118 624 q 247 685 234 681 q 279 688 260 688 l 286 688 q 308 688 301 688 q 321 685 314 687 q 401 604 379 662 q 405 575 405 590 q 401 553 405 562 q 383 537 395 542 q 372 534 378 534 q 347 540 363 534 q 330 544 336 543 q 311 545 323 545 q 298 545 302 545 q 290 544 294 545 q 281 540 287 543 q 186 401 231 512 q 146 229 150 311 l 146 219 q 148 177 146 199 q 154 149 151 155 q 156 149 155 149 q 183 168 162 149 q 224 212 205 187 q 329 378 271 274 q 347 411 336 391 q 368 450 358 431 q 391 496 385 481 q 398 513 394 505 q 414 542 406 528 q 465 634 440 594 q 510 707 486 682 q 542 719 523 719 m 381 -253 l 382 -291 q 385 -335 382 -321 q 393 -361 387 -350 q 398 -369 395 -365 q 403 -375 401 -373 q 416 -382 410 -382 q 426 -376 420 -382 q 435 -360 431 -372 q 440 -338 439 -349 l 440 -332 q 434 -303 440 -319 q 419 -277 429 -288 q 407 -266 413 -270 q 391 -258 401 -262 l 381 -253 z "},"r":{"ha":530,"x_min":-10,"x_max":621,"o":"m 281 -20 q 157 136 180 3 q 155 178 155 155 q 161 260 155 219 q 244 528 179 366 l 248 536 l 168 536 l 164 527 q 144 489 159 518 q 113 431 129 460 q 92 393 97 402 q 67 351 80 372 q 46 320 54 330 q 31 303 38 310 q 18 295 23 296 l 14 295 q 3 297 9 295 q -5 304 -2 300 q -10 317 -10 308 q 6 379 -10 333 q 33 476 18 415 q 56 574 49 538 q 59 586 58 581 q 60 596 60 591 q 57 620 60 606 q 56 631 56 625 q 63 662 56 646 q 96 696 74 684 q 142 709 117 709 q 165 705 154 709 q 210 700 183 700 q 276 707 242 700 q 334 726 308 712 q 379 738 359 738 q 391 737 385 738 q 460 663 450 724 q 462 647 462 654 q 460 634 462 640 q 456 618 459 627 q 436 565 453 608 q 397 468 419 522 q 317 216 338 319 q 314 163 314 192 q 317 117 314 136 q 321 106 319 111 q 324 100 323 102 q 327 97 326 98 q 330 96 328 96 q 337 97 332 96 q 553 379 415 109 q 573 415 564 399 q 583 433 581 430 q 589 439 585 436 q 595 443 592 441 q 602 444 600 444 q 608 443 605 444 q 621 420 621 437 q 615 390 621 408 q 477 115 573 267 q 363 -7 418 20 q 302 -22 332 -22 q 281 -20 291 -22 z "},"s":{"ha":440,"x_min":-2,"x_max":522,"o":"m 127 -92 q 111 -90 119 -92 q 98 -87 102 -89 q 5 -25 32 -69 q -2 0 -2 -11 q 9 26 -2 16 q 35 45 20 37 q 68 65 47 52 q 109 90 89 77 q 139 109 130 102 q 144 113 142 111 q 146 117 146 115 q 106 218 144 126 q 53 425 54 342 l 53 441 q 78 566 53 507 q 136 670 102 627 q 209 724 170 712 q 227 727 218 727 q 278 696 260 727 q 282 688 281 692 q 283 680 283 685 q 284 667 284 675 l 284 663 q 245 538 284 617 q 223 481 230 504 q 217 434 217 458 l 217 426 q 221 387 218 406 q 234 337 225 368 q 240 317 236 329 q 257 258 249 288 q 274 212 271 212 q 274 212 274 212 q 290 225 277 214 q 318 253 302 237 q 349 284 334 269 q 467 417 425 361 q 479 433 474 425 q 486 441 484 438 q 491 447 488 444 q 497 451 494 450 q 503 452 501 452 q 511 450 507 452 q 522 433 522 446 q 484 361 522 412 q 415 271 448 310 q 334 183 382 232 l 287 135 l 290 117 q 292 76 292 96 q 283 11 292 41 q 232 -66 268 -40 q 143 -93 196 -93 q 127 -92 136 -93 z "},"t":{"ha":366,"x_min":11,"x_max":457,"o":"m 26 109 q 14 161 18 135 q 11 226 11 186 q 25 375 11 290 q 63 557 39 461 q 71 589 68 577 q 73 599 73 598 q 70 600 73 599 q 62 601 66 600 q 25 613 35 606 q 12 636 12 623 q 15 647 12 642 q 31 661 20 656 q 69 669 43 666 l 94 672 l 98 685 q 157 861 134 799 q 202 964 180 922 q 222 995 212 984 q 243 1011 231 1006 q 266 1018 253 1015 q 288 1021 279 1021 q 328 1008 308 1021 q 357 976 347 996 q 360 967 359 971 q 361 959 361 964 q 361 944 361 954 q 361 929 361 934 q 359 920 361 924 q 355 909 358 916 l 341 882 q 339 878 340 880 q 321 836 332 867 q 286 735 309 804 q 281 719 283 726 q 269 684 273 694 q 266 670 266 673 q 267 667 266 668 q 269 667 267 667 q 271 667 270 667 q 280 666 273 667 q 298 665 288 665 q 312 664 305 665 q 382 652 365 661 q 397 629 397 644 q 394 617 397 622 q 386 608 392 612 q 360 598 378 601 q 304 594 342 595 q 269 593 285 593 q 250 592 253 592 l 241 592 l 233 560 q 176 279 192 418 q 171 184 171 229 q 174 139 171 155 q 199 114 182 114 q 235 134 216 114 q 363 331 279 174 q 393 389 382 368 q 411 420 404 410 q 422 435 417 430 q 438 444 431 444 q 446 442 442 444 q 457 422 457 438 q 449 388 457 409 q 433 348 442 369 q 404 286 423 326 q 323 145 376 226 q 209 21 270 65 q 152 2 181 2 l 148 2 q 92 20 117 2 q 50 63 67 39 q 26 109 33 88 z "},"u":{"ha":651,"x_min":3,"x_max":745,"o":"m 452 -3 q 403 26 425 5 q 384 48 391 38 q 370 73 377 58 q 342 217 342 130 q 342 238 342 227 l 344 267 l 326 234 q 175 20 227 49 q 149 6 160 9 q 120 2 138 2 q 101 3 107 2 q 89 6 95 3 q 25 72 47 23 q 3 196 3 121 q 62 501 3 312 q 104 615 85 580 q 149 666 123 650 q 186 677 167 677 q 234 658 213 677 q 254 600 254 637 q 250 562 254 583 q 244 540 249 556 q 234 505 240 524 q 186 333 202 400 q 165 213 170 265 q 163 186 164 202 q 163 161 163 170 l 163 155 l 163 155 q 173 161 165 155 q 191 177 181 168 q 208 197 200 187 q 221 215 214 206 q 264 273 239 238 q 321 369 288 309 q 378 498 356 439 q 395 537 390 529 q 402 553 397 542 q 410 576 406 564 q 419 599 414 587 q 427 618 423 611 q 508 679 462 679 q 523 677 515 679 q 576 593 576 662 q 575 571 576 581 q 570 545 574 562 q 557 499 566 529 q 520 345 532 408 q 506 266 513 309 q 496 199 498 223 q 493 144 493 172 q 495 110 493 122 q 503 85 500 85 q 512 89 506 85 q 526 97 519 92 q 538 107 533 102 q 627 258 583 153 q 637 284 631 267 q 650 318 644 301 q 705 435 684 412 q 724 444 715 444 q 739 437 732 444 q 745 416 745 429 q 734 366 745 403 q 707 290 723 330 q 591 56 636 110 q 519 0 558 16 q 477 -6 499 -6 q 452 -3 463 -6 z "},"v":{"ha":691,"x_min":15,"x_max":780,"o":"m 132 6 q 26 134 56 18 q 17 185 19 163 q 15 254 15 207 q 17 322 15 298 q 25 389 19 347 q 45 497 33 436 q 66 591 58 559 q 108 671 82 642 q 163 701 134 701 q 176 700 170 701 q 221 654 209 692 q 224 642 223 648 q 226 628 226 637 q 227 603 227 620 l 227 567 l 209 479 q 167 190 167 287 q 168 169 167 179 q 173 119 170 125 l 174 119 q 177 120 175 119 q 182 123 180 121 q 275 244 218 156 q 363 400 332 333 l 382 439 l 382 465 q 402 591 382 531 q 454 678 422 650 q 498 696 476 696 q 547 664 528 696 q 557 598 557 645 q 554 549 557 574 q 542 481 551 523 q 531 420 534 441 q 528 377 528 398 l 528 366 q 530 340 529 349 q 534 323 531 331 q 567 292 543 292 q 626 319 589 292 q 662 350 643 332 q 711 399 681 368 q 738 426 726 414 q 753 440 749 437 q 766 445 760 445 q 776 441 772 445 q 780 431 780 437 q 768 399 780 421 q 715 318 747 357 q 650 256 682 279 q 538 216 592 216 q 506 221 522 216 q 453 250 477 230 q 418 292 430 269 l 412 305 l 388 259 q 216 33 286 87 q 144 5 178 5 q 132 6 138 5 z "},"w":{"ha":937,"x_min":-5,"x_max":1010,"o":"m 98 7 q 78 16 87 12 q 60 28 70 20 q 20 81 37 48 q -5 218 -5 127 q 7 339 -5 281 q 47 474 19 397 q 164 667 107 642 q 174 672 170 671 q 183 674 178 673 q 195 674 187 674 q 211 673 206 674 q 220 670 216 673 q 256 604 256 652 q 243 534 256 574 q 241 528 242 532 q 230 496 237 517 q 214 454 222 476 q 152 243 172 339 q 139 142 139 180 q 146 100 139 115 l 149 96 l 162 106 q 246 216 216 164 q 289 300 277 267 q 301 334 301 334 q 321 419 309 374 q 344 489 333 463 q 388 557 361 530 q 441 591 415 585 q 450 591 446 591 q 496 558 480 591 q 499 549 498 553 q 500 535 500 544 q 500 506 500 526 q 499 469 500 482 q 493 436 498 455 q 479 378 489 416 q 456 239 456 290 q 456 218 456 228 q 466 170 459 191 q 479 144 472 149 q 484 143 481 143 q 496 145 488 143 q 512 152 504 148 q 613 285 559 173 q 630 320 622 302 q 644 350 639 338 l 654 375 l 650 390 q 644 426 646 410 q 642 467 642 441 q 666 599 642 541 q 707 658 682 636 q 760 680 733 680 q 787 673 774 680 q 821 600 821 659 q 812 527 821 570 q 807 496 809 511 q 804 473 804 481 q 802 452 802 463 q 823 372 802 400 q 829 368 827 369 q 834 366 831 366 q 845 366 838 366 q 869 369 859 366 q 896 382 880 372 q 939 413 911 393 q 966 434 957 427 q 981 442 976 440 q 991 444 985 444 q 1010 423 1008 444 q 1006 409 1010 416 q 980 369 998 393 q 943 328 961 345 q 910 302 928 315 q 880 281 893 289 q 802 259 841 259 q 725 281 762 259 q 715 286 717 286 q 713 285 713 286 q 702 261 711 280 q 680 219 692 241 q 661 184 668 197 q 616 113 633 137 q 578 68 598 88 q 454 10 522 10 q 338 71 388 10 q 317 107 328 85 q 301 153 307 129 l 301 153 q 296 146 300 153 q 291 136 295 143 q 281 121 286 128 q 279 118 280 119 q 155 5 220 27 q 130 2 144 2 q 98 7 113 2 z "},"x":{"ha":651,"x_min":18,"x_max":741,"o":"m 50 27 q 33 59 33 37 q 52 119 33 83 q 100 199 68 150 q 157 283 132 249 q 165 295 163 292 q 168 302 168 299 l 168 304 q 162 339 165 311 q 157 396 159 368 q 155 433 156 410 q 154 477 155 456 q 154 512 154 498 q 153 527 153 526 q 150 519 153 527 q 140 492 146 509 q 125 460 134 476 q 103 419 113 436 q 85 392 93 403 q 71 376 77 382 q 61 367 65 370 q 55 363 57 364 q 53 363 53 363 l 47 363 q 41 363 43 363 q 35 366 38 364 q 35 367 35 366 q 22 376 26 372 q 18 391 18 381 q 19 401 18 395 q 53 476 22 415 q 118 604 83 538 q 174 701 154 671 q 202 731 187 721 q 233 742 216 742 q 275 723 259 742 q 301 672 292 705 q 309 631 306 656 q 314 554 311 606 q 316 504 315 524 q 318 484 317 484 q 335 503 319 484 q 375 550 351 522 q 420 606 398 578 q 480 672 460 654 q 518 690 500 689 l 522 690 q 547 664 547 690 q 547 660 547 662 q 542 633 547 648 q 521 591 536 619 q 470 507 498 550 q 377 376 441 464 l 332 313 l 333 302 q 336 287 334 296 q 341 269 338 278 q 427 165 367 182 q 452 162 437 162 q 486 166 470 162 q 571 222 532 180 q 660 355 606 258 q 719 445 710 445 q 724 446 721 446 q 735 441 730 446 q 741 431 741 437 q 728 390 741 424 q 697 316 715 355 q 665 248 680 276 q 615 166 644 208 q 577 121 601 146 q 536 83 553 96 q 402 37 472 37 q 339 47 370 37 q 223 142 268 73 l 215 155 l 176 115 q 142 81 159 98 q 115 54 125 64 q 64 22 84 22 q 50 27 57 22 z "},"y":{"ha":719,"x_min":10,"x_max":839,"o":"m 109 -470 q 31 -408 33 -459 l 31 -403 q 32 -394 31 -397 q 36 -385 33 -391 q 65 -358 47 -363 q 77 -356 68 -357 q 96 -355 85 -355 q 140 -345 123 -353 q 176 -318 157 -336 q 302 -54 242 -256 q 328 34 312 -21 q 359 147 343 89 q 387 246 376 205 q 398 292 397 287 q 396 289 397 292 q 392 283 394 287 q 317 167 345 208 q 274 105 290 126 q 242 69 258 84 q 146 23 194 23 q 72 54 106 23 q 10 243 10 117 q 39 438 10 330 q 105 634 76 589 q 141 671 121 659 q 182 684 162 684 q 227 665 207 684 q 245 606 245 642 q 245 595 245 601 q 239 556 244 580 q 220 484 233 532 q 187 353 197 400 q 174 264 177 307 q 172 231 172 248 q 174 192 172 211 q 177 161 175 174 q 181 149 179 149 q 191 154 183 149 q 208 166 199 159 q 222 178 216 173 q 342 342 264 216 q 381 407 363 375 q 427 493 399 439 q 448 531 438 513 q 470 572 465 563 q 477 587 473 578 q 484 602 481 595 q 534 667 499 648 q 541 671 538 670 q 549 672 545 672 q 562 673 554 673 q 575 672 570 673 q 583 671 579 672 q 591 668 586 670 q 632 610 623 651 q 635 584 635 599 q 606 429 635 536 q 572 303 597 393 q 521 118 547 213 q 481 -26 495 24 q 472 -58 475 -45 q 468 -74 468 -72 q 483 -54 469 -74 q 517 -5 497 -34 q 559 54 538 25 q 591 99 580 83 q 650 190 618 136 q 741 351 682 244 q 766 394 757 379 q 780 417 774 410 q 789 429 785 424 q 815 444 804 444 q 823 443 819 444 q 839 417 839 439 l 839 410 q 837 393 839 400 q 821 357 835 385 q 791 296 808 329 q 762 241 774 263 q 578 -43 667 70 q 510 -124 553 -74 q 433 -212 467 -175 q 420 -227 425 -221 q 413 -238 416 -232 q 406 -252 410 -243 q 262 -438 350 -378 q 184 -471 222 -465 q 154 -473 173 -473 q 109 -470 130 -473 z "},"z":{"ha":745,"x_min":15,"x_max":838,"o":"m 437 3 q 427 9 433 5 q 416 18 420 14 q 405 25 410 22 q 396 31 399 29 q 309 44 362 44 q 283 43 296 44 q 256 41 267 42 q 230 38 244 40 q 192 31 216 35 q 108 22 136 22 l 98 22 q 19 60 37 26 q 16 70 16 64 q 15 85 15 75 q 16 99 15 95 q 20 110 17 104 q 20 112 20 111 q 125 229 43 162 q 291 354 208 296 q 345 394 321 376 q 484 513 444 467 l 491 522 l 444 498 q 333 451 378 465 q 243 437 288 437 l 238 437 q 150 459 184 437 q 87 522 111 481 q 64 606 64 562 q 93 681 64 652 q 115 697 104 693 q 142 702 126 702 q 189 684 172 702 q 206 661 199 674 q 221 625 213 648 q 235 590 229 601 q 250 573 241 578 q 322 556 275 556 q 370 560 345 556 q 431 578 398 565 q 527 622 464 591 q 540 629 536 627 q 547 635 545 632 q 552 642 549 637 q 564 657 557 650 q 579 667 572 664 q 588 670 583 669 q 598 671 593 671 l 599 671 q 641 649 625 671 q 657 598 657 628 q 649 557 657 578 q 636 533 644 544 q 616 509 628 522 q 460 343 566 438 q 233 184 354 249 q 281 182 262 184 q 325 175 300 180 q 459 109 410 155 l 467 102 l 474 106 q 737 357 646 221 q 787 425 771 406 q 811 445 802 444 q 819 446 815 446 q 825 445 821 446 q 834 437 830 443 q 838 427 838 432 q 791 334 838 404 q 682 190 745 264 q 506 22 570 64 q 481 7 490 12 q 468 1 473 2 q 457 -1 463 -1 q 437 3 445 -1 z "},"{":{"ha":475,"x_min":126,"x_max":675,"o":"m 243 -112 q 130 12 151 -90 q 126 54 126 32 q 182 277 126 132 q 203 334 197 315 q 209 359 209 352 q 208 363 209 361 q 207 367 208 366 q 206 369 207 369 q 199 374 204 369 q 189 386 194 380 q 182 397 184 393 q 178 414 178 406 q 210 441 178 436 q 218 443 215 442 q 222 446 220 444 q 228 452 224 448 q 279 595 259 500 q 320 773 303 711 q 360 887 338 836 q 492 1053 412 1014 q 583 1080 542 1080 q 633 1068 614 1080 q 654 1049 644 1061 q 669 1026 665 1038 q 674 1013 673 1019 q 675 994 675 1007 q 674 974 675 980 q 670 960 673 968 q 640 924 660 937 q 623 915 635 921 q 596 902 611 908 q 569 889 581 895 q 551 878 556 882 q 497 808 530 861 q 485 785 490 795 q 471 756 479 775 q 441 685 458 732 q 408 586 425 639 q 369 475 384 511 q 335 414 353 439 l 326 400 l 329 391 q 340 328 340 366 q 333 258 340 298 q 309 148 326 218 q 289 41 289 72 q 294 15 289 24 q 302 0 298 6 q 313 -10 306 -5 q 331 -19 319 -14 q 355 -26 342 -23 q 372 -31 367 -28 q 379 -41 377 -35 q 380 -47 380 -44 q 378 -57 380 -52 q 351 -87 371 -73 q 306 -110 332 -102 q 268 -115 289 -115 q 243 -112 254 -115 z "},"|":{"ha":516,"x_min":229,"x_max":443,"o":"m 262 -149 q 236 -95 243 -140 q 229 58 229 -49 q 235 389 229 171 q 251 732 241 607 q 277 987 266 913 q 300 1080 288 1061 q 366 1118 326 1118 l 372 1118 q 423 1093 404 1114 q 443 1040 443 1071 q 442 1031 443 1036 q 438 991 441 1024 q 427 916 434 959 q 397 692 406 800 q 382 473 388 584 q 360 160 376 328 q 316 -122 336 -73 q 306 -139 313 -131 q 294 -150 300 -146 q 280 -153 288 -153 q 262 -149 271 -153 z "},"}":{"ha":524,"x_min":33,"x_max":500,"o":"m 92 -100 q 50 -83 66 -96 q 33 -54 33 -69 l 33 -51 q 39 -36 34 -42 q 55 -24 43 -30 q 77 -6 66 -16 q 103 22 88 4 q 127 57 118 39 q 145 114 136 75 q 172 235 155 153 q 249 460 205 398 l 256 471 l 254 486 q 252 518 252 500 q 255 556 252 538 q 276 635 260 593 q 332 758 292 678 q 386 875 370 834 q 401 938 401 916 q 401 948 401 945 q 399 954 401 951 q 395 960 397 957 q 389 967 392 964 q 379 972 386 970 q 357 981 372 975 q 354 982 356 981 q 353 983 353 982 q 338 988 343 986 q 329 992 332 990 q 323 998 326 995 q 315 1020 315 1009 q 350 1060 315 1044 q 383 1067 368 1067 q 435 1051 408 1067 q 484 1001 467 1034 q 500 925 500 968 q 498 895 500 911 q 488 845 496 874 q 463 764 479 815 q 452 729 458 747 q 430 662 439 688 q 411 600 418 625 q 399 547 405 574 l 394 517 l 398 515 q 413 499 406 509 q 422 481 420 490 q 425 466 425 474 q 417 431 425 452 q 390 373 409 410 q 360 303 372 337 q 334 207 349 269 q 308 104 319 143 q 280 32 296 66 q 124 -102 224 -100 q 106 -101 115 -102 q 92 -100 97 -101 z "},"~":{"ha":592,"x_min":136,"x_max":593,"o":"m 382 250 q 288 358 314 267 l 281 379 l 259 355 q 190 298 227 321 q 163 289 176 289 q 140 302 149 289 q 136 319 136 309 q 139 340 136 330 q 153 372 144 355 q 172 401 163 390 q 211 439 187 420 q 254 467 235 458 q 309 479 283 479 q 328 476 320 479 q 374 442 347 470 q 401 417 391 425 q 420 405 411 410 q 434 401 428 401 q 445 404 439 401 q 463 412 452 406 q 515 445 485 423 q 561 480 546 466 q 579 492 572 492 q 589 487 585 492 q 593 475 593 484 q 589 452 593 467 q 498 279 565 340 q 411 247 456 247 q 382 250 396 247 z "},"":{"ha":448,"x_min":37,"x_max":435,"o":"m 362 627 q 318 643 338 627 q 292 689 298 660 q 291 701 291 694 q 314 753 291 728 q 363 778 336 777 q 374 778 368 778 q 383 777 380 777 q 411 762 398 772 q 429 736 423 751 q 435 705 435 722 q 412 647 435 673 q 362 627 389 627 m 111 -269 l 109 -269 q 59 -248 81 -269 q 37 -195 37 -226 q 38 -184 37 -190 q 111 10 43 -155 q 145 93 131 56 q 180 179 160 130 q 221 283 205 243 q 257 370 237 323 q 311 502 276 417 q 323 529 319 521 q 334 539 328 536 q 338 541 336 541 q 341 542 340 542 q 344 541 342 542 q 349 539 346 541 q 359 528 355 536 q 364 482 364 515 q 361 423 364 456 q 245 -63 336 201 q 165 -243 197 -199 q 130 -266 151 -258 q 111 -269 119 -269 z "},"":{"ha":651,"x_min":136,"x_max":690,"o":"m 661 1046 q 686 1031 675 1046 q 690 1011 690 1025 q 683 969 690 994 q 667 920 680 958 q 639 837 655 883 q 609 751 623 790 l 596 714 l 606 701 q 636 610 636 656 q 619 546 636 575 q 568 515 598 515 q 538 523 553 515 q 529 527 533 526 q 526 529 526 529 q 514 500 525 528 q 489 434 504 473 q 460 357 474 395 q 437 297 446 319 q 435 290 436 293 q 428 268 428 273 q 431 264 428 264 q 433 264 432 264 q 446 267 437 264 q 450 267 448 267 q 494 280 466 270 q 551 303 523 290 q 582 315 574 315 q 590 311 587 315 q 595 299 595 306 q 586 277 595 291 q 505 199 557 235 q 397 149 453 163 l 382 146 l 374 124 q 364 95 371 115 q 351 56 357 76 q 333 6 340 24 q 321 -20 326 -12 q 313 -31 317 -28 q 291 -37 302 -37 q 281 -36 286 -37 q 269 -25 275 -33 q 262 -9 264 -18 q 260 9 260 -2 q 265 54 260 26 q 272 81 267 64 q 281 116 277 99 q 288 139 286 132 l 288 140 q 275 146 288 142 q 151 277 184 169 q 136 378 136 326 q 164 532 136 455 q 247 673 193 610 q 408 774 319 756 q 452 778 427 778 q 492 775 475 778 q 500 773 496 774 q 505 772 503 772 l 505 772 q 508 779 505 772 q 514 794 511 785 q 534 841 521 810 q 562 902 548 871 q 585 949 576 933 q 648 1043 625 1028 q 661 1046 655 1046 m 435 595 q 418 588 429 594 q 397 576 406 583 q 361 543 380 564 q 330 501 342 522 q 289 369 293 435 l 289 361 q 323 280 289 296 q 326 278 324 279 q 329 278 328 278 l 330 278 q 334 290 330 279 q 341 312 337 300 q 419 541 372 409 q 432 577 427 562 q 437 595 437 593 l 435 595 z "},"":{"ha":586,"x_min":87,"x_max":686,"o":"m 113 1 q 100 7 104 3 q 92 22 96 11 q 87 45 87 34 q 134 120 87 85 q 142 125 139 123 q 145 127 145 127 q 151 144 146 127 q 162 184 155 160 q 175 231 169 208 q 186 271 182 255 q 198 322 192 295 q 209 368 205 349 q 214 391 214 388 q 210 391 213 391 q 199 393 205 392 q 154 420 165 398 q 150 439 150 429 q 154 458 150 450 q 224 507 169 485 l 238 512 l 252 578 q 276 690 265 648 q 300 778 286 733 q 376 968 336 897 q 507 1082 426 1059 q 555 1090 532 1090 q 568 1090 562 1090 q 600 1082 587 1088 q 626 1064 612 1076 q 683 943 668 1023 q 686 892 686 922 q 671 753 686 826 q 619 666 652 686 q 602 662 611 662 q 588 665 594 662 q 577 674 583 668 q 570 686 572 681 q 570 689 570 687 q 568 694 569 692 l 568 696 q 581 776 568 708 q 594 844 591 822 q 596 902 596 865 q 594 955 596 937 q 586 989 592 973 q 577 1009 583 1000 q 566 1020 571 1017 q 555 1021 562 1021 q 537 1018 546 1021 q 465 803 507 1010 q 438 675 454 746 q 408 539 423 604 l 408 537 q 409 535 408 536 q 412 535 410 535 q 432 531 418 535 q 455 524 445 528 q 493 482 486 510 q 494 469 494 475 q 455 418 494 435 q 418 407 441 413 q 381 399 394 401 l 371 398 l 360 365 q 282 183 330 271 q 273 166 277 173 q 270 158 270 159 l 273 158 q 297 159 279 158 q 326 161 312 161 q 399 152 367 161 q 450 127 432 144 q 467 98 467 113 q 453 79 467 86 q 439 74 450 77 q 418 68 429 71 q 387 60 406 65 q 353 50 369 55 q 294 34 328 43 q 231 17 260 24 q 191 7 201 9 q 154 1 171 4 q 132 -1 137 -1 q 126 -1 130 -1 q 113 1 119 0 z "},"":{"ha":627,"x_min":50,"x_max":709,"o":"m 297 821 q 311 820 306 821 q 323 815 315 819 q 346 797 337 809 q 368 755 355 785 q 379 735 372 747 q 392 713 386 723 q 403 695 398 703 q 410 684 408 687 q 413 679 412 680 q 415 677 414 677 q 419 678 416 677 q 425 680 422 679 q 484 690 454 690 q 519 686 503 690 q 534 683 532 683 l 535 683 q 541 692 536 686 q 551 706 546 699 q 562 718 557 713 q 629 795 620 789 q 670 812 650 812 q 699 800 687 812 q 709 774 709 789 q 694 728 709 755 q 669 695 686 717 q 634 654 652 674 q 607 627 616 634 l 600 621 l 602 612 q 604 594 604 604 q 600 562 604 577 q 594 552 597 558 q 586 541 590 546 l 577 529 l 578 507 q 579 487 579 497 q 548 338 579 422 q 460 176 515 248 l 450 163 l 463 155 q 496 128 479 142 q 528 101 514 113 q 545 84 541 89 q 551 61 551 73 q 532 25 551 40 q 522 21 527 22 q 511 19 517 20 l 505 19 q 496 20 500 19 q 488 24 493 21 q 479 29 483 26 q 473 33 475 32 q 464 41 471 35 q 448 53 457 47 q 397 97 413 81 l 391 104 l 379 95 q 300 66 340 66 q 268 71 282 66 q 239 87 254 75 q 237 88 237 88 q 231 85 235 88 q 219 75 227 83 q 196 54 211 68 q 195 52 195 53 q 150 11 165 22 q 123 -3 136 0 q 115 -4 118 -3 q 109 -5 112 -5 q 94 -3 103 -5 q 62 18 73 2 q 50 55 50 35 q 55 81 50 68 q 98 137 66 106 q 164 186 130 168 q 178 193 172 190 q 186 196 184 195 q 189 197 188 197 q 189 200 189 198 l 189 205 q 188 218 189 208 q 186 238 187 227 q 186 264 186 251 q 214 418 186 335 q 316 604 252 534 l 328 618 l 319 627 q 278 680 301 645 q 248 736 256 715 q 243 762 243 749 q 273 816 243 796 q 283 820 279 819 q 297 821 288 821 m 479 526 l 473 522 q 448 505 462 516 q 421 482 434 494 q 343 372 378 439 q 293 243 307 305 q 287 187 287 214 q 292 146 287 161 q 304 139 295 139 q 323 144 311 139 q 363 184 338 153 q 415 260 389 215 q 467 372 450 318 q 476 404 469 380 q 490 457 482 428 q 503 507 497 486 l 505 516 l 479 526 z "},"":{"ha":743,"x_min":162,"x_max":772,"o":"m 377 -11 q 330 29 345 -4 q 326 47 327 35 q 324 70 324 58 q 326 90 324 81 q 327 98 326 96 q 327 101 327 100 q 320 100 327 101 q 302 98 313 100 q 277 97 288 97 q 233 105 251 97 q 205 129 215 114 q 196 159 196 143 q 212 195 196 178 q 241 213 223 208 q 297 220 260 218 q 329 221 314 220 q 349 222 343 222 l 361 224 l 366 238 q 369 249 368 244 q 370 254 370 254 q 360 254 370 254 q 337 256 351 255 q 286 264 302 258 q 260 286 269 271 q 251 315 251 300 q 279 362 251 343 q 311 371 288 368 q 387 377 335 374 l 412 378 l 418 396 q 433 438 422 408 q 444 469 438 453 q 458 508 452 492 q 465 526 465 524 q 458 520 465 526 q 442 505 451 515 q 358 433 395 456 q 286 411 321 411 q 195 457 229 411 q 162 583 162 503 q 163 612 162 597 q 220 860 172 725 q 271 986 242 921 q 315 1074 300 1051 q 380 1106 341 1106 q 406 1102 393 1106 q 446 1072 431 1094 q 462 1025 462 1050 q 460 1011 462 1018 q 441 964 458 1000 q 328 650 368 812 q 326 639 327 645 q 320 614 323 626 q 317 595 318 602 q 312 564 314 579 q 311 540 311 549 q 312 533 311 534 q 322 538 314 533 q 340 552 330 544 q 359 568 351 559 q 474 699 407 609 q 519 761 500 733 q 572 843 538 789 q 600 885 586 864 q 622 918 614 907 q 639 945 630 930 q 654 971 648 960 q 694 1037 678 1019 q 727 1055 709 1055 l 728 1055 q 761 1040 748 1055 q 772 1013 772 1031 q 728 882 772 981 q 669 733 696 804 q 600 537 642 662 q 545 375 547 385 q 555 374 546 375 q 576 372 564 373 q 671 347 648 365 q 685 337 680 342 q 692 323 689 332 q 696 310 696 317 q 678 282 696 294 q 656 273 669 277 q 619 267 644 270 q 551 260 594 264 q 520 257 532 259 q 507 255 507 256 q 503 248 505 254 q 499 235 501 241 q 498 227 498 229 l 498 226 q 510 224 498 225 q 538 222 522 224 q 588 218 570 220 q 616 212 606 216 q 634 203 626 209 q 653 172 653 189 q 652 164 653 168 q 643 151 650 157 q 629 142 636 144 q 616 139 625 141 q 597 136 608 138 q 570 132 587 135 q 536 126 552 129 q 493 119 512 122 q 482 118 486 119 l 466 116 l 465 107 q 461 95 463 103 q 458 79 460 87 q 450 43 454 57 q 440 20 446 30 q 387 -12 420 -12 q 377 -11 382 -12 z "},"":{"ha":543,"x_min":224,"x_max":427,"o":"m 347 1029 l 349 1029 q 397 1011 376 1029 q 426 964 419 994 q 427 941 427 955 q 382 662 427 868 q 346 518 360 562 q 320 468 332 475 q 310 464 315 464 q 300 467 306 464 q 279 506 286 473 q 267 614 271 539 q 260 787 260 718 q 260 827 260 806 q 271 961 261 920 q 304 1015 280 1001 q 347 1029 326 1029 m 311 411 q 326 411 321 411 q 334 409 330 410 q 342 405 337 408 q 372 379 359 396 q 389 344 385 363 q 391 315 391 333 q 386 235 391 283 q 372 143 380 188 q 353 63 365 108 q 332 -8 341 18 q 292 -61 315 -56 q 286 -63 288 -62 q 283 -64 283 -64 q 281 -63 283 -63 q 277 -62 279 -62 q 243 -9 254 -58 q 238 26 241 3 q 232 69 234 50 q 230 86 231 77 q 228 103 229 96 q 224 193 224 137 q 226 279 224 237 q 231 339 228 321 q 279 405 241 386 q 289 409 285 408 q 297 411 292 410 q 311 411 302 411 z "},"":{"ha":745,"x_min":146,"x_max":854,"o":"m 576 957 l 594 957 q 771 910 696 957 q 854 779 846 858 l 854 772 q 838 707 854 739 q 798 663 822 675 q 775 658 787 658 q 755 663 764 658 q 740 696 740 671 q 743 722 740 707 q 745 739 745 732 q 744 747 745 743 q 671 818 730 802 q 633 822 654 822 q 500 793 575 822 q 401 736 446 771 q 338 668 356 702 l 334 661 l 342 654 q 362 640 350 647 q 402 622 375 633 q 480 591 429 610 q 606 535 585 551 q 649 498 634 517 q 677 421 677 462 q 642 322 677 375 q 614 290 632 309 q 582 258 595 270 l 574 252 l 576 239 q 577 220 577 231 q 564 146 577 185 q 433 7 529 55 q 332 -19 380 -19 q 311 -18 321 -19 q 283 -11 300 -16 q 259 -1 267 -5 q 178 117 189 43 q 176 133 176 126 q 178 150 176 140 q 201 195 184 179 q 225 208 213 208 q 235 205 230 208 q 246 198 241 203 q 256 182 250 193 q 313 147 269 155 q 331 145 323 145 q 363 155 347 145 q 401 183 383 165 q 422 215 418 201 q 423 220 423 218 q 410 241 423 230 q 294 314 380 272 q 159 427 182 368 q 146 485 146 456 q 153 522 146 505 q 201 581 167 561 l 210 586 q 205 595 210 588 q 203 597 204 596 q 180 673 180 633 q 220 784 180 727 q 254 823 233 802 q 294 859 275 845 q 576 957 418 949 m 254 550 q 251 546 252 550 q 248 537 249 542 q 246 529 246 532 q 250 518 246 523 q 265 504 253 513 q 300 479 277 495 q 334 458 316 469 q 383 433 353 448 q 471 386 443 404 q 520 346 498 368 l 538 328 l 545 342 q 552 358 548 348 q 559 378 556 368 q 568 414 567 399 q 568 424 568 420 q 567 431 568 428 q 564 437 566 433 q 529 463 555 450 q 500 475 516 470 q 456 488 485 481 q 373 509 427 496 q 272 542 307 524 q 259 548 264 545 q 254 550 254 550 z "},"":{"ha":381,"x_min":141,"x_max":437,"o":"m 363 1074 q 376 1074 372 1074 q 385 1072 381 1074 q 395 1067 389 1071 q 437 1006 435 1047 l 437 1001 q 389 931 437 953 q 360 926 375 926 q 345 928 351 926 q 337 930 340 930 q 334 931 334 931 q 328 935 333 931 q 321 939 325 937 q 297 967 305 951 q 288 1000 288 983 q 299 1039 288 1021 q 330 1067 310 1057 q 340 1072 336 1071 q 349 1074 345 1074 q 363 1074 354 1074 m 203 1074 l 210 1074 q 251 1052 236 1071 q 267 1010 267 1034 q 248 966 267 987 q 203 948 228 948 q 190 949 197 948 q 145 986 160 958 q 141 1011 141 997 q 145 1036 141 1025 q 203 1074 168 1074 z "},"":{"ha":814,"x_min":145,"x_max":838,"o":"m 584 1042 l 587 1042 q 747 977 675 1042 q 814 871 791 934 q 838 737 838 809 q 824 627 838 683 q 665 355 784 476 q 634 327 646 337 q 604 304 621 316 q 472 248 544 262 q 407 243 441 243 q 370 245 386 243 q 204 352 262 261 q 146 532 157 428 q 145 565 145 548 q 173 730 145 646 q 246 871 200 814 q 380 963 304 940 q 398 972 393 966 q 407 979 401 975 q 422 989 414 984 q 584 1042 504 1042 m 537 900 q 484 898 510 900 q 452 893 458 897 q 443 884 450 892 q 428 867 436 877 q 414 850 420 858 q 392 819 408 842 q 359 768 376 795 q 332 725 342 742 q 304 672 318 702 q 283 623 290 642 q 267 525 267 574 q 269 498 267 511 q 309 368 277 411 q 372 331 334 339 q 393 330 379 330 q 426 331 409 330 q 452 334 443 332 q 596 397 536 349 q 711 540 666 450 q 750 697 750 623 q 689 852 750 790 q 570 899 650 895 q 537 900 555 900 m 541 815 q 669 746 631 812 q 679 705 679 725 q 672 674 679 688 q 652 657 665 661 q 644 656 650 656 q 628 658 638 656 q 574 663 594 663 q 545 659 557 663 q 520 647 533 655 q 496 626 511 640 q 473 598 482 611 q 444 511 444 548 q 447 490 444 498 q 471 472 452 480 q 508 465 489 465 q 523 466 516 465 q 539 471 529 467 q 564 478 555 478 q 576 469 573 478 q 577 464 577 466 q 576 457 577 460 q 549 429 570 444 q 503 405 528 414 q 439 395 471 395 q 406 399 420 395 q 309 517 331 420 q 305 557 305 535 q 311 611 305 587 q 376 736 330 684 q 483 807 422 789 q 541 815 512 815 z "},"":{"ha":543,"x_min":145,"x_max":595,"o":"m 399 1057 q 469 1029 441 1057 q 477 1019 473 1025 q 483 1009 481 1013 q 486 1002 484 1005 q 488 1000 488 1000 q 490 1002 488 1000 q 495 1008 492 1004 q 499 1013 497 1010 q 534 1047 518 1040 q 551 1051 543 1051 q 576 1043 565 1051 q 592 1020 587 1034 q 595 996 595 1012 q 564 818 595 937 q 520 710 546 756 q 469 650 494 665 q 447 646 459 646 q 426 650 435 646 q 390 736 390 671 l 390 758 l 380 746 q 347 710 367 730 q 313 679 328 690 q 223 637 262 637 q 201 642 212 637 q 159 678 175 650 q 145 743 145 705 q 153 804 145 772 q 230 956 176 882 q 262 992 243 973 q 297 1021 282 1010 q 399 1057 352 1057 m 385 938 q 376 937 380 938 q 366 932 372 935 l 366 932 q 291 857 327 912 q 243 745 255 802 q 241 722 241 730 q 242 715 241 716 q 245 717 242 715 q 254 721 249 718 q 393 857 300 741 q 443 920 440 913 l 446 925 l 435 926 q 424 929 431 927 q 408 933 416 930 q 385 938 394 938 z "},"":{"ha":640,"x_min":154,"x_max":622,"o":"m 397 590 q 449 570 430 590 q 459 555 456 562 q 462 536 462 548 q 448 498 462 518 q 395 435 435 477 q 321 351 342 379 q 292 300 300 323 q 287 266 287 285 q 312 180 287 225 q 340 147 319 169 q 355 132 351 137 q 361 125 360 127 q 363 119 363 122 q 345 102 363 102 q 336 103 341 102 q 328 104 331 103 q 216 163 264 120 q 154 300 155 218 l 154 313 q 165 386 154 353 q 245 509 186 450 q 343 578 295 560 q 397 590 372 590 m 600 551 q 609 550 606 551 q 616 545 612 549 q 621 538 620 541 q 622 530 622 536 q 618 511 622 521 q 606 488 614 502 q 571 438 595 471 q 524 378 547 406 q 481 322 494 342 q 466 290 468 302 l 466 286 q 469 280 466 283 q 479 273 471 277 q 503 261 488 269 q 524 251 517 254 q 536 243 531 247 q 547 232 541 239 q 578 168 578 201 q 577 157 578 162 q 553 117 573 132 q 507 102 534 102 q 484 104 496 102 q 480 106 483 105 q 475 108 478 107 l 465 112 q 460 114 463 113 q 444 123 451 117 q 425 142 437 129 q 364 260 364 201 q 370 300 364 280 q 532 511 399 393 q 600 551 577 551 z "},"":{"ha":688,"x_min":134,"x_max":615,"o":"m 496 144 q 457 195 463 156 q 456 205 456 199 q 475 279 456 235 q 481 295 481 293 l 481 296 q 467 294 481 296 q 434 291 454 293 q 336 282 389 286 q 250 279 283 279 q 225 280 235 279 q 182 290 205 282 q 148 307 160 298 q 134 334 134 319 q 173 372 134 359 q 208 382 191 379 q 252 388 224 386 q 287 391 268 389 q 321 395 307 393 q 408 405 356 400 q 480 409 460 409 q 506 408 489 409 q 539 406 523 408 q 565 404 556 405 q 578 402 574 403 q 587 399 583 401 q 615 342 615 387 q 604 266 615 313 q 515 142 574 145 l 509 142 q 496 144 501 142 z "},"":{"ha":745,"x_min":145,"x_max":804,"o":"m 581 1042 l 594 1042 q 702 1010 657 1042 q 792 873 766 964 q 804 777 804 827 q 803 751 804 764 q 747 551 797 649 q 623 373 698 449 q 420 249 527 275 q 392 245 409 246 q 359 243 375 243 q 323 245 338 243 q 180 355 227 264 q 145 519 145 425 q 167 675 145 593 q 317 944 214 838 q 409 1008 359 987 q 447 1021 429 1017 q 486 1025 465 1025 q 508 1027 501 1026 q 522 1031 515 1028 q 549 1039 536 1037 q 581 1042 562 1042 m 539 957 l 526 944 q 508 928 519 938 q 486 908 497 918 q 419 848 456 884 q 363 791 381 812 q 235 569 270 686 q 220 473 220 518 q 239 376 220 418 q 292 315 258 334 q 319 305 306 308 q 351 302 332 302 l 359 302 q 381 304 370 303 q 399 307 393 305 q 637 479 538 338 q 711 619 686 549 q 736 751 736 689 q 722 833 736 795 q 635 934 696 901 q 593 948 618 942 q 549 956 568 955 l 539 957 m 574 857 q 578 857 576 857 q 583 856 581 856 q 599 854 593 855 q 612 849 605 853 q 648 787 648 830 q 606 677 648 742 q 534 594 581 640 l 506 567 l 513 558 q 525 546 517 554 q 541 528 532 537 q 568 497 557 509 q 589 479 579 486 q 597 474 594 477 q 602 469 601 471 q 604 461 604 465 q 580 429 604 444 q 540 420 563 420 q 528 420 534 420 q 459 435 497 422 q 397 463 422 448 q 386 473 393 467 q 375 484 380 479 l 363 497 l 351 467 q 336 425 341 438 q 327 406 330 411 q 317 397 323 400 q 299 393 309 393 q 288 395 293 393 q 267 416 273 400 q 262 445 262 427 q 282 545 262 486 q 387 720 317 633 q 519 842 457 808 q 574 857 548 857 m 585 797 q 578 796 582 797 q 576 795 578 795 q 443 658 518 783 q 436 647 438 650 q 434 642 434 644 q 435 641 434 641 q 437 641 436 641 q 444 642 439 641 q 453 644 448 642 q 489 659 467 648 q 526 681 510 669 q 592 784 583 728 l 592 787 q 585 797 592 797 z "},"":{"ha":475,"x_min":129,"x_max":554,"o":"m 184 921 q 146 941 161 926 q 129 985 129 962 q 148 1030 129 1010 q 168 1044 156 1040 q 207 1051 179 1048 q 290 1055 234 1053 q 394 1058 351 1058 q 511 1049 475 1058 q 554 1012 554 1038 q 529 979 554 992 q 440 951 505 966 q 273 924 373 937 q 241 921 260 922 q 206 920 222 920 q 184 921 191 920 z "},"":{"ha":688,"x_min":144,"x_max":422,"o":"m 298 1075 q 325 1073 314 1075 q 349 1064 336 1070 q 402 1010 382 1048 q 422 928 422 972 q 420 909 422 919 q 367 802 414 841 q 292 758 326 767 q 270 754 283 755 q 250 752 258 752 q 244 753 246 752 q 239 754 243 753 q 231 755 235 755 q 149 838 171 770 q 146 849 147 844 q 145 862 145 854 q 144 884 144 870 q 148 927 144 911 q 162 964 151 943 q 193 1008 177 996 q 203 1020 201 1013 q 209 1029 205 1023 q 217 1040 213 1034 q 298 1075 250 1073 m 259 946 q 252 939 256 946 q 243 923 246 930 q 240 904 241 916 l 240 897 q 249 854 240 878 q 270 826 258 832 q 290 820 280 820 q 306 823 298 820 q 345 871 335 833 q 348 896 348 882 q 346 919 348 908 q 340 937 344 930 q 337 940 338 939 q 332 941 336 941 q 320 941 328 941 l 315 941 q 284 942 302 941 q 260 946 267 944 l 259 946 z "},"":{"ha":694,"x_min":62,"x_max":684,"o":"m 475 709 q 498 705 488 709 q 543 631 543 686 l 543 625 q 534 580 543 605 q 503 509 525 555 q 491 485 496 494 q 487 475 487 475 q 501 475 488 475 q 534 477 515 476 q 598 479 573 479 q 644 475 628 479 q 669 461 659 471 q 684 430 684 447 q 663 395 684 410 q 631 383 654 389 q 564 371 609 378 q 479 357 517 363 q 435 350 442 351 q 430 344 433 350 q 421 323 427 338 q 379 232 399 273 q 351 179 359 191 q 312 160 334 160 q 300 162 306 160 q 265 216 265 175 q 266 224 265 220 q 272 259 267 237 q 281 304 276 281 q 286 320 284 313 q 288 328 288 327 q 257 330 288 330 q 217 333 232 330 q 189 341 202 335 q 160 385 160 357 q 162 399 160 392 q 177 419 165 409 q 203 437 188 430 q 307 465 244 457 l 332 468 l 336 477 q 343 499 338 481 q 357 543 349 518 q 380 616 371 590 q 398 656 390 642 q 418 681 407 670 q 475 709 446 707 m 195 -2 q 185 -1 193 -1 q 167 1 177 0 q 77 30 96 9 q 62 60 62 44 q 85 98 62 82 q 174 121 104 110 q 233 124 199 124 q 283 122 259 124 q 300 121 290 121 q 338 119 319 119 q 479 96 444 113 q 504 60 504 81 q 503 54 504 57 q 475 25 499 36 q 395 7 450 14 q 309 0 365 3 q 219 -3 254 -3 q 195 -2 201 -3 z "},"":{"ha":408,"x_min":145,"x_max":486,"o":"m 187 663 q 149 688 155 671 q 145 704 145 696 q 180 743 145 729 q 195 750 188 745 q 215 765 202 754 q 310 863 273 810 q 328 889 318 874 q 344 916 337 904 q 352 929 351 928 q 351 930 352 930 q 333 923 348 930 q 295 906 317 917 q 269 893 281 899 q 252 885 257 887 q 231 880 241 880 q 214 885 221 880 q 201 911 201 894 l 201 916 q 243 984 204 947 q 358 1053 300 1039 q 394 1057 374 1057 q 422 1055 411 1057 q 478 1007 463 1042 q 486 969 486 989 q 459 886 486 931 q 341 764 422 823 l 332 758 l 346 756 q 383 737 374 751 q 386 726 386 732 q 382 711 386 718 q 349 687 375 699 q 287 667 323 675 q 264 664 277 665 q 229 663 252 663 l 187 663 z "},"":{"ha":408,"x_min":146,"x_max":450,"o":"m 223 646 q 168 664 190 649 q 146 699 146 680 l 146 701 q 150 712 146 705 q 156 723 153 719 q 168 732 160 728 q 194 741 176 736 q 243 753 211 745 q 284 766 269 760 q 314 783 299 772 l 329 793 l 323 795 q 307 796 321 795 q 275 796 292 796 q 249 796 258 796 q 235 797 240 796 q 228 798 231 798 q 222 801 225 799 q 197 835 197 812 q 199 846 197 840 q 228 878 202 864 q 275 909 251 892 q 314 940 300 926 l 321 947 l 297 948 q 259 953 276 949 q 233 960 241 956 q 217 987 217 970 q 222 1006 217 996 q 254 1035 231 1021 q 299 1054 276 1048 q 328 1056 311 1056 q 352 1055 340 1056 q 371 1052 363 1054 q 429 1004 417 1038 q 432 985 432 995 q 425 950 432 967 q 409 925 418 937 q 387 899 401 913 q 374 887 378 891 q 370 882 370 884 q 372 882 370 882 q 393 876 379 882 q 416 865 407 871 q 450 802 450 841 q 449 789 450 796 q 408 713 444 747 q 311 659 375 679 q 238 645 269 645 q 223 646 231 645 z "},"":{"ha":272,"x_min":145,"x_max":336,"o":"m 178 863 q 149 888 159 869 q 145 905 145 895 q 151 930 145 918 q 251 1027 172 979 q 319 1056 298 1056 q 326 1055 323 1056 q 336 1034 336 1049 q 318 978 336 1012 q 254 893 288 924 q 191 862 220 862 q 178 863 184 862 z "},"":{"ha":709,"x_min":115,"x_max":743,"o":"m 155 -1 q 115 67 115 9 q 116 81 115 74 q 234 621 125 231 q 348 949 292 826 q 355 963 351 955 q 360 977 358 971 q 401 1035 378 1027 q 421 1039 411 1039 q 475 1008 453 1039 q 481 991 479 1000 q 483 969 483 983 q 473 871 483 939 q 448 632 452 730 l 446 606 l 455 616 q 534 749 492 661 q 558 804 546 774 q 592 890 570 834 q 661 1027 636 1000 q 690 1040 672 1040 l 696 1040 q 743 977 743 1036 q 743 965 743 971 q 718 830 739 924 q 671 648 697 737 q 621 498 648 568 q 581 407 595 427 q 563 397 572 397 q 555 399 559 397 q 537 421 543 406 q 532 469 532 437 q 537 542 532 502 q 539 561 538 553 q 540 572 540 569 l 540 573 q 535 568 539 573 q 526 554 531 562 q 441 474 481 491 q 404 467 423 467 q 381 470 392 467 q 353 484 367 474 q 330 508 339 494 q 328 511 329 509 q 326 515 327 513 q 324 516 324 516 q 314 474 323 514 q 294 378 306 435 q 273 269 283 322 q 237 101 251 157 q 212 28 222 45 q 165 -3 192 -3 q 155 -1 159 -3 z "},"":{"ha":814,"x_min":145,"x_max":928,"o":"m 680 1046 l 684 1046 q 815 1034 751 1046 q 914 1002 880 1021 q 926 993 923 996 q 928 983 928 989 q 924 972 928 977 q 919 969 922 970 q 910 968 916 968 q 890 968 904 968 q 860 968 880 968 q 825 970 841 969 q 784 972 802 972 q 751 971 769 972 q 645 959 699 968 q 554 940 591 951 l 543 937 l 546 926 q 548 911 548 918 q 544 885 548 901 q 529 840 539 870 q 476 682 496 747 q 429 527 455 616 q 363 302 386 381 q 351 260 358 283 q 328 182 338 216 q 311 125 320 157 q 296 72 302 94 q 276 3 283 26 q 262 -29 269 -19 q 238 -49 251 -49 q 227 -45 233 -49 q 218 -27 220 -41 q 216 21 216 -14 q 216 56 216 39 q 218 82 217 73 q 238 240 231 184 q 255 344 246 296 q 279 471 263 392 q 280 476 279 473 q 291 532 287 509 q 296 555 296 555 q 294 556 296 556 q 286 555 292 556 q 256 551 271 551 q 179 583 212 551 q 149 637 156 605 q 146 652 146 646 q 145 668 145 658 l 145 681 q 152 730 146 707 q 172 779 158 752 q 190 810 178 791 q 213 842 203 829 q 243 874 224 855 q 278 907 262 894 q 631 1044 418 1020 q 680 1046 654 1046 m 739 946 l 741 946 q 791 913 773 946 q 795 886 795 903 q 772 777 795 848 q 751 720 766 761 q 732 669 742 696 q 592 257 652 455 q 557 147 578 212 q 518 28 536 82 q 495 -37 500 -25 q 463 -67 483 -67 q 456 -66 460 -67 q 449 -64 452 -65 q 438 -52 442 -60 q 435 -44 436 -47 q 434 -32 434 -40 q 433 -7 433 -24 q 435 28 433 14 q 439 64 436 43 q 467 232 450 152 q 519 454 484 312 q 580 679 549 572 q 629 831 611 786 q 703 935 662 908 q 739 946 722 945 z "},"":{"ha":272,"x_min":147,"x_max":283,"o":"m 198 408 q 153 445 168 416 q 149 453 151 450 q 148 461 148 456 q 147 475 147 466 q 148 488 147 484 q 149 497 148 493 q 153 505 151 500 q 187 538 164 527 q 199 543 194 542 q 216 544 205 544 q 232 543 227 544 q 244 538 237 542 q 279 505 267 527 q 282 497 281 500 q 283 488 283 493 q 283 475 283 484 q 283 457 283 462 q 279 445 282 452 q 252 416 269 427 q 216 405 235 405 q 198 408 207 405 z "},"":{"ha":308,"x_min":-36,"x_max":308,"o":"m 85 -251 q 1 -201 37 -239 q -36 -125 -36 -161 q -22 -81 -36 -102 q 5 -69 -11 -69 q 25 -73 15 -69 q 70 -84 35 -78 q 111 -91 94 -87 q 119 -92 117 -92 q 138 -94 131 -94 l 142 -94 q 165 -86 152 -93 q 187 -72 179 -79 q 197 -57 197 -63 q 168 -45 197 -45 l 159 -45 q 145 -48 152 -46 q 127 -55 139 -50 q 111 -62 117 -60 q 100 -64 105 -64 q 53 -21 64 -64 q 52 -16 52 -19 q 59 15 52 -4 q 78 47 66 33 q 94 66 84 55 q 114 86 104 77 q 129 98 124 95 q 143 100 136 100 q 156 97 151 100 q 165 87 162 93 q 168 69 168 81 q 167 57 168 64 l 166 33 l 184 31 q 296 -39 265 26 q 308 -92 308 -60 q 258 -197 308 -151 q 167 -248 218 -234 q 144 -252 158 -251 q 115 -253 130 -253 q 85 -251 97 -253 z "},"":{"ha":270,"x_min":148,"x_max":336,"o":"m 172 681 q 161 689 166 684 q 152 703 155 695 q 148 729 148 712 q 163 811 148 764 q 179 851 169 829 q 208 911 189 873 l 229 955 l 222 958 q 210 967 215 961 q 202 982 204 974 q 201 988 201 985 q 210 1015 201 1002 q 233 1034 218 1023 q 257 1049 248 1045 q 288 1056 273 1056 q 321 1045 307 1056 q 333 1031 330 1038 q 336 1010 336 1024 q 330 974 336 996 q 307 899 324 951 q 269 790 283 827 q 241 729 254 753 q 223 700 231 710 q 207 684 215 690 q 198 680 201 681 q 188 679 195 679 q 179 680 183 679 q 172 681 174 680 z "},"":{"ha":358,"x_min":144,"x_max":464,"o":"m 349 1056 q 458 976 431 1052 q 464 926 464 954 q 458 869 464 899 q 386 726 439 791 q 274 644 333 661 q 247 640 260 640 q 226 642 236 640 q 159 697 180 656 q 144 768 144 729 q 155 841 144 804 q 207 936 172 887 q 271 1000 243 985 l 282 1005 l 282 1016 q 339 1056 282 1051 l 349 1056 m 315 971 q 306 956 314 971 q 289 921 298 941 q 273 884 279 901 q 239 755 239 795 q 245 732 239 738 q 251 730 248 730 q 259 732 254 730 q 313 779 286 743 q 352 856 340 815 q 358 904 358 884 q 357 915 358 910 q 349 934 356 923 q 337 949 345 941 q 323 964 330 958 q 315 971 317 971 z "},"":{"ha":677,"x_min":165,"x_max":614,"o":"m 239 577 l 241 577 q 307 552 272 577 q 353 508 327 536 q 394 458 379 480 q 427 350 427 406 q 404 261 427 302 q 386 235 396 247 q 360 207 376 222 q 246 125 319 167 q 189 102 209 102 q 178 104 183 102 q 165 123 165 109 q 169 142 165 132 q 176 154 171 146 q 188 170 182 162 q 215 209 204 192 q 242 255 227 227 q 279 334 279 321 q 230 404 279 352 q 192 449 205 431 q 174 483 180 467 q 171 494 172 490 q 170 504 170 499 l 170 510 q 231 576 176 565 q 239 577 235 577 m 446 555 q 484 543 458 555 q 517 521 503 534 q 559 473 532 507 q 611 376 602 420 q 613 361 612 371 q 614 342 614 351 q 551 198 614 273 q 515 157 535 178 q 480 125 494 136 q 448 105 466 115 q 416 91 430 96 q 391 87 404 87 q 370 91 378 87 q 345 125 349 101 l 345 129 q 370 189 345 149 q 391 220 379 206 q 428 260 403 234 q 503 356 495 328 q 505 368 505 362 q 504 377 505 372 q 467 457 496 416 q 439 496 448 483 q 426 516 429 510 q 423 528 423 523 l 423 532 q 441 554 425 549 q 444 555 442 554 q 446 555 445 555 z "},"":{"ha":745,"x_min":100,"x_max":678,"o":"m 239 576 q 224 586 232 578 q 212 602 217 593 q 201 664 203 623 l 201 677 q 253 873 201 759 l 261 893 l 256 898 q 248 911 248 903 q 254 929 248 919 q 263 943 257 936 q 283 965 269 951 q 319 996 306 987 q 344 1004 332 1004 q 354 1003 349 1004 q 394 970 384 998 q 398 939 398 959 q 382 836 398 903 q 321 646 353 711 q 253 574 288 574 q 239 576 246 574 m 115 34 q 104 47 107 39 q 100 68 100 55 q 123 168 100 109 q 166 275 141 220 q 241 423 192 330 q 348 619 302 541 q 450 783 393 697 q 540 910 507 870 q 598 961 573 949 q 610 966 606 965 q 624 967 615 967 q 637 966 633 967 q 648 962 642 965 q 678 912 678 946 q 658 845 678 884 q 584 722 633 800 q 555 676 572 702 q 527 630 539 650 q 441 493 486 565 q 363 370 396 421 q 330 318 351 351 q 291 255 310 286 q 262 207 275 228 q 233 161 249 185 q 224 146 229 155 q 196 102 210 125 q 157 45 170 60 q 132 31 143 31 l 127 31 q 121 31 123 31 q 115 34 118 32 m 493 -56 q 462 -27 473 -50 q 451 33 451 -3 q 452 59 451 45 q 454 77 454 73 l 454 79 q 449 76 453 79 q 438 71 444 74 q 413 58 423 62 q 390 55 403 55 q 376 56 381 55 q 366 60 372 57 q 329 138 329 77 l 329 141 q 353 253 329 194 q 376 303 361 275 q 399 345 390 331 q 421 372 408 359 q 444 389 434 385 q 467 395 456 395 q 507 368 492 395 q 512 348 512 359 q 469 252 512 317 q 414 138 425 179 q 414 133 414 135 q 414 131 414 131 q 425 136 416 131 q 445 147 434 140 q 464 160 455 154 q 475 170 473 167 q 479 177 477 171 q 485 191 481 183 q 517 258 497 222 q 555 319 536 294 q 615 363 587 363 q 634 359 625 363 q 659 319 659 347 q 644 246 659 306 q 610 125 629 186 q 572 23 593 71 q 534 -43 550 -24 q 503 -58 520 -58 q 493 -56 498 -58 z "},"":{"ha":715,"x_min":103,"x_max":747,"o":"m 252 603 q 241 612 246 606 q 233 625 235 618 q 229 663 229 638 q 234 724 229 692 q 251 808 241 765 q 272 880 262 852 q 275 887 275 884 q 274 890 275 888 q 271 894 273 891 q 266 911 266 901 q 271 931 266 921 q 345 985 307 985 q 385 966 366 985 q 401 930 399 951 q 401 921 401 926 q 399 897 401 911 q 389 858 396 882 q 321 675 367 767 q 289 617 301 633 q 265 602 277 602 l 261 602 q 252 603 256 602 m 113 -28 q 103 -8 103 -23 q 129 73 103 14 q 215 251 155 132 q 269 357 246 313 q 332 475 292 401 q 513 793 447 690 q 621 928 578 896 q 692 958 661 958 q 734 939 718 958 q 747 907 747 926 q 724 838 747 880 q 699 795 713 817 q 659 736 686 774 q 581 631 632 699 q 464 472 515 543 q 346 302 414 401 q 157 2 229 131 q 144 -19 149 -12 q 136 -28 140 -26 q 127 -31 132 -31 l 123 -31 q 113 -28 117 -31 m 300 -41 q 273 -11 279 -34 q 271 -3 271 -7 q 273 7 271 1 q 300 37 279 27 q 394 112 339 57 q 494 231 448 166 q 503 245 499 239 q 507 251 507 251 l 506 251 q 490 247 504 251 q 461 236 477 242 q 435 225 446 230 q 402 216 414 216 q 390 218 395 216 q 367 253 367 229 q 383 298 367 273 q 406 326 391 311 q 435 352 421 341 q 487 380 456 366 q 541 398 517 393 q 558 399 549 399 q 591 395 575 399 q 644 345 627 382 q 650 306 650 327 q 648 281 650 292 q 543 125 636 222 q 520 102 532 114 q 498 81 507 90 q 484 67 490 73 q 477 62 477 62 q 490 60 479 61 q 503 59 496 60 q 585 17 580 54 l 585 13 q 564 -19 585 -5 q 444 -43 531 -35 q 377 -44 416 -44 q 327 -43 350 -44 q 300 -41 304 -43 z "},"":{"ha":786,"x_min":100,"x_max":723,"o":"m 119 -12 q 113 -8 116 -10 q 109 -5 111 -6 q 103 6 106 -1 q 100 18 100 14 q 124 89 100 38 q 205 246 147 140 q 266 358 240 311 q 342 501 291 405 q 359 533 351 516 q 414 635 394 598 q 450 701 434 672 q 487 772 465 730 q 547 884 527 848 q 583 942 568 920 q 630 988 609 977 q 642 993 637 992 q 659 994 647 994 q 675 993 670 994 q 686 989 680 992 q 706 974 697 983 q 720 953 715 964 q 722 944 722 948 q 723 933 723 939 l 723 925 q 723 924 723 924 q 639 749 723 875 q 521 568 571 646 q 382 348 471 490 q 315 239 343 285 q 258 144 287 193 q 209 64 227 93 q 180 21 191 35 q 161 -1 170 7 q 133 -15 146 -15 q 119 -12 126 -15 m 193 545 q 139 559 163 548 q 107 586 115 571 q 104 600 104 593 q 117 623 104 614 q 127 626 119 625 q 145 628 135 627 q 165 630 155 629 q 180 633 175 631 q 222 648 198 637 q 267 671 246 659 q 294 692 287 684 q 297 699 297 696 q 292 705 297 703 q 256 708 283 708 q 214 707 237 708 q 196 705 202 705 q 189 706 191 705 q 182 709 186 707 q 156 751 156 724 l 156 755 q 161 774 157 766 q 176 790 165 782 q 200 810 184 796 q 233 841 216 825 q 263 870 250 857 q 275 884 275 883 q 274 885 275 885 q 260 881 271 885 q 238 872 250 878 q 217 862 226 867 q 195 853 203 853 q 185 857 190 853 q 172 880 172 866 q 175 894 172 887 q 214 941 185 918 q 281 979 243 964 q 294 983 289 981 q 305 984 299 984 q 322 985 311 985 q 339 984 334 985 q 348 983 345 984 q 357 979 352 982 q 375 965 367 974 q 388 947 384 957 q 393 920 393 935 q 391 904 393 911 q 381 877 389 893 q 363 848 373 861 q 352 834 359 843 q 336 817 344 825 q 325 804 328 808 q 321 798 321 800 q 323 796 321 797 q 345 786 333 793 q 365 772 356 779 q 399 696 399 738 q 378 633 399 665 q 305 569 351 593 q 210 545 259 545 q 193 545 201 545 m 501 -41 q 468 23 468 -23 q 481 90 468 52 q 489 109 483 96 q 501 135 494 121 q 511 155 507 148 q 507 153 510 155 q 498 149 503 151 q 453 136 474 136 q 430 140 441 136 q 372 205 387 154 q 370 234 370 218 q 372 262 370 250 q 413 332 382 301 q 467 363 443 363 q 474 363 471 363 q 496 344 490 359 q 498 317 498 335 q 496 287 498 303 q 496 283 496 286 q 495 270 496 277 q 494 258 494 263 l 494 243 l 506 248 q 610 342 563 278 q 625 361 619 355 q 635 369 630 366 q 654 373 644 373 q 683 362 669 373 q 694 349 691 356 q 698 328 698 341 l 698 323 q 692 281 698 304 q 667 203 686 258 q 608 42 630 91 q 562 -28 585 -7 q 545 -41 553 -37 q 525 -44 538 -44 l 517 -44 q 509 -43 512 -44 q 501 -41 505 -43 z "},"":{"ha":747,"x_min":132,"x_max":699,"o":"m 674 914 q 627 895 651 895 q 587 907 606 895 q 555 943 568 920 q 551 966 551 953 q 556 994 551 981 q 603 1038 570 1027 q 628 1042 615 1042 q 646 1040 638 1042 q 698 980 689 1023 q 699 969 699 975 q 674 914 699 939 m 248 1 q 221 4 233 1 q 136 87 155 20 q 132 122 132 101 q 136 165 132 145 q 174 270 146 212 q 255 418 201 328 q 463 726 319 522 q 493 768 482 753 q 513 788 505 782 q 533 798 522 794 q 550 801 540 800 q 570 802 560 802 q 581 802 576 802 q 621 779 604 795 q 642 727 642 755 q 621 669 642 698 q 612 661 618 666 q 600 652 606 656 q 450 505 538 610 q 296 283 361 398 q 235 130 235 170 q 240 116 235 119 q 245 115 242 115 q 295 134 260 115 q 366 182 330 154 q 418 231 387 200 q 468 284 449 262 q 522 366 503 328 q 526 374 524 370 l 534 392 q 540 400 536 395 q 548 410 544 405 q 605 434 574 434 q 642 425 623 434 q 675 395 663 415 q 688 353 688 375 q 687 345 688 349 q 624 227 682 300 q 474 96 574 162 q 300 8 370 27 q 248 1 274 1 z "},"":{"ha":937,"x_min":0,"x_max":1028,"o":"m 770 1200 q 740 1214 760 1204 q 703 1234 719 1225 q 654 1311 654 1267 q 654 1322 654 1318 q 658 1332 655 1326 q 696 1355 669 1355 q 799 1274 744 1355 q 822 1224 822 1241 q 818 1211 822 1217 q 813 1206 817 1208 q 808 1202 810 1203 q 787 1199 800 1199 q 770 1200 779 1199 m 748 1055 q 776 1053 764 1055 q 841 1002 819 1042 q 864 900 864 963 q 862 862 864 882 q 836 722 857 804 q 763 489 814 641 q 665 170 694 287 q 630 -30 635 54 q 629 -55 629 -43 q 630 -85 629 -72 q 633 -100 631 -98 q 635 -100 634 -100 q 658 -90 641 -100 q 692 -64 675 -79 q 832 120 758 -8 q 868 189 848 149 q 924 302 888 229 q 956 371 943 345 q 977 411 969 397 q 989 431 984 425 q 998 439 994 437 q 1008 443 1004 443 q 1022 435 1017 443 q 1028 416 1028 428 q 1003 328 1028 397 q 940 178 977 259 q 868 35 909 111 q 684 -217 758 -174 q 607 -240 646 -240 q 593 -239 600 -240 q 508 -186 541 -232 q 493 -162 498 -173 q 482 -133 488 -151 q 469 -31 469 -90 q 484 119 469 34 q 545 353 503 215 q 553 379 550 368 q 556 390 556 389 q 555 391 556 391 q 551 390 553 391 q 534 387 547 389 q 495 380 522 385 q 489 379 492 380 q 389 365 427 370 q 321 357 351 359 q 298 355 307 355 q 288 353 288 354 q 281 335 288 352 q 266 295 275 317 q 251 253 258 272 q 218 157 230 192 q 197 102 205 123 q 178 56 189 82 q 169 35 173 44 q 151 -8 158 7 q 140 -31 144 -23 q 130 -44 135 -39 q 97 -60 114 -60 q 67 -47 81 -60 q 45 -9 53 -34 q 43 2 43 -3 q 42 18 42 8 q 41 47 41 28 q 42 88 41 75 q 45 116 43 101 q 117 333 58 200 q 121 344 119 340 q 123 349 123 349 q 114 350 123 349 q 89 351 104 350 q 0 384 0 352 l 0 387 q 176 485 4 433 l 191 490 l 197 503 q 399 808 300 694 q 718 1052 581 1011 q 747 1055 732 1055 q 748 1055 747 1055 m 725 958 q 677 941 709 958 q 444 677 567 878 q 409 616 427 650 q 376 553 390 581 q 361 522 361 525 l 366 522 q 390 523 373 522 q 396 523 393 523 q 435 525 411 524 q 480 525 459 525 q 541 523 519 525 q 583 516 564 521 q 594 514 591 514 q 597 515 596 514 q 604 534 597 516 q 618 577 610 551 q 675 746 654 682 q 708 845 696 810 q 724 898 719 880 q 730 931 728 917 q 733 951 733 946 q 731 957 733 956 q 725 958 729 958 z "},"":{"ha":937,"x_min":0,"x_max":1028,"o":"m 806 1193 q 781 1213 790 1198 q 778 1229 778 1220 q 783 1249 778 1239 q 867 1331 801 1290 q 924 1355 907 1355 q 930 1354 928 1355 q 939 1337 939 1349 q 923 1289 939 1318 q 869 1217 898 1243 q 816 1192 841 1192 q 806 1193 811 1192 m 748 1055 q 776 1053 764 1055 q 841 1002 819 1042 q 864 900 864 963 q 862 862 864 882 q 836 722 857 804 q 763 489 814 641 q 665 170 694 287 q 630 -30 635 54 q 629 -55 629 -43 q 630 -85 629 -72 q 633 -100 631 -98 q 635 -100 634 -100 q 658 -90 641 -100 q 692 -64 675 -79 q 832 120 758 -8 q 868 189 848 149 q 924 302 888 229 q 956 371 943 345 q 977 411 969 397 q 989 431 984 425 q 998 439 994 437 q 1008 443 1004 443 q 1022 435 1017 443 q 1028 416 1028 428 q 1003 328 1028 397 q 940 178 977 259 q 868 35 909 111 q 684 -217 758 -174 q 607 -240 646 -240 q 593 -239 600 -240 q 508 -186 541 -232 q 493 -162 498 -173 q 482 -133 488 -151 q 469 -31 469 -90 q 484 119 469 34 q 545 353 503 215 q 553 379 550 368 q 556 390 556 389 q 555 391 556 391 q 551 390 553 391 q 534 387 547 389 q 495 380 522 385 q 489 379 492 380 q 389 365 427 370 q 321 357 351 359 q 298 355 307 355 q 288 353 288 354 q 281 335 288 352 q 266 295 275 317 q 251 253 258 272 q 218 157 230 192 q 197 102 205 123 q 178 56 189 82 q 169 35 173 44 q 151 -8 158 7 q 140 -31 144 -23 q 130 -44 135 -39 q 97 -60 114 -60 q 67 -47 81 -60 q 45 -9 53 -34 q 43 2 43 -3 q 42 18 42 8 q 41 47 41 28 q 42 88 41 75 q 45 116 43 101 q 117 333 58 200 q 121 344 119 340 q 123 349 123 349 q 114 350 123 349 q 89 351 104 350 q 0 384 0 352 l 0 387 q 176 485 4 433 l 191 490 l 197 503 q 399 808 300 694 q 718 1052 581 1011 q 747 1055 732 1055 q 748 1055 747 1055 m 725 958 q 677 941 709 958 q 444 677 567 878 q 409 616 427 650 q 376 553 390 581 q 361 522 361 525 l 366 522 q 390 523 373 522 q 396 523 393 523 q 435 525 411 524 q 480 525 459 525 q 541 523 519 525 q 583 516 564 521 q 594 514 591 514 q 597 515 596 514 q 604 534 597 516 q 618 577 610 551 q 675 746 654 682 q 708 845 696 810 q 724 898 719 880 q 730 931 728 917 q 733 951 733 946 q 731 957 733 956 q 725 958 729 958 z "},"":{"ha":937,"x_min":0,"x_max":1028,"o":"m 728 1176 q 695 1206 705 1184 q 692 1216 692 1212 q 691 1229 691 1220 q 701 1263 691 1247 q 741 1310 711 1280 q 807 1367 772 1340 q 867 1405 841 1393 q 888 1411 878 1411 q 924 1385 909 1411 q 941 1355 932 1373 q 954 1326 950 1337 q 961 1295 960 1309 q 963 1257 963 1282 q 961 1218 963 1231 q 954 1198 959 1206 q 931 1185 945 1185 q 921 1186 926 1185 q 890 1212 907 1191 q 862 1261 873 1234 q 858 1271 860 1267 q 856 1275 857 1275 q 854 1272 856 1274 q 849 1265 852 1269 q 843 1257 846 1261 q 809 1214 827 1235 q 783 1186 791 1192 q 766 1177 774 1179 q 748 1173 758 1174 q 736 1174 741 1173 q 728 1176 732 1175 m 748 1055 q 776 1053 764 1055 q 841 1002 819 1042 q 864 900 864 963 q 862 862 864 882 q 836 722 857 804 q 763 489 814 641 q 665 170 694 287 q 630 -30 635 54 q 629 -55 629 -43 q 630 -85 629 -72 q 633 -100 631 -98 q 635 -100 634 -100 q 658 -90 641 -100 q 692 -64 675 -79 q 832 120 758 -8 q 868 189 848 149 q 924 302 888 229 q 956 371 943 345 q 977 411 969 397 q 989 431 984 425 q 998 439 994 437 q 1008 443 1004 443 q 1022 435 1017 443 q 1028 416 1028 428 q 1003 328 1028 397 q 940 178 977 259 q 868 35 909 111 q 684 -217 758 -174 q 607 -240 646 -240 q 593 -239 600 -240 q 508 -186 541 -232 q 493 -162 498 -173 q 482 -133 488 -151 q 469 -31 469 -90 q 484 119 469 34 q 545 353 503 215 q 553 379 550 368 q 556 390 556 389 q 555 391 556 391 q 551 390 553 391 q 534 387 547 389 q 495 380 522 385 q 489 379 492 380 q 389 365 427 370 q 321 357 351 359 q 298 355 307 355 q 288 353 288 354 q 281 335 288 352 q 266 295 275 317 q 251 253 258 272 q 218 157 230 192 q 197 102 205 123 q 178 56 189 82 q 169 35 173 44 q 151 -8 158 7 q 140 -31 144 -23 q 130 -44 135 -39 q 97 -60 114 -60 q 67 -47 81 -60 q 45 -9 53 -34 q 43 2 43 -3 q 42 18 42 8 q 41 47 41 28 q 42 88 41 75 q 45 116 43 101 q 117 333 58 200 q 121 344 119 340 q 123 349 123 349 q 114 350 123 349 q 89 351 104 350 q 0 384 0 352 l 0 387 q 176 485 4 433 l 191 490 l 197 503 q 399 808 300 694 q 718 1052 581 1011 q 747 1055 732 1055 q 748 1055 747 1055 m 725 958 q 677 941 709 958 q 444 677 567 878 q 409 616 427 650 q 376 553 390 581 q 361 522 361 525 l 366 522 q 390 523 373 522 q 396 523 393 523 q 435 525 411 524 q 480 525 459 525 q 541 523 519 525 q 583 516 564 521 q 594 514 591 514 q 597 515 596 514 q 604 534 597 516 q 618 577 610 551 q 675 746 654 682 q 708 845 696 810 q 724 898 719 880 q 730 931 728 917 q 733 951 733 946 q 731 957 733 956 q 725 958 729 958 z "},"":{"ha":937,"x_min":0,"x_max":1037,"o":"m 861 1152 q 781 1242 803 1166 l 776 1260 l 757 1240 q 699 1192 730 1211 q 677 1184 687 1184 q 656 1195 665 1184 q 653 1211 653 1201 q 656 1227 653 1219 q 669 1254 661 1240 q 684 1278 677 1269 q 717 1311 697 1295 q 753 1334 736 1326 q 799 1343 778 1343 q 815 1341 808 1343 q 854 1313 831 1337 q 876 1292 868 1299 q 892 1282 884 1285 q 904 1278 899 1278 q 913 1280 908 1278 q 928 1287 919 1282 q 972 1315 947 1297 q 1010 1345 998 1333 q 1026 1354 1020 1354 q 1034 1350 1030 1354 q 1037 1341 1037 1348 q 1034 1321 1037 1334 q 958 1176 1014 1227 q 884 1149 922 1149 q 861 1152 872 1149 m 748 1055 q 776 1053 764 1055 q 841 1002 819 1042 q 864 900 864 963 q 862 862 864 882 q 836 722 857 804 q 763 489 814 641 q 665 170 694 287 q 630 -30 635 54 q 629 -55 629 -43 q 630 -85 629 -72 q 633 -100 631 -98 q 635 -100 634 -100 q 658 -90 641 -100 q 692 -64 675 -79 q 832 120 758 -8 q 868 189 848 149 q 924 302 888 229 q 956 371 943 345 q 977 411 969 397 q 989 431 984 425 q 998 439 994 437 q 1008 443 1004 443 q 1022 435 1017 443 q 1028 416 1028 428 q 1003 328 1028 397 q 940 178 977 259 q 868 35 909 111 q 684 -217 758 -174 q 607 -240 646 -240 q 593 -239 600 -240 q 508 -186 541 -232 q 493 -162 498 -173 q 482 -133 488 -151 q 469 -31 469 -90 q 484 119 469 34 q 545 353 503 215 q 553 379 550 368 q 556 390 556 389 q 555 391 556 391 q 551 390 553 391 q 534 387 547 389 q 495 380 522 385 q 489 379 492 380 q 389 365 427 370 q 321 357 351 359 q 298 355 307 355 q 288 353 288 354 q 281 335 288 352 q 266 295 275 317 q 251 253 258 272 q 218 157 230 192 q 197 102 205 123 q 178 56 189 82 q 169 35 173 44 q 151 -8 158 7 q 140 -31 144 -23 q 130 -44 135 -39 q 97 -60 114 -60 q 67 -47 81 -60 q 45 -9 53 -34 q 43 2 43 -3 q 42 18 42 8 q 41 47 41 28 q 42 88 41 75 q 45 116 43 101 q 117 333 58 200 q 121 344 119 340 q 123 349 123 349 q 114 350 123 349 q 89 351 104 350 q 0 384 0 352 l 0 387 q 176 485 4 433 l 191 490 l 197 503 q 399 808 300 694 q 718 1052 581 1011 q 747 1055 732 1055 q 748 1055 747 1055 m 725 958 q 677 941 709 958 q 444 677 567 878 q 409 616 427 650 q 376 553 390 581 q 361 522 361 525 l 366 522 q 390 523 373 522 q 396 523 393 523 q 435 525 411 524 q 480 525 459 525 q 541 523 519 525 q 583 516 564 521 q 594 514 591 514 q 597 515 596 514 q 604 534 597 516 q 618 577 610 551 q 675 746 654 682 q 708 845 696 810 q 724 898 719 880 q 730 931 728 917 q 733 951 733 946 q 731 957 733 956 q 725 958 729 958 z "},"":{"ha":937,"x_min":0,"x_max":1028,"o":"m 913 1232 q 907 1234 909 1234 q 904 1234 905 1234 q 902 1236 904 1235 q 897 1239 901 1237 q 894 1241 896 1240 q 873 1264 880 1251 q 866 1293 866 1278 q 875 1325 866 1310 q 901 1349 884 1340 q 910 1353 907 1352 q 917 1354 913 1354 q 928 1354 921 1354 q 940 1354 936 1354 q 947 1353 944 1354 q 956 1349 950 1352 q 991 1297 989 1332 l 991 1294 q 950 1234 991 1253 q 928 1231 939 1231 q 913 1232 920 1231 m 783 1232 q 746 1263 758 1239 q 743 1284 743 1272 q 746 1305 743 1296 q 795 1337 765 1337 l 800 1337 q 835 1318 822 1334 q 848 1283 848 1302 q 832 1246 848 1263 q 795 1231 815 1231 q 783 1232 789 1231 m 748 1055 q 776 1053 764 1055 q 841 1002 819 1042 q 864 900 864 963 q 862 862 864 882 q 836 722 857 804 q 763 489 814 641 q 665 170 694 287 q 630 -30 635 54 q 629 -55 629 -43 q 630 -85 629 -72 q 633 -100 631 -98 q 635 -100 634 -100 q 658 -90 641 -100 q 692 -64 675 -79 q 832 120 758 -8 q 868 189 848 149 q 924 302 888 229 q 956 371 943 345 q 977 411 969 397 q 989 431 984 425 q 998 439 994 437 q 1008 443 1004 443 q 1022 435 1017 443 q 1028 416 1028 428 q 1003 328 1028 397 q 940 178 977 259 q 868 35 909 111 q 684 -217 758 -174 q 607 -240 646 -240 q 593 -239 600 -240 q 508 -186 541 -232 q 493 -162 498 -173 q 482 -133 488 -151 q 469 -31 469 -90 q 484 119 469 34 q 545 353 503 215 q 553 379 550 368 q 556 390 556 389 q 555 391 556 391 q 551 390 553 391 q 534 387 547 389 q 495 380 522 385 q 489 379 492 380 q 389 365 427 370 q 321 357 351 359 q 298 355 307 355 q 288 353 288 354 q 281 335 288 352 q 266 295 275 317 q 251 253 258 272 q 218 157 230 192 q 197 102 205 123 q 178 56 189 82 q 169 35 173 44 q 151 -8 158 7 q 140 -31 144 -23 q 130 -44 135 -39 q 97 -60 114 -60 q 67 -47 81 -60 q 45 -9 53 -34 q 43 2 43 -3 q 42 18 42 8 q 41 47 41 28 q 42 88 41 75 q 45 116 43 101 q 117 333 58 200 q 121 344 119 340 q 123 349 123 349 q 114 350 123 349 q 89 351 104 350 q 0 384 0 352 l 0 387 q 176 485 4 433 l 191 490 l 197 503 q 399 808 300 694 q 718 1052 581 1011 q 747 1055 732 1055 q 748 1055 747 1055 m 725 958 q 677 941 709 958 q 444 677 567 878 q 409 616 427 650 q 376 553 390 581 q 361 522 361 525 l 366 522 q 390 523 373 522 q 396 523 393 523 q 435 525 411 524 q 480 525 459 525 q 541 523 519 525 q 583 516 564 521 q 594 514 591 514 q 597 515 596 514 q 604 534 597 516 q 618 577 610 551 q 675 746 654 682 q 708 845 696 810 q 724 898 719 880 q 730 931 728 917 q 733 951 733 946 q 731 957 733 956 q 725 958 729 958 z "},"":{"ha":937,"x_min":0,"x_max":1028,"o":"m 874 1354 l 880 1354 q 916 1341 899 1354 q 944 1282 944 1318 q 942 1263 944 1273 q 908 1197 934 1226 q 848 1159 882 1168 q 825 1157 838 1157 q 802 1159 812 1157 q 769 1175 785 1164 q 747 1200 754 1186 q 736 1243 736 1217 q 795 1335 736 1305 q 874 1354 825 1352 m 838 1310 l 831 1303 q 808 1250 808 1274 q 816 1226 808 1236 q 826 1218 820 1222 q 836 1214 833 1214 q 840 1215 838 1214 q 844 1217 842 1215 q 863 1238 857 1222 q 867 1251 867 1245 q 858 1275 867 1261 q 851 1287 854 1280 q 844 1299 847 1294 l 838 1310 m 748 1055 q 776 1053 764 1055 q 841 1002 819 1042 q 864 900 864 963 q 862 862 864 882 q 836 722 857 804 q 763 489 814 641 q 665 170 694 287 q 630 -30 635 54 q 629 -55 629 -43 q 630 -85 629 -72 q 633 -100 631 -98 q 635 -100 634 -100 q 658 -90 641 -100 q 692 -64 675 -79 q 832 120 758 -8 q 868 189 848 149 q 924 302 888 229 q 956 371 943 345 q 977 411 969 397 q 989 431 984 425 q 998 439 994 437 q 1008 443 1004 443 q 1022 435 1017 443 q 1028 416 1028 428 q 1003 328 1028 397 q 940 178 977 259 q 868 35 909 111 q 684 -217 758 -174 q 607 -240 646 -240 q 593 -239 600 -240 q 508 -186 541 -232 q 493 -162 498 -173 q 482 -133 488 -151 q 469 -31 469 -90 q 484 119 469 34 q 545 353 503 215 q 553 379 550 368 q 556 390 556 389 q 555 391 556 391 q 551 390 553 391 q 534 387 547 389 q 495 380 522 385 q 489 379 492 380 q 389 365 427 370 q 321 357 351 359 q 298 355 307 355 q 288 353 288 354 q 281 335 288 352 q 266 295 275 317 q 251 253 258 272 q 218 157 230 192 q 197 102 205 123 q 178 56 189 82 q 169 35 173 44 q 151 -8 158 7 q 140 -31 144 -23 q 130 -44 135 -39 q 97 -60 114 -60 q 67 -47 81 -60 q 45 -9 53 -34 q 43 2 43 -3 q 42 18 42 8 q 41 47 41 28 q 42 88 41 75 q 45 116 43 101 q 117 333 58 200 q 121 344 119 340 q 123 349 123 349 q 114 350 123 349 q 89 351 104 350 q 0 384 0 352 l 0 387 q 176 485 4 433 l 191 490 l 197 503 q 399 808 300 694 q 718 1052 581 1011 q 747 1055 732 1055 q 748 1055 747 1055 m 725 958 q 677 941 709 958 q 444 677 567 878 q 409 616 427 650 q 376 553 390 581 q 361 522 361 525 l 366 522 q 390 523 373 522 q 396 523 393 523 q 435 525 411 524 q 480 525 459 525 q 541 523 519 525 q 583 516 564 521 q 594 514 591 514 q 597 515 596 514 q 604 534 597 516 q 618 577 610 551 q 675 746 654 682 q 708 845 696 810 q 724 898 719 880 q 730 931 728 917 q 733 951 733 946 q 731 957 733 956 q 725 958 729 958 z "},"":{"ha":1603,"x_min":-1,"x_max":1713,"o":"m 599 -81 q 566 -74 584 -81 q 500 -13 527 -60 q 481 71 481 20 q 484 119 481 93 q 545 353 502 215 q 553 379 550 368 q 556 390 556 389 q 555 391 556 391 q 551 390 553 391 q 533 386 547 389 q 489 379 519 384 q 389 365 427 370 q 321 357 351 359 q 298 355 307 356 q 288 353 288 354 q 280 335 287 352 q 266 294 274 317 q 251 253 258 271 q 218 157 230 192 q 197 102 205 123 q 183 69 191 88 q 169 35 175 50 q 151 -8 158 7 q 140 -31 144 -23 q 130 -44 135 -39 q 97 -60 113 -60 q 74 -54 90 -60 q 45 -9 58 -47 q 42 2 43 -3 q 41 18 41 8 q 41 47 41 28 q 42 88 41 75 q 45 116 43 101 q 117 333 58 200 q 121 345 119 340 l 123 348 l 123 349 q 114 350 123 349 q 89 351 104 350 q -1 382 -1 353 q 0 387 -1 385 q 176 485 4 433 l 191 490 l 197 503 q 399 808 299 694 q 718 1052 581 1011 q 748 1055 732 1055 q 776 1053 764 1055 q 863 899 863 1028 l 863 897 q 878 907 871 902 q 1251 1044 1055 1027 q 1280 1045 1265 1045 q 1457 998 1388 1043 q 1544 827 1544 937 l 1544 817 q 1529 737 1543 779 q 1455 620 1506 661 q 1423 600 1442 609 q 1392 589 1404 591 l 1388 589 q 1329 647 1330 589 q 1361 754 1330 671 q 1378 806 1374 790 q 1381 827 1381 817 q 1381 833 1381 830 q 1332 867 1378 858 q 1278 873 1306 873 q 1122 843 1216 873 q 918 736 1027 812 q 811 638 846 686 q 779 538 798 593 q 806 503 785 517 q 843 482 819 494 q 886 465 867 471 l 903 458 l 922 464 q 1030 479 981 479 q 1144 452 1096 479 q 1213 357 1202 414 q 1214 343 1214 350 q 1205 307 1214 326 q 1179 281 1197 288 q 1167 279 1173 279 q 1158 280 1164 279 q 1139 289 1152 281 q 1125 296 1131 294 q 1109 301 1118 299 q 1084 305 1100 302 q 1040 309 1061 309 q 908 275 973 309 q 692 66 743 192 q 682 18 682 39 q 724 -48 682 -26 q 854 -72 771 -72 l 872 -72 q 1101 -12 959 -70 q 1398 158 1243 47 q 1676 430 1552 270 q 1696 443 1687 443 q 1703 442 1697 443 q 1712 431 1708 441 q 1713 423 1713 427 q 1709 409 1713 416 q 1485 140 1609 249 q 1238 -33 1361 32 q 1018 -127 1116 -98 q 872 -159 920 -157 q 829 -160 850 -160 q 640 -116 708 -160 q 617 -100 626 -108 q 599 -81 608 -92 m 725 958 q 677 941 709 958 q 444 677 567 878 q 408 614 427 650 q 375 552 389 579 q 361 522 361 526 l 375 522 q 396 523 382 522 q 435 525 411 524 q 480 525 458 525 q 542 523 519 525 q 583 516 564 521 q 595 514 591 514 q 597 515 597 514 q 604 534 597 516 q 618 577 610 551 q 675 746 654 682 q 708 845 696 810 q 724 898 719 880 q 730 931 728 917 q 733 949 732 944 l 733 952 q 731 957 733 956 q 725 958 730 958 m 749 446 q 719 355 732 398 q 756 384 737 370 q 805 414 775 397 l 811 418 l 787 427 q 749 446 766 435 z "},"":{"ha":698,"x_min":23,"x_max":793,"o":"m 539 1074 q 601 1061 577 1074 q 624 1047 615 1055 q 640 1027 633 1039 q 662 940 662 994 q 657 884 662 915 q 640 817 651 849 q 608 744 629 785 q 506 578 565 658 q 423 496 469 529 q 345 464 376 464 q 314 474 324 464 q 308 485 311 478 q 305 497 305 492 q 308 507 305 502 q 317 520 310 512 q 337 541 323 528 q 362 566 349 552 q 385 590 376 580 q 404 610 393 598 q 427 635 415 623 q 437 646 432 640 q 473 685 460 671 q 496 713 485 699 q 567 832 541 773 q 594 925 594 890 q 590 947 594 939 q 586 954 588 952 q 580 955 584 955 q 556 946 572 954 q 524 926 541 938 q 492 897 513 917 q 449 854 471 876 q 416 819 428 833 q 273 593 333 718 q 193 354 214 469 q 190 335 191 344 q 188 314 189 327 q 188 279 188 302 q 191 217 188 238 q 201 172 193 197 q 216 136 208 151 q 237 109 224 122 q 311 75 270 75 q 321 76 317 75 q 568 237 435 87 q 637 321 593 267 q 726 433 682 375 q 759 471 747 460 q 778 482 770 482 q 793 465 792 482 q 766 384 793 440 q 696 263 739 328 q 496 35 602 125 q 330 -50 412 -33 l 330 -73 l 347 -75 q 460 -144 429 -80 q 471 -198 471 -166 q 421 -302 471 -257 q 330 -354 380 -340 q 307 -358 321 -357 q 278 -359 292 -359 q 248 -357 260 -359 q 163 -307 200 -345 q 127 -231 127 -267 q 142 -187 127 -208 q 168 -175 152 -175 q 188 -179 178 -175 q 233 -190 199 -184 q 261 -195 248 -192 q 282 -199 275 -197 q 301 -200 293 -200 l 306 -200 q 329 -192 315 -199 q 351 -178 342 -184 q 359 -163 359 -169 q 333 -151 359 -152 q 322 -152 328 -151 q 308 -154 315 -153 q 291 -161 302 -156 q 274 -168 280 -166 q 262 -170 269 -170 q 216 -127 227 -170 q 215 -122 215 -125 q 222 -91 215 -110 q 241 -58 230 -73 q 245 -52 243 -55 q 208 -44 224 -50 q 171 -28 191 -38 q 138 -7 153 -18 q 109 18 124 3 q 23 277 23 108 q 85 570 23 415 q 334 970 185 819 q 539 1074 435 1074 z "},"":{"ha":1072,"x_min":0,"x_max":1160,"o":"m 791 1200 q 760 1214 781 1203 q 724 1234 739 1224 q 674 1310 674 1267 q 675 1322 674 1318 q 678 1331 675 1326 q 716 1354 690 1354 q 819 1274 764 1354 q 842 1223 842 1240 q 838 1211 842 1216 q 834 1205 837 1208 q 828 1201 831 1202 q 808 1198 820 1198 q 791 1200 799 1198 m 728 1044 q 904 998 836 1043 q 992 828 992 935 l 992 817 q 977 736 991 779 q 903 619 954 660 q 870 600 890 609 q 839 589 851 590 l 831 589 q 791 604 806 589 q 777 644 777 618 l 777 646 q 808 754 777 669 q 824 800 819 785 q 829 825 829 814 q 829 829 829 827 q 828 833 828 831 q 780 867 827 857 q 729 873 757 873 q 555 837 652 873 q 365 736 458 800 q 230 583 253 657 q 224 554 224 568 q 254 502 224 523 q 291 481 267 493 q 334 464 315 470 l 351 458 l 370 463 q 477 479 427 479 q 592 452 545 479 q 661 357 649 413 q 661 343 661 351 q 652 304 661 321 q 627 281 642 286 q 624 280 625 281 q 614 279 619 279 q 587 288 604 279 q 573 296 579 293 q 557 300 566 298 q 531 304 547 302 q 485 309 507 309 q 355 275 421 309 q 140 65 191 192 q 130 16 130 38 q 134 -9 130 2 q 187 -31 150 -20 q 288 -42 224 -42 q 340 -40 312 -42 q 615 42 474 -28 q 883 217 757 112 q 1045 359 996 311 q 1109 425 1095 408 q 1120 437 1117 435 q 1137 444 1128 444 q 1146 442 1142 444 q 1156 435 1152 439 q 1160 423 1160 431 q 1156 408 1160 416 q 932 140 1056 248 q 686 -34 809 31 q 466 -128 564 -99 q 320 -159 368 -157 q 279 -160 299 -160 q 87 -117 157 -160 q 65 -100 74 -108 q 46 -81 56 -93 q 0 53 0 -26 q 1 71 0 62 q 167 355 14 226 q 204 383 185 370 q 253 414 223 396 l 258 417 l 235 427 q 132 518 157 457 q 118 591 118 552 q 120 620 118 605 q 133 668 123 638 q 153 718 143 698 q 326 907 214 826 q 699 1044 503 1027 q 728 1044 713 1044 z "},"":{"ha":1072,"x_min":0,"x_max":1160,"o":"m 782 1192 q 757 1213 766 1197 q 753 1228 753 1219 q 758 1249 753 1238 q 842 1330 777 1289 q 899 1354 882 1354 q 906 1353 903 1354 q 914 1336 914 1348 q 899 1289 914 1318 q 845 1217 873 1242 q 791 1191 817 1191 q 782 1192 787 1191 m 728 1044 q 904 998 836 1043 q 992 828 992 935 l 992 817 q 977 736 991 779 q 903 619 954 660 q 870 600 890 609 q 839 589 851 590 l 831 589 q 791 604 806 589 q 777 644 777 618 l 777 646 q 808 754 777 669 q 824 800 819 785 q 829 825 829 814 q 829 829 829 827 q 828 833 828 831 q 780 867 827 857 q 729 873 757 873 q 555 837 652 873 q 365 736 458 800 q 230 583 253 657 q 224 554 224 568 q 254 502 224 523 q 291 481 267 493 q 334 464 315 470 l 351 458 l 370 463 q 477 479 427 479 q 592 452 545 479 q 661 357 649 413 q 661 343 661 351 q 652 304 661 321 q 627 281 642 286 q 624 280 625 281 q 614 279 619 279 q 587 288 604 279 q 573 296 579 293 q 557 300 566 298 q 531 304 547 302 q 485 309 507 309 q 355 275 421 309 q 140 65 191 192 q 130 16 130 38 q 134 -9 130 2 q 187 -31 150 -20 q 288 -42 224 -42 q 340 -40 312 -42 q 615 42 474 -28 q 883 217 757 112 q 1045 359 996 311 q 1109 425 1095 408 q 1120 437 1117 435 q 1137 444 1128 444 q 1146 442 1142 444 q 1156 435 1152 439 q 1160 423 1160 431 q 1156 408 1160 416 q 932 140 1056 248 q 686 -34 809 31 q 466 -128 564 -99 q 320 -159 368 -157 q 279 -160 299 -160 q 87 -117 157 -160 q 65 -100 74 -108 q 46 -81 56 -93 q 0 53 0 -26 q 1 71 0 62 q 167 355 14 226 q 204 383 185 370 q 253 414 223 396 l 258 417 l 235 427 q 132 518 157 457 q 118 591 118 552 q 120 620 118 605 q 133 668 123 638 q 153 718 143 698 q 326 907 214 826 q 699 1044 503 1027 q 728 1044 713 1044 z "},"":{"ha":1072,"x_min":0,"x_max":1160,"o":"m 679 1139 q 649 1166 659 1147 q 646 1176 646 1172 q 645 1187 645 1180 q 654 1219 645 1203 q 692 1262 664 1234 q 752 1315 720 1291 q 808 1350 784 1339 q 827 1355 818 1355 q 861 1332 846 1355 q 876 1304 868 1321 q 888 1277 884 1286 q 895 1249 893 1261 q 897 1214 897 1237 q 895 1178 897 1190 q 888 1160 893 1166 q 867 1147 880 1147 q 857 1148 863 1147 q 828 1172 844 1152 q 804 1217 813 1192 q 800 1226 802 1223 q 798 1230 798 1230 q 794 1225 798 1230 q 785 1213 791 1220 q 754 1174 771 1194 q 730 1148 738 1154 q 715 1140 722 1142 q 698 1137 707 1137 l 692 1137 q 685 1137 688 1137 q 679 1139 682 1137 m 728 1044 q 904 998 836 1043 q 992 828 992 935 l 992 817 q 977 736 991 779 q 903 619 954 660 q 870 600 890 609 q 839 589 851 590 l 831 589 q 791 604 806 589 q 777 644 777 618 l 777 646 q 808 754 777 669 q 824 800 819 785 q 829 825 829 814 q 829 829 829 827 q 828 833 828 831 q 780 867 827 857 q 729 873 757 873 q 555 837 652 873 q 365 736 458 800 q 230 583 253 657 q 224 554 224 568 q 254 502 224 523 q 291 481 267 493 q 334 464 315 470 l 351 458 l 370 463 q 477 479 427 479 q 592 452 545 479 q 661 357 649 413 q 661 343 661 351 q 652 304 661 321 q 627 281 642 286 q 624 280 625 281 q 614 279 619 279 q 587 288 604 279 q 573 296 579 293 q 557 300 566 298 q 531 304 547 302 q 485 309 507 309 q 355 275 421 309 q 140 65 191 192 q 130 16 130 38 q 134 -9 130 2 q 187 -31 150 -20 q 288 -42 224 -42 q 340 -40 312 -42 q 615 42 474 -28 q 883 217 757 112 q 1045 359 996 311 q 1109 425 1095 408 q 1120 437 1117 435 q 1137 444 1128 444 q 1146 442 1142 444 q 1156 435 1152 439 q 1160 423 1160 431 q 1156 408 1160 416 q 932 140 1056 248 q 686 -34 809 31 q 466 -128 564 -99 q 320 -159 368 -157 q 279 -160 299 -160 q 87 -117 157 -160 q 65 -100 74 -108 q 46 -81 56 -93 q 0 53 0 -26 q 1 71 0 62 q 167 355 14 226 q 204 383 185 370 q 253 414 223 396 l 258 417 l 235 427 q 132 518 157 457 q 118 591 118 552 q 120 620 118 605 q 133 668 123 638 q 153 718 143 698 q 326 907 214 826 q 699 1044 503 1027 q 728 1044 713 1044 z "},"":{"ha":1072,"x_min":0,"x_max":1160,"o":"m 943 1233 q 936 1234 939 1234 q 935 1235 935 1235 q 931 1237 934 1235 q 924 1242 928 1238 q 903 1265 909 1251 q 896 1293 896 1278 q 905 1325 896 1310 q 931 1349 913 1340 q 940 1353 937 1352 q 947 1355 943 1354 q 958 1355 951 1355 q 970 1355 966 1355 q 977 1353 974 1354 q 986 1349 981 1352 q 1021 1297 1019 1333 l 1021 1294 q 981 1235 1021 1253 q 957 1231 969 1231 q 943 1233 949 1231 m 814 1236 q 777 1266 789 1242 q 773 1287 773 1275 q 777 1308 773 1299 q 797 1331 783 1322 q 826 1340 810 1340 l 830 1340 q 865 1321 852 1337 q 878 1286 878 1305 q 863 1250 878 1267 q 825 1234 846 1234 q 814 1236 819 1234 m 728 1044 q 904 998 836 1043 q 992 828 992 935 l 992 817 q 977 736 991 779 q 903 619 954 660 q 870 600 890 609 q 839 589 851 590 l 831 589 q 791 604 806 589 q 777 644 777 618 l 777 646 q 808 754 777 669 q 824 800 819 785 q 829 825 829 814 q 829 829 829 827 q 828 833 828 831 q 780 867 827 857 q 729 873 757 873 q 555 837 652 873 q 365 736 458 800 q 230 583 253 657 q 224 554 224 568 q 254 502 224 523 q 291 481 267 493 q 334 464 315 470 l 351 458 l 370 463 q 477 479 427 479 q 592 452 545 479 q 661 357 649 413 q 661 343 661 351 q 652 304 661 321 q 627 281 642 286 q 624 280 625 281 q 614 279 619 279 q 587 288 604 279 q 573 296 579 293 q 557 300 566 298 q 531 304 547 302 q 485 309 507 309 q 355 275 421 309 q 140 65 191 192 q 130 16 130 38 q 134 -9 130 2 q 187 -31 150 -20 q 288 -42 224 -42 q 340 -40 312 -42 q 615 42 474 -28 q 883 217 757 112 q 1045 359 996 311 q 1109 425 1095 408 q 1120 437 1117 435 q 1137 444 1128 444 q 1146 442 1142 444 q 1156 435 1152 439 q 1160 423 1160 431 q 1156 408 1160 416 q 932 140 1056 248 q 686 -34 809 31 q 466 -128 564 -99 q 320 -159 368 -157 q 279 -160 299 -160 q 87 -117 157 -160 q 65 -100 74 -108 q 46 -81 56 -93 q 0 53 0 -26 q 1 71 0 62 q 167 355 14 226 q 204 383 185 370 q 253 414 223 396 l 258 417 l 235 427 q 132 518 157 457 q 118 591 118 552 q 120 620 118 605 q 133 668 123 638 q 153 718 143 698 q 326 907 214 826 q 699 1044 503 1027 q 728 1044 713 1044 z "},"":{"ha":530,"x_min":-1,"x_max":733,"o":"m 577 1200 q 546 1214 567 1203 q 510 1234 525 1224 q 460 1310 460 1267 q 461 1322 460 1318 q 465 1331 462 1326 q 503 1355 476 1355 q 606 1274 551 1355 q 629 1223 629 1241 q 625 1211 629 1216 q 620 1205 623 1208 q 614 1202 617 1203 q 595 1198 607 1198 q 577 1200 586 1198 m 68 -182 q 17 -155 36 -177 q -1 -105 -1 -133 q 4 -77 -1 -91 q 15 -57 8 -67 q 31 -40 22 -47 q 51 -27 37 -35 q 82 -12 66 -19 q 111 -1 99 -4 q 122 3 117 1 q 127 5 127 5 l 127 5 q 127 11 127 7 q 125 20 126 15 q 113 123 113 67 q 135 308 113 199 q 272 770 178 522 q 321 894 302 849 q 328 908 325 902 q 330 916 330 914 q 316 918 330 918 q 256 942 277 918 q 234 996 234 966 q 253 1048 234 1023 q 271 1066 260 1059 q 302 1081 282 1073 q 422 1112 361 1106 q 441 1115 431 1114 q 465 1118 456 1116 q 490 1120 475 1120 q 525 1119 503 1120 q 712 1073 676 1114 q 733 1029 733 1053 q 732 1019 733 1022 q 728 1013 731 1016 q 716 1008 723 1008 q 704 1011 711 1008 q 690 1013 700 1013 q 585 996 661 1013 q 564 991 574 994 q 551 988 555 989 q 550 988 551 988 q 545 986 547 988 q 540 979 543 984 q 531 962 536 973 q 441 758 490 882 q 355 513 393 633 q 266 86 290 306 q 261 45 263 63 q 258 24 259 28 l 257 16 l 283 14 q 401 -39 380 10 q 406 -53 405 -46 q 408 -68 408 -59 l 408 -76 q 391 -116 408 -102 q 366 -126 378 -126 q 348 -118 355 -126 q 340 -96 340 -110 l 340 -90 l 323 -91 q 277 -101 302 -92 q 208 -131 252 -109 q 150 -159 172 -149 q 118 -174 129 -169 q 102 -180 107 -178 q 92 -182 96 -182 q 84 -183 87 -183 q 78 -184 79 -184 q 75 -183 77 -184 q 68 -182 72 -183 z "},"":{"ha":530,"x_min":-1,"x_max":733,"o":"m 493 1193 q 468 1213 477 1198 q 465 1229 465 1220 q 469 1249 465 1239 q 553 1331 488 1290 q 610 1355 593 1355 q 617 1354 614 1355 q 625 1336 625 1349 q 610 1289 625 1318 q 503 1192 553 1192 q 493 1193 498 1192 m 68 -182 q 17 -155 36 -177 q -1 -105 -1 -133 q 4 -77 -1 -91 q 15 -57 8 -67 q 31 -40 22 -47 q 51 -27 37 -35 q 82 -12 66 -19 q 111 -1 99 -4 q 122 3 117 1 q 127 5 127 5 l 127 5 q 127 11 127 7 q 125 20 126 15 q 113 123 113 67 q 135 308 113 199 q 272 770 178 522 q 321 894 302 849 q 328 908 325 902 q 330 916 330 914 q 316 918 330 918 q 256 942 277 918 q 234 996 234 966 q 253 1048 234 1023 q 271 1066 260 1059 q 302 1081 282 1073 q 422 1112 361 1106 q 441 1115 431 1114 q 465 1118 456 1116 q 490 1120 475 1120 q 525 1119 503 1120 q 712 1073 676 1114 q 733 1029 733 1053 q 732 1019 733 1022 q 728 1013 731 1016 q 716 1008 723 1008 q 704 1011 711 1008 q 690 1013 700 1013 q 585 996 661 1013 q 564 991 574 994 q 551 988 555 989 q 550 988 551 988 q 545 986 547 988 q 540 979 543 984 q 531 962 536 973 q 441 758 490 882 q 355 513 393 633 q 266 86 290 306 q 261 45 263 63 q 258 24 259 28 l 257 16 l 283 14 q 401 -39 380 10 q 406 -53 405 -46 q 408 -68 408 -59 l 408 -76 q 391 -116 408 -102 q 366 -126 378 -126 q 348 -118 355 -126 q 340 -96 340 -110 l 340 -90 l 323 -91 q 277 -101 302 -92 q 208 -131 252 -109 q 150 -159 172 -149 q 118 -174 129 -169 q 102 -180 107 -178 q 92 -182 96 -182 q 84 -183 87 -183 q 78 -184 79 -184 q 75 -183 77 -184 q 68 -182 72 -183 z "},"":{"ha":530,"x_min":-1,"x_max":733,"o":"m 455 1187 q 425 1216 435 1196 q 422 1225 422 1221 q 421 1236 421 1229 q 431 1268 421 1253 q 468 1311 440 1283 q 528 1363 496 1339 q 584 1400 559 1388 q 603 1404 594 1404 q 637 1381 623 1404 q 652 1353 644 1370 q 664 1326 661 1336 q 670 1298 669 1310 q 672 1263 672 1286 l 672 1252 q 670 1224 672 1234 q 665 1208 669 1215 q 643 1196 656 1196 q 633 1197 638 1196 q 605 1221 620 1202 q 579 1266 589 1240 q 576 1275 577 1272 q 574 1279 574 1279 q 570 1274 574 1279 q 562 1262 567 1269 q 530 1223 547 1242 q 507 1198 513 1203 q 491 1188 498 1191 q 474 1185 484 1186 l 468 1185 q 455 1187 460 1185 m 68 -182 q 17 -155 36 -177 q -1 -105 -1 -133 q 4 -77 -1 -91 q 15 -57 8 -67 q 31 -40 22 -47 q 51 -27 37 -35 q 82 -12 66 -19 q 111 -1 99 -4 q 122 3 117 1 q 127 5 127 5 l 127 5 q 127 11 127 7 q 125 20 126 15 q 113 123 113 67 q 135 308 113 199 q 272 770 178 522 q 321 894 302 849 q 328 908 325 902 q 330 916 330 914 q 316 918 330 918 q 256 942 277 918 q 234 996 234 966 q 253 1048 234 1023 q 271 1066 260 1059 q 302 1081 282 1073 q 422 1112 361 1106 q 441 1115 431 1114 q 465 1118 456 1116 q 490 1120 475 1120 q 525 1119 503 1120 q 712 1073 676 1114 q 733 1029 733 1053 q 732 1019 733 1022 q 728 1013 731 1016 q 716 1008 723 1008 q 704 1011 711 1008 q 690 1013 700 1013 q 585 996 661 1013 q 564 991 574 994 q 551 988 555 989 q 550 988 551 988 q 545 986 547 988 q 540 979 543 984 q 531 962 536 973 q 441 758 490 882 q 355 513 393 633 q 266 86 290 306 q 261 45 263 63 q 258 24 259 28 l 257 16 l 283 14 q 401 -39 380 10 q 406 -53 405 -46 q 408 -68 408 -59 l 408 -76 q 391 -116 408 -102 q 366 -126 378 -126 q 348 -118 355 -126 q 340 -96 340 -110 l 340 -90 l 323 -91 q 277 -101 302 -92 q 208 -131 252 -109 q 150 -159 172 -149 q 118 -174 129 -169 q 102 -180 107 -178 q 92 -182 96 -182 q 84 -183 87 -183 q 78 -184 79 -184 q 75 -183 77 -184 q 68 -182 72 -183 z "},"":{"ha":530,"x_min":-1,"x_max":733,"o":"m 632 1233 q 626 1235 629 1234 q 623 1235 624 1235 q 620 1237 623 1235 q 613 1242 616 1239 q 592 1265 599 1251 q 585 1293 585 1278 q 594 1325 585 1310 q 620 1350 603 1341 q 629 1353 625 1352 q 636 1355 632 1354 q 648 1355 640 1355 q 659 1355 655 1355 q 666 1353 663 1354 q 675 1350 669 1352 q 710 1297 708 1333 l 710 1294 q 669 1235 710 1255 q 646 1232 659 1232 q 632 1233 639 1232 m 496 1232 q 458 1263 471 1239 q 455 1284 455 1272 q 458 1305 455 1296 q 507 1337 477 1337 l 512 1337 q 547 1318 534 1334 q 560 1283 560 1302 q 545 1246 560 1263 q 507 1231 528 1231 q 496 1232 501 1231 m 68 -182 q 17 -155 36 -177 q -1 -105 -1 -133 q 4 -77 -1 -91 q 15 -57 8 -67 q 31 -40 22 -47 q 51 -27 37 -35 q 82 -12 66 -19 q 111 -1 99 -4 q 122 3 117 1 q 127 5 127 5 l 127 5 q 127 11 127 7 q 125 20 126 15 q 113 123 113 67 q 135 308 113 199 q 272 770 178 522 q 321 894 302 849 q 328 908 325 902 q 330 916 330 914 q 316 918 330 918 q 256 942 277 918 q 234 996 234 966 q 253 1048 234 1023 q 271 1066 260 1059 q 302 1081 282 1073 q 422 1112 361 1106 q 441 1115 431 1114 q 465 1118 456 1116 q 490 1120 475 1120 q 525 1119 503 1120 q 712 1073 676 1114 q 733 1029 733 1053 q 732 1019 733 1022 q 728 1013 731 1016 q 716 1008 723 1008 q 704 1011 711 1008 q 690 1013 700 1013 q 585 996 661 1013 q 564 991 574 994 q 551 988 555 989 q 550 988 551 988 q 545 986 547 988 q 540 979 543 984 q 531 962 536 973 q 441 758 490 882 q 355 513 393 633 q 266 86 290 306 q 261 45 263 63 q 258 24 259 28 l 257 16 l 283 14 q 401 -39 380 10 q 406 -53 405 -46 q 408 -68 408 -59 l 408 -76 q 391 -116 408 -102 q 366 -126 378 -126 q 348 -118 355 -126 q 340 -96 340 -110 l 340 -90 l 323 -91 q 277 -101 302 -92 q 208 -131 252 -109 q 150 -159 172 -149 q 118 -174 129 -169 q 102 -180 107 -178 q 92 -182 96 -182 q 84 -183 87 -183 q 78 -184 79 -184 q 75 -183 77 -184 q 68 -182 72 -183 z "},"":{"ha":1153,"x_min":-1,"x_max":1123,"o":"m 740 1044 q 988 972 888 1044 q 1088 854 1053 927 q 1123 698 1123 784 q 1122 680 1123 689 q 1004 355 1118 527 q 471 -102 797 49 q 277 -157 363 -149 q 238 -160 255 -160 q 210 -158 225 -160 q 111 -130 157 -153 q 80 -110 94 -120 q 52 -85 66 -100 q 1 18 10 -39 q -1 45 -1 31 q 71 235 -1 136 q 276 424 144 334 q 290 434 284 429 q 296 439 296 439 q 300 451 297 441 q 307 475 303 461 q 315 505 311 490 q 320 522 317 513 l 313 522 q 302 524 312 523 q 286 526 295 525 q 196 554 215 534 q 182 585 182 569 q 205 623 182 606 q 293 645 224 635 q 363 649 325 649 q 456 855 413 781 q 463 868 460 863 q 465 874 465 873 q 448 868 463 874 q 415 853 434 862 q 378 836 396 845 q 269 774 313 804 q 189 704 226 744 q 169 684 178 692 q 157 675 160 676 q 149 673 153 673 q 132 679 140 673 q 121 709 121 690 q 132 753 121 729 q 179 817 147 782 q 252 884 212 852 q 550 1020 374 975 q 733 1044 648 1044 l 740 1044 m 717 921 l 705 921 q 672 920 687 920 q 652 919 657 920 l 642 917 l 637 906 q 630 885 635 901 q 618 854 625 871 q 591 781 602 809 q 560 703 580 753 q 545 665 553 684 q 534 636 539 650 q 599 620 579 629 q 623 591 618 610 q 716 610 689 610 q 727 608 724 610 q 736 595 736 604 q 731 584 736 587 q 715 578 726 580 q 617 547 677 573 q 561 521 591 536 q 506 493 530 506 q 479 477 482 481 q 477 473 478 476 q 475 467 476 471 q 432 318 456 406 q 390 164 407 229 q 384 141 387 152 q 378 125 380 130 q 337 92 363 92 q 318 97 328 92 q 271 224 277 117 l 271 232 q 272 278 271 250 q 275 323 273 307 q 276 331 276 328 q 275 334 276 334 q 264 324 274 334 q 241 300 254 314 q 217 273 229 286 q 199 253 205 260 q 122 77 122 144 q 125 56 122 65 q 165 12 133 28 q 222 1 189 1 q 258 3 239 1 q 604 167 417 28 q 842 408 742 270 q 914 525 883 463 q 958 635 945 586 q 968 714 968 676 q 960 779 968 750 q 817 908 928 873 q 772 918 794 915 q 717 921 750 920 z "},"":{"ha":818,"x_min":2,"x_max":819,"o":"m 528 1152 q 449 1242 471 1166 l 444 1260 l 425 1240 q 367 1192 397 1211 q 345 1184 355 1184 q 324 1195 332 1184 q 321 1211 321 1202 q 323 1227 321 1219 q 336 1254 328 1240 q 351 1278 344 1269 q 384 1311 365 1295 q 420 1334 404 1326 q 467 1343 446 1343 q 483 1341 476 1343 q 522 1313 498 1337 q 544 1292 536 1299 q 560 1282 552 1286 q 572 1278 566 1278 q 581 1280 576 1278 q 595 1287 586 1282 q 640 1315 614 1297 q 678 1345 665 1333 q 693 1354 687 1354 q 701 1350 698 1354 q 705 1341 705 1348 q 702 1321 705 1335 q 625 1176 681 1227 q 551 1149 590 1149 q 528 1152 540 1149 m 543 -178 q 452 -20 465 -155 q 451 20 451 -5 q 452 76 451 47 q 455 124 453 106 q 496 339 465 214 q 548 527 519 431 q 629 779 576 623 q 659 870 646 829 q 675 922 671 911 q 539 757 614 874 q 381 487 463 640 q 220 178 300 334 q 150 41 184 107 q 83 -1 121 -1 q 60 3 72 -1 q 48 7 53 5 q 37 16 43 10 q 17 44 24 27 q 5 87 9 60 q 3 118 4 98 q 2 161 2 138 q 5 232 2 201 q 71 594 23 422 q 168 862 132 812 q 230 891 195 891 q 277 876 255 891 q 309 812 309 850 q 307 793 309 802 q 300 771 305 787 q 289 739 295 756 q 187 404 245 621 q 174 351 181 380 q 162 299 167 322 q 157 273 157 276 l 157 273 q 191 340 157 273 q 311 578 225 408 q 479 861 390 737 q 538 938 505 897 q 592 1002 572 979 q 718 1096 669 1086 q 731 1097 725 1097 q 782 1076 760 1097 q 814 1017 804 1055 q 818 1004 817 1010 q 819 987 819 998 q 819 956 819 977 q 818 915 819 930 q 814 883 817 900 q 777 714 804 808 q 769 684 772 697 q 759 653 765 671 q 742 602 753 635 q 608 38 625 241 q 606 6 606 26 q 605 -33 605 -14 q 608 -91 605 -70 q 618 -128 611 -113 q 621 -136 620 -133 q 622 -143 622 -140 l 622 -147 q 599 -176 618 -166 q 567 -182 585 -182 q 543 -178 554 -182 z "},"":{"ha":787,"x_min":1,"x_max":764,"o":"m 532 1200 q 501 1214 522 1203 q 465 1234 480 1224 q 416 1310 416 1267 q 416 1322 416 1318 q 420 1331 417 1326 q 458 1354 431 1354 q 560 1274 506 1354 q 584 1223 584 1241 q 580 1211 584 1216 q 575 1205 578 1208 q 570 1202 572 1203 q 550 1198 562 1198 q 532 1200 541 1198 m 602 1131 q 694 1093 655 1131 q 713 1073 706 1082 q 728 1047 720 1063 q 764 855 764 975 q 703 492 764 696 q 563 169 642 302 q 380 -35 476 24 q 342 -54 363 -45 q 304 -68 321 -63 q 281 -72 292 -71 q 255 -74 271 -73 q 214 -72 228 -74 q 10 171 53 -37 q 3 217 5 195 q 1 270 1 239 l 1 295 q 2 339 1 319 q 6 388 3 360 q 67 652 22 523 q 161 829 113 781 q 221 854 190 854 l 226 854 q 253 848 241 853 q 275 831 264 843 q 292 804 286 821 q 298 770 298 787 q 294 747 298 758 q 287 731 292 741 q 275 711 281 721 q 212 564 241 657 q 164 280 164 406 q 200 110 164 172 q 255 72 222 72 q 274 75 264 72 q 471 281 372 107 q 585 556 535 399 q 650 844 635 713 q 652 884 652 861 q 645 972 652 926 q 617 1036 637 1018 q 501 877 550 987 q 425 642 452 766 q 397 429 397 517 q 386 395 396 406 q 359 385 375 385 q 302 407 332 385 q 262 464 273 430 q 259 503 259 482 q 262 555 259 530 q 262 562 262 559 q 301 743 271 646 q 370 924 330 840 q 464 1063 411 1011 q 594 1131 528 1126 l 602 1131 z "},"":{"ha":787,"x_min":1,"x_max":764,"o":"m 455 1193 q 430 1213 439 1197 q 427 1227 427 1219 q 431 1249 427 1238 q 515 1330 450 1289 q 572 1354 555 1354 q 579 1353 576 1354 q 587 1335 587 1348 q 572 1289 587 1317 q 519 1217 547 1243 q 465 1192 490 1192 q 455 1193 460 1192 m 602 1131 q 694 1093 655 1131 q 713 1073 706 1082 q 728 1047 720 1063 q 764 855 764 975 q 703 492 764 696 q 563 169 642 302 q 380 -35 476 24 q 342 -54 363 -45 q 304 -68 321 -63 q 281 -72 292 -71 q 255 -74 271 -73 q 214 -72 228 -74 q 10 171 53 -37 q 3 217 5 195 q 1 270 1 239 l 1 295 q 2 339 1 319 q 6 388 3 360 q 67 652 22 523 q 161 829 113 781 q 221 854 190 854 l 226 854 q 253 848 241 853 q 275 831 264 843 q 292 804 286 821 q 298 770 298 787 q 294 747 298 758 q 287 731 292 741 q 275 711 281 721 q 212 564 241 657 q 164 280 164 406 q 200 110 164 172 q 255 72 222 72 q 274 75 264 72 q 471 281 372 107 q 585 556 535 399 q 650 844 635 713 q 652 884 652 861 q 645 972 652 926 q 617 1036 637 1018 q 501 877 550 987 q 425 642 452 766 q 397 429 397 517 q 386 395 396 406 q 359 385 375 385 q 302 407 332 385 q 262 464 273 430 q 259 503 259 482 q 262 555 259 530 q 262 562 262 559 q 301 743 271 646 q 370 924 330 840 q 464 1063 411 1011 q 594 1131 528 1126 l 602 1131 z "},"":{"ha":787,"x_min":1,"x_max":764,"o":"m 406 1198 q 376 1226 386 1206 q 372 1235 373 1232 q 372 1246 372 1239 q 381 1278 372 1262 q 418 1321 391 1293 q 479 1374 447 1350 q 535 1410 511 1398 q 553 1415 545 1415 q 588 1391 573 1415 q 603 1363 595 1380 q 614 1337 611 1346 q 622 1308 620 1320 q 623 1273 623 1296 q 622 1237 623 1249 q 615 1219 620 1225 q 594 1206 607 1206 q 584 1208 589 1206 q 555 1232 570 1212 q 530 1276 540 1251 q 527 1285 528 1282 q 525 1289 525 1289 q 521 1284 524 1289 q 512 1272 517 1280 q 481 1233 498 1253 q 457 1208 465 1213 q 441 1199 449 1201 q 425 1196 434 1196 q 414 1196 418 1196 q 406 1198 410 1196 m 602 1131 q 694 1093 655 1131 q 713 1073 706 1082 q 728 1047 720 1063 q 764 855 764 975 q 703 492 764 696 q 563 169 642 302 q 380 -35 476 24 q 342 -54 363 -45 q 304 -68 321 -63 q 281 -72 292 -71 q 255 -74 271 -73 q 214 -72 228 -74 q 10 171 53 -37 q 3 217 5 195 q 1 270 1 239 l 1 295 q 2 339 1 319 q 6 388 3 360 q 67 652 22 523 q 161 829 113 781 q 221 854 190 854 l 226 854 q 253 848 241 853 q 275 831 264 843 q 292 804 286 821 q 298 770 298 787 q 294 747 298 758 q 287 731 292 741 q 275 711 281 721 q 212 564 241 657 q 164 280 164 406 q 200 110 164 172 q 255 72 222 72 q 274 75 264 72 q 471 281 372 107 q 585 556 535 399 q 650 844 635 713 q 652 884 652 861 q 645 972 652 926 q 617 1036 637 1018 q 501 877 550 987 q 425 642 452 766 q 397 429 397 517 q 386 395 396 406 q 359 385 375 385 q 302 407 332 385 q 262 464 273 430 q 259 503 259 482 q 262 555 259 530 q 262 562 262 559 q 301 743 271 646 q 370 924 330 840 q 464 1063 411 1011 q 594 1131 528 1126 l 602 1131 z "},"":{"ha":787,"x_min":1,"x_max":764,"o":"m 469 1152 q 390 1242 412 1165 l 385 1259 l 366 1240 q 307 1192 339 1211 q 285 1184 295 1184 q 265 1195 273 1184 q 262 1210 262 1200 q 264 1227 262 1218 q 277 1254 269 1240 q 292 1278 285 1269 q 325 1311 305 1295 q 361 1334 345 1326 q 406 1343 385 1343 q 424 1341 416 1343 q 462 1313 439 1336 q 485 1292 477 1299 q 501 1281 493 1285 q 513 1278 507 1278 q 522 1280 517 1278 q 536 1286 528 1282 q 581 1315 555 1297 q 619 1345 606 1333 q 635 1354 629 1354 q 642 1350 639 1354 q 646 1340 646 1348 q 643 1320 646 1333 q 566 1176 622 1227 q 493 1148 531 1148 q 469 1152 481 1148 m 602 1131 q 694 1093 655 1131 q 713 1073 706 1082 q 728 1047 720 1063 q 764 855 764 975 q 703 492 764 696 q 563 169 642 302 q 380 -35 476 24 q 342 -54 363 -45 q 304 -68 321 -63 q 281 -72 292 -71 q 255 -74 271 -73 q 214 -72 228 -74 q 10 171 53 -37 q 3 217 5 195 q 1 270 1 239 l 1 295 q 2 339 1 319 q 6 388 3 360 q 67 652 22 523 q 161 829 113 781 q 221 854 190 854 l 226 854 q 253 848 241 853 q 275 831 264 843 q 292 804 286 821 q 298 770 298 787 q 294 747 298 758 q 287 731 292 741 q 275 711 281 721 q 212 564 241 657 q 164 280 164 406 q 200 110 164 172 q 255 72 222 72 q 274 75 264 72 q 471 281 372 107 q 585 556 535 399 q 650 844 635 713 q 652 884 652 861 q 645 972 652 926 q 617 1036 637 1018 q 501 877 550 987 q 425 642 452 766 q 397 429 397 517 q 386 395 396 406 q 359 385 375 385 q 302 407 332 385 q 262 464 273 430 q 259 503 259 482 q 262 555 259 530 q 262 562 262 559 q 301 743 271 646 q 370 924 330 840 q 464 1063 411 1011 q 594 1131 528 1126 l 602 1131 z "},"":{"ha":787,"x_min":1,"x_max":764,"o":"m 588 1232 q 582 1234 585 1234 q 579 1234 580 1234 q 575 1236 578 1234 q 569 1241 572 1238 q 548 1264 555 1251 q 541 1293 541 1278 q 550 1325 541 1310 q 576 1349 559 1340 q 585 1353 581 1352 q 592 1354 588 1354 q 604 1354 596 1354 q 615 1354 611 1354 q 622 1353 619 1354 q 631 1349 625 1352 q 666 1297 664 1332 l 666 1293 q 625 1234 666 1254 q 603 1231 614 1231 q 588 1232 595 1231 m 459 1236 q 422 1266 434 1243 q 418 1287 418 1275 q 422 1308 418 1299 q 470 1341 440 1341 q 475 1340 473 1341 q 511 1322 498 1337 q 524 1287 524 1306 q 508 1250 524 1267 q 471 1234 491 1234 q 459 1236 465 1234 m 602 1131 q 694 1093 655 1131 q 713 1073 706 1082 q 728 1047 720 1063 q 764 855 764 975 q 703 492 764 696 q 563 169 642 302 q 380 -35 476 24 q 342 -54 363 -45 q 304 -68 321 -63 q 281 -72 292 -71 q 255 -74 271 -73 q 214 -72 228 -74 q 10 171 53 -37 q 3 217 5 195 q 1 270 1 239 l 1 295 q 2 339 1 319 q 6 388 3 360 q 67 652 22 523 q 161 829 113 781 q 221 854 190 854 l 226 854 q 253 848 241 853 q 275 831 264 843 q 292 804 286 821 q 298 770 298 787 q 294 747 298 758 q 287 731 292 741 q 275 711 281 721 q 212 564 241 657 q 164 280 164 406 q 200 110 164 172 q 255 72 222 72 q 274 75 264 72 q 471 281 372 107 q 585 556 535 399 q 650 844 635 713 q 652 884 652 861 q 645 972 652 926 q 617 1036 637 1018 q 501 877 550 987 q 425 642 452 766 q 397 429 397 517 q 386 395 396 406 q 359 385 375 385 q 302 407 332 385 q 262 464 273 430 q 259 503 259 482 q 262 555 259 530 q 262 562 262 559 q 301 743 271 646 q 370 924 330 840 q 464 1063 411 1011 q 594 1131 528 1126 l 602 1131 z "},"":{"ha":543,"x_min":115,"x_max":513,"o":"m 387 90 q 379 94 384 92 q 372 100 375 97 q 281 232 340 127 l 275 243 l 267 234 q 214 177 240 203 q 172 141 187 151 q 143 131 157 131 q 119 146 127 131 q 115 158 115 151 q 124 186 115 169 q 161 245 136 209 q 213 315 186 282 l 227 331 l 220 345 q 180 461 197 392 q 172 498 174 485 q 170 525 170 511 l 170 534 q 172 553 171 547 q 177 566 173 559 q 212 601 189 589 q 221 605 218 604 q 230 607 225 606 q 244 607 235 607 q 259 607 254 607 q 267 605 264 606 q 275 602 271 604 q 295 588 286 596 q 309 569 304 579 q 314 554 311 565 q 321 532 318 544 q 333 493 328 511 q 341 470 339 475 l 342 470 q 351 478 343 470 q 375 507 359 487 q 430 569 410 551 q 467 587 450 586 q 476 587 472 587 q 498 579 490 587 q 513 547 513 568 q 509 530 513 538 q 496 509 506 522 q 466 477 486 497 q 385 387 416 426 l 372 370 l 383 328 q 395 275 387 309 q 412 210 404 242 q 427 145 422 167 q 431 113 431 123 q 429 99 431 103 q 404 86 420 86 q 387 90 396 86 z "},"":{"ha":610,"x_min":-2,"x_max":588,"o":"m 513 1046 l 514 1046 q 552 1033 534 1046 q 576 996 570 1019 q 576 987 576 992 q 545 897 576 960 q 536 878 540 886 q 532 869 532 869 q 536 864 532 868 q 538 860 537 862 q 574 785 559 833 q 581 760 578 772 q 585 724 583 748 q 588 672 588 694 q 585 624 588 651 q 519 383 574 506 q 381 165 465 260 q 237 62 304 81 l 222 58 l 214 29 q 208 6 210 14 q 203 -6 205 -2 q 199 -14 201 -10 q 180 -24 191 -24 q 169 -22 174 -24 q 147 24 147 -12 q 151 59 147 39 l 151 60 q 142 66 151 62 q 72 118 103 81 q 11 245 28 168 q 3 293 6 264 q 0 343 0 321 l 0 352 q 0 372 0 361 q -1 390 -1 382 q -2 406 -2 397 q 19 503 -2 443 q 132 724 59 620 q 283 882 204 828 q 409 925 353 925 l 424 925 l 437 959 q 467 1021 454 1002 q 497 1044 480 1040 q 513 1046 505 1046 m 370 785 q 342 768 366 785 q 292 727 319 750 q 210 646 246 687 l 196 631 l 203 625 q 229 569 225 602 q 230 562 230 565 q 212 505 230 536 q 169 392 184 452 q 154 277 154 331 q 172 180 154 220 q 175 176 174 178 q 177 174 176 174 q 179 180 178 176 q 182 189 180 184 q 271 492 220 331 q 363 764 322 654 q 368 779 366 772 q 370 785 370 785 m 467 716 q 467 716 467 716 q 439 661 462 716 q 431 639 435 650 q 356 456 394 551 q 300 310 318 361 q 282 259 291 286 q 266 212 273 233 q 259 189 259 191 q 260 189 259 189 q 271 197 262 189 q 319 247 292 214 q 366 311 347 280 q 467 574 448 442 q 473 642 473 609 q 471 680 473 660 q 471 684 471 682 q 467 716 471 716 z "},"":{"ha":777,"x_min":1,"x_max":829,"o":"m 602 1200 q 571 1214 591 1203 q 534 1234 550 1224 q 485 1310 485 1267 q 486 1322 485 1318 q 489 1331 486 1326 q 527 1354 500 1354 q 630 1274 575 1354 q 653 1224 653 1241 q 649 1211 653 1216 q 645 1205 648 1208 q 640 1201 642 1202 q 619 1198 631 1198 q 602 1200 610 1198 m 537 -104 q 505 -88 522 -100 q 479 -58 489 -75 q 447 105 447 -3 q 462 276 447 179 q 469 317 464 290 q 478 367 474 344 q 484 395 483 391 q 478 384 484 395 q 463 356 471 373 q 285 96 368 183 q 140 13 210 18 l 135 13 q 107 17 123 13 q 80 26 92 20 q 5 148 22 58 q 1 199 1 172 q 3 254 1 220 q 15 351 7 304 q 40 459 23 398 q 123 706 71 575 q 230 938 175 837 q 260 986 247 970 q 290 1009 273 1002 q 301 1014 297 1013 q 310 1016 305 1015 q 326 1016 315 1016 q 340 1016 336 1016 q 349 1014 345 1015 q 359 1009 353 1013 q 395 971 384 998 q 399 958 397 964 q 400 943 400 953 q 398 925 400 932 q 392 905 397 917 q 376 873 387 893 q 180 351 233 590 q 162 205 163 267 q 161 176 161 188 q 162 160 161 163 l 163 155 q 235 205 192 167 q 321 302 279 243 q 524 670 437 479 q 642 951 612 861 q 652 983 647 968 q 667 1027 664 1015 q 673 1041 670 1034 q 679 1053 676 1048 q 716 1085 692 1074 q 731 1090 725 1089 q 746 1093 736 1092 l 751 1093 q 802 1074 781 1093 q 828 1024 823 1056 q 829 1015 829 1019 q 814 954 829 995 q 631 299 684 589 q 604 125 615 214 q 592 5 592 37 l 592 1 q 593 -9 592 -6 q 594 -13 593 -12 q 598 -15 595 -14 q 604 -18 601 -16 q 608 -22 607 -20 q 611 -26 610 -24 q 612 -35 612 -29 l 612 -43 q 610 -58 611 -52 q 606 -68 609 -63 q 576 -98 595 -90 q 547 -104 562 -104 q 537 -104 542 -104 z "},"":{"ha":777,"x_min":1,"x_max":829,"o":"m 523 1192 q 498 1213 507 1196 q 495 1227 495 1219 q 500 1249 495 1238 q 584 1330 518 1289 q 641 1354 624 1354 q 648 1353 645 1354 q 655 1335 655 1348 q 640 1289 655 1318 q 532 1191 583 1191 q 523 1192 528 1191 m 537 -104 q 505 -88 522 -100 q 479 -58 489 -75 q 447 105 447 -3 q 462 276 447 179 q 469 317 464 290 q 478 367 474 344 q 484 395 483 391 q 478 384 484 395 q 463 356 471 373 q 285 96 368 183 q 140 13 210 18 l 135 13 q 107 17 123 13 q 80 26 92 20 q 5 148 22 58 q 1 199 1 172 q 3 254 1 220 q 15 351 7 304 q 40 459 23 398 q 123 706 71 575 q 230 938 175 837 q 260 986 247 970 q 290 1009 273 1002 q 301 1014 297 1013 q 310 1016 305 1015 q 326 1016 315 1016 q 340 1016 336 1016 q 349 1014 345 1015 q 359 1009 353 1013 q 395 971 384 998 q 399 958 397 964 q 400 943 400 953 q 398 925 400 932 q 392 905 397 917 q 376 873 387 893 q 180 351 233 590 q 162 205 163 267 q 161 176 161 188 q 162 160 161 163 l 163 155 q 235 205 192 167 q 321 302 279 243 q 524 670 437 479 q 642 951 612 861 q 652 983 647 968 q 667 1027 664 1015 q 673 1041 670 1034 q 679 1053 676 1048 q 716 1085 692 1074 q 731 1090 725 1089 q 746 1093 736 1092 l 751 1093 q 802 1074 781 1093 q 828 1024 823 1056 q 829 1015 829 1019 q 814 954 829 995 q 631 299 684 589 q 604 125 615 214 q 592 5 592 37 l 592 1 q 593 -9 592 -6 q 594 -13 593 -12 q 598 -15 595 -14 q 604 -18 601 -16 q 608 -22 607 -20 q 611 -26 610 -24 q 612 -35 612 -29 l 612 -43 q 610 -58 611 -52 q 606 -68 609 -63 q 576 -98 595 -90 q 547 -104 562 -104 q 537 -104 542 -104 z "},"":{"ha":777,"x_min":1,"x_max":829,"o":"m 437 1138 q 408 1166 417 1146 q 404 1175 405 1171 q 404 1187 404 1179 q 413 1219 404 1204 q 450 1261 422 1234 q 510 1314 479 1290 q 566 1350 542 1338 q 585 1354 576 1354 q 619 1331 605 1354 q 634 1303 626 1320 q 646 1276 643 1286 q 653 1248 651 1261 q 654 1213 654 1236 l 654 1202 q 653 1175 654 1184 q 647 1159 651 1165 q 625 1146 639 1146 q 616 1147 621 1146 q 587 1171 602 1152 q 562 1216 572 1191 q 560 1219 561 1217 q 558 1226 559 1223 q 556 1229 557 1229 q 553 1224 556 1229 q 544 1213 549 1219 q 512 1173 529 1193 q 489 1147 496 1153 q 473 1139 481 1141 q 456 1136 466 1136 l 450 1136 q 444 1136 447 1136 q 437 1138 441 1137 m 537 -104 q 505 -88 522 -100 q 479 -58 489 -75 q 447 105 447 -3 q 462 276 447 179 q 469 317 464 290 q 478 367 474 344 q 484 395 483 391 q 478 384 484 395 q 463 356 471 373 q 285 96 368 183 q 140 13 210 18 l 135 13 q 107 17 123 13 q 80 26 92 20 q 5 148 22 58 q 1 199 1 172 q 3 254 1 220 q 15 351 7 304 q 40 459 23 398 q 123 706 71 575 q 230 938 175 837 q 260 986 247 970 q 290 1009 273 1002 q 301 1014 297 1013 q 310 1016 305 1015 q 326 1016 315 1016 q 340 1016 336 1016 q 349 1014 345 1015 q 359 1009 353 1013 q 395 971 384 998 q 399 958 397 964 q 400 943 400 953 q 398 925 400 932 q 392 905 397 917 q 376 873 387 893 q 180 351 233 590 q 162 205 163 267 q 161 176 161 188 q 162 160 161 163 l 163 155 q 235 205 192 167 q 321 302 279 243 q 524 670 437 479 q 642 951 612 861 q 652 983 647 968 q 667 1027 664 1015 q 673 1041 670 1034 q 679 1053 676 1048 q 716 1085 692 1074 q 731 1090 725 1089 q 746 1093 736 1092 l 751 1093 q 802 1074 781 1093 q 828 1024 823 1056 q 829 1015 829 1019 q 814 954 829 995 q 631 299 684 589 q 604 125 615 214 q 592 5 592 37 l 592 1 q 593 -9 592 -6 q 594 -13 593 -12 q 598 -15 595 -14 q 604 -18 601 -16 q 608 -22 607 -20 q 611 -26 610 -24 q 612 -35 612 -29 l 612 -43 q 610 -58 611 -52 q 606 -68 609 -63 q 576 -98 595 -90 q 547 -104 562 -104 q 537 -104 542 -104 z "},"":{"ha":777,"x_min":1,"x_max":829,"o":"m 636 1232 q 627 1234 629 1234 q 624 1235 627 1234 q 617 1240 621 1237 q 596 1264 603 1250 q 589 1292 589 1278 q 598 1324 589 1309 q 624 1348 607 1339 q 633 1352 629 1350 q 640 1353 636 1353 q 652 1354 644 1354 q 663 1353 659 1354 q 670 1352 667 1353 q 679 1348 673 1351 q 714 1296 712 1331 l 714 1294 q 703 1257 714 1274 q 673 1234 692 1241 q 650 1230 662 1230 q 636 1232 642 1230 m 507 1235 q 485 1246 494 1238 q 469 1265 475 1255 q 466 1286 466 1274 q 469 1308 466 1299 q 518 1339 488 1339 l 523 1339 q 558 1321 545 1337 q 571 1286 571 1305 q 555 1249 571 1266 q 518 1234 539 1234 q 507 1235 513 1234 m 537 -104 q 505 -88 522 -100 q 479 -58 489 -75 q 447 105 447 -3 q 462 276 447 179 q 469 317 464 290 q 478 367 474 344 q 484 395 483 391 q 478 384 484 395 q 463 356 471 373 q 285 96 368 183 q 140 13 210 18 l 135 13 q 107 17 123 13 q 80 26 92 20 q 5 148 22 58 q 1 199 1 172 q 3 254 1 220 q 15 351 7 304 q 40 459 23 398 q 123 706 71 575 q 230 938 175 837 q 260 986 247 970 q 290 1009 273 1002 q 301 1014 297 1013 q 310 1016 305 1015 q 326 1016 315 1016 q 340 1016 336 1016 q 349 1014 345 1015 q 359 1009 353 1013 q 395 971 384 998 q 399 958 397 964 q 400 943 400 953 q 398 925 400 932 q 392 905 397 917 q 376 873 387 893 q 180 351 233 590 q 162 205 163 267 q 161 176 161 188 q 162 160 161 163 l 163 155 q 235 205 192 167 q 321 302 279 243 q 524 670 437 479 q 642 951 612 861 q 652 983 647 968 q 667 1027 664 1015 q 673 1041 670 1034 q 679 1053 676 1048 q 716 1085 692 1074 q 731 1090 725 1089 q 746 1093 736 1092 l 751 1093 q 802 1074 781 1093 q 828 1024 823 1056 q 829 1015 829 1019 q 814 954 829 995 q 631 299 684 589 q 604 125 615 214 q 592 5 592 37 l 592 1 q 593 -9 592 -6 q 594 -13 593 -12 q 598 -15 595 -14 q 604 -18 601 -16 q 608 -22 607 -20 q 611 -26 610 -24 q 612 -35 612 -29 l 612 -43 q 610 -58 611 -52 q 606 -68 609 -63 q 576 -98 595 -90 q 547 -104 562 -104 q 537 -104 542 -104 z "},"":{"ha":745,"x_min":2,"x_max":777,"o":"m 524 1192 q 499 1213 508 1196 q 496 1227 496 1219 q 500 1249 496 1238 q 585 1330 519 1289 q 642 1354 625 1354 q 648 1353 646 1354 q 656 1335 656 1348 q 641 1289 656 1318 q 533 1191 584 1191 q 524 1192 528 1191 m 206 -64 q 38 39 103 -45 q 20 71 29 52 q 7 103 12 90 q 4 118 5 109 q 3 134 3 126 q 2 146 2 141 q 3 154 2 151 q 5 162 3 158 q 33 184 15 184 q 40 183 36 184 q 47 180 43 182 q 57 170 50 177 q 78 146 64 162 q 157 96 111 111 q 186 89 173 90 q 222 87 199 87 q 249 87 240 87 q 264 90 257 88 q 370 175 321 105 q 443 313 409 230 q 520 544 477 397 q 524 557 522 551 q 531 580 528 569 q 536 597 534 591 q 539 611 538 605 q 541 618 541 616 q 534 608 541 618 q 517 583 527 598 q 311 336 399 410 q 194 289 250 289 l 187 289 q 136 302 158 290 q 58 430 72 336 q 54 488 54 455 q 62 593 54 536 q 159 949 88 767 q 189 1016 172 983 q 213 1061 205 1050 q 270 1092 234 1089 l 276 1092 q 321 1077 302 1092 q 349 1034 341 1061 q 351 1017 351 1025 q 336 970 351 997 q 273 812 305 907 q 203 519 229 677 q 200 488 201 506 q 199 454 199 469 q 201 421 199 431 q 204 415 203 416 q 210 414 205 414 q 223 417 214 414 q 241 424 233 420 q 435 606 323 469 q 595 831 522 715 q 609 854 604 846 q 618 872 614 863 q 626 892 621 880 q 671 1005 651 962 q 694 1046 685 1034 q 715 1064 703 1059 q 732 1068 724 1068 q 766 1053 751 1068 q 777 1013 777 1041 q 777 994 777 1005 q 744 812 770 935 q 686 568 718 689 q 578 235 631 359 q 456 37 524 111 q 285 -63 382 -44 q 239 -66 264 -66 q 206 -64 220 -66 z "},"":{"ha":760,"x_min":81,"x_max":716,"o":"m 370 852 q 413 837 396 852 q 435 783 435 821 q 414 680 435 747 q 406 652 409 663 q 401 639 402 640 l 401 638 q 404 637 401 637 q 412 636 406 636 q 430 636 418 636 q 584 608 517 636 q 611 595 600 602 q 636 578 622 589 q 658 559 650 568 q 676 537 667 551 q 715 436 711 492 q 716 420 716 428 q 696 333 716 376 q 560 172 655 245 q 345 60 465 98 q 213 35 257 35 q 197 37 203 35 l 190 39 l 184 24 q 166 -23 177 5 q 144 -77 155 -52 q 130 -112 134 -102 q 122 -127 125 -122 q 117 -134 119 -132 q 107 -136 112 -136 q 96 -132 102 -136 q 81 -58 81 -118 q 106 163 81 20 q 158 391 122 257 q 295 798 245 718 q 318 827 304 814 q 343 846 331 840 q 356 851 351 850 q 370 852 361 852 m 363 526 q 362 526 362 526 q 361 525 361 526 q 327 429 359 522 q 241 184 294 336 q 227 144 233 160 q 220 125 221 127 l 220 123 q 221 123 220 123 q 229 125 223 123 q 240 128 233 126 q 252 132 246 130 q 392 212 302 150 q 564 378 536 311 q 569 391 568 386 q 570 404 570 397 q 566 423 570 414 q 551 442 562 431 q 453 496 526 469 q 397 516 425 507 q 363 526 368 526 z "}}}
